%TF.GenerationSoftware,KiCad,Pcbnew,10.0.3*%
%TF.CreationDate,2026-06-20T13:33:00+02:00*%
%TF.ProjectId,Controller,436f6e74-726f-46c6-9c65-722e6b696361,rev?*%
%TF.SameCoordinates,Original*%
%TF.FileFunction,Legend,Top*%
%TF.FilePolarity,Positive*%
%FSLAX46Y46*%
G04 Gerber Fmt 4.6, Leading zero omitted, Abs format (unit mm)*
G04 Created by KiCad (PCBNEW 10.0.3) date 2026-06-20 13:33:00*
%MOMM*%
%LPD*%
G01*
G04 APERTURE LIST*
%ADD10C,0.100000*%
%ADD11C,0.200000*%
%ADD12C,0.150000*%
%ADD13C,0.152400*%
%ADD14C,0.120000*%
%ADD15C,0.203200*%
%ADD16C,0.050000*%
G04 APERTURE END LIST*
D10*
X146351503Y-108671704D02*
X146422931Y-108695514D01*
X146422931Y-108695514D02*
X146446741Y-108719323D01*
X146446741Y-108719323D02*
X146470550Y-108766942D01*
X146470550Y-108766942D02*
X146470550Y-108838371D01*
X146470550Y-108838371D02*
X146446741Y-108885990D01*
X146446741Y-108885990D02*
X146422931Y-108909800D01*
X146422931Y-108909800D02*
X146375312Y-108933609D01*
X146375312Y-108933609D02*
X146184836Y-108933609D01*
X146184836Y-108933609D02*
X146184836Y-108433609D01*
X146184836Y-108433609D02*
X146351503Y-108433609D01*
X146351503Y-108433609D02*
X146399122Y-108457419D01*
X146399122Y-108457419D02*
X146422931Y-108481228D01*
X146422931Y-108481228D02*
X146446741Y-108528847D01*
X146446741Y-108528847D02*
X146446741Y-108576466D01*
X146446741Y-108576466D02*
X146422931Y-108624085D01*
X146422931Y-108624085D02*
X146399122Y-108647895D01*
X146399122Y-108647895D02*
X146351503Y-108671704D01*
X146351503Y-108671704D02*
X146184836Y-108671704D01*
X146946741Y-108933609D02*
X146661027Y-108933609D01*
X146803884Y-108933609D02*
X146803884Y-108433609D01*
X146803884Y-108433609D02*
X146756265Y-108505038D01*
X146756265Y-108505038D02*
X146708646Y-108552657D01*
X146708646Y-108552657D02*
X146661027Y-108576466D01*
X158351503Y-108671704D02*
X158422931Y-108695514D01*
X158422931Y-108695514D02*
X158446741Y-108719323D01*
X158446741Y-108719323D02*
X158470550Y-108766942D01*
X158470550Y-108766942D02*
X158470550Y-108838371D01*
X158470550Y-108838371D02*
X158446741Y-108885990D01*
X158446741Y-108885990D02*
X158422931Y-108909800D01*
X158422931Y-108909800D02*
X158375312Y-108933609D01*
X158375312Y-108933609D02*
X158184836Y-108933609D01*
X158184836Y-108933609D02*
X158184836Y-108433609D01*
X158184836Y-108433609D02*
X158351503Y-108433609D01*
X158351503Y-108433609D02*
X158399122Y-108457419D01*
X158399122Y-108457419D02*
X158422931Y-108481228D01*
X158422931Y-108481228D02*
X158446741Y-108528847D01*
X158446741Y-108528847D02*
X158446741Y-108576466D01*
X158446741Y-108576466D02*
X158422931Y-108624085D01*
X158422931Y-108624085D02*
X158399122Y-108647895D01*
X158399122Y-108647895D02*
X158351503Y-108671704D01*
X158351503Y-108671704D02*
X158184836Y-108671704D01*
X158946741Y-108933609D02*
X158661027Y-108933609D01*
X158803884Y-108933609D02*
X158803884Y-108433609D01*
X158803884Y-108433609D02*
X158756265Y-108505038D01*
X158756265Y-108505038D02*
X158708646Y-108552657D01*
X158708646Y-108552657D02*
X158661027Y-108576466D01*
X158351503Y-98671704D02*
X158422931Y-98695514D01*
X158422931Y-98695514D02*
X158446741Y-98719323D01*
X158446741Y-98719323D02*
X158470550Y-98766942D01*
X158470550Y-98766942D02*
X158470550Y-98838371D01*
X158470550Y-98838371D02*
X158446741Y-98885990D01*
X158446741Y-98885990D02*
X158422931Y-98909800D01*
X158422931Y-98909800D02*
X158375312Y-98933609D01*
X158375312Y-98933609D02*
X158184836Y-98933609D01*
X158184836Y-98933609D02*
X158184836Y-98433609D01*
X158184836Y-98433609D02*
X158351503Y-98433609D01*
X158351503Y-98433609D02*
X158399122Y-98457419D01*
X158399122Y-98457419D02*
X158422931Y-98481228D01*
X158422931Y-98481228D02*
X158446741Y-98528847D01*
X158446741Y-98528847D02*
X158446741Y-98576466D01*
X158446741Y-98576466D02*
X158422931Y-98624085D01*
X158422931Y-98624085D02*
X158399122Y-98647895D01*
X158399122Y-98647895D02*
X158351503Y-98671704D01*
X158351503Y-98671704D02*
X158184836Y-98671704D01*
X158946741Y-98933609D02*
X158661027Y-98933609D01*
X158803884Y-98933609D02*
X158803884Y-98433609D01*
X158803884Y-98433609D02*
X158756265Y-98505038D01*
X158756265Y-98505038D02*
X158708646Y-98552657D01*
X158708646Y-98552657D02*
X158661027Y-98576466D01*
X146351503Y-98671704D02*
X146422931Y-98695514D01*
X146422931Y-98695514D02*
X146446741Y-98719323D01*
X146446741Y-98719323D02*
X146470550Y-98766942D01*
X146470550Y-98766942D02*
X146470550Y-98838371D01*
X146470550Y-98838371D02*
X146446741Y-98885990D01*
X146446741Y-98885990D02*
X146422931Y-98909800D01*
X146422931Y-98909800D02*
X146375312Y-98933609D01*
X146375312Y-98933609D02*
X146184836Y-98933609D01*
X146184836Y-98933609D02*
X146184836Y-98433609D01*
X146184836Y-98433609D02*
X146351503Y-98433609D01*
X146351503Y-98433609D02*
X146399122Y-98457419D01*
X146399122Y-98457419D02*
X146422931Y-98481228D01*
X146422931Y-98481228D02*
X146446741Y-98528847D01*
X146446741Y-98528847D02*
X146446741Y-98576466D01*
X146446741Y-98576466D02*
X146422931Y-98624085D01*
X146422931Y-98624085D02*
X146399122Y-98647895D01*
X146399122Y-98647895D02*
X146351503Y-98671704D01*
X146351503Y-98671704D02*
X146184836Y-98671704D01*
X146946741Y-98933609D02*
X146661027Y-98933609D01*
X146803884Y-98933609D02*
X146803884Y-98433609D01*
X146803884Y-98433609D02*
X146756265Y-98505038D01*
X146756265Y-98505038D02*
X146708646Y-98552657D01*
X146708646Y-98552657D02*
X146661027Y-98576466D01*
X143646741Y-108457419D02*
X143599122Y-108433609D01*
X143599122Y-108433609D02*
X143527693Y-108433609D01*
X143527693Y-108433609D02*
X143456265Y-108457419D01*
X143456265Y-108457419D02*
X143408646Y-108505038D01*
X143408646Y-108505038D02*
X143384836Y-108552657D01*
X143384836Y-108552657D02*
X143361027Y-108647895D01*
X143361027Y-108647895D02*
X143361027Y-108719323D01*
X143361027Y-108719323D02*
X143384836Y-108814561D01*
X143384836Y-108814561D02*
X143408646Y-108862180D01*
X143408646Y-108862180D02*
X143456265Y-108909800D01*
X143456265Y-108909800D02*
X143527693Y-108933609D01*
X143527693Y-108933609D02*
X143575312Y-108933609D01*
X143575312Y-108933609D02*
X143646741Y-108909800D01*
X143646741Y-108909800D02*
X143670550Y-108885990D01*
X143670550Y-108885990D02*
X143670550Y-108719323D01*
X143670550Y-108719323D02*
X143575312Y-108719323D01*
X143884836Y-108933609D02*
X143884836Y-108433609D01*
X143884836Y-108433609D02*
X144170550Y-108933609D01*
X144170550Y-108933609D02*
X144170550Y-108433609D01*
X144408646Y-108933609D02*
X144408646Y-108433609D01*
X144408646Y-108433609D02*
X144527694Y-108433609D01*
X144527694Y-108433609D02*
X144599122Y-108457419D01*
X144599122Y-108457419D02*
X144646741Y-108505038D01*
X144646741Y-108505038D02*
X144670551Y-108552657D01*
X144670551Y-108552657D02*
X144694360Y-108647895D01*
X144694360Y-108647895D02*
X144694360Y-108719323D01*
X144694360Y-108719323D02*
X144670551Y-108814561D01*
X144670551Y-108814561D02*
X144646741Y-108862180D01*
X144646741Y-108862180D02*
X144599122Y-108909800D01*
X144599122Y-108909800D02*
X144527694Y-108933609D01*
X144527694Y-108933609D02*
X144408646Y-108933609D01*
X155646741Y-108457419D02*
X155599122Y-108433609D01*
X155599122Y-108433609D02*
X155527693Y-108433609D01*
X155527693Y-108433609D02*
X155456265Y-108457419D01*
X155456265Y-108457419D02*
X155408646Y-108505038D01*
X155408646Y-108505038D02*
X155384836Y-108552657D01*
X155384836Y-108552657D02*
X155361027Y-108647895D01*
X155361027Y-108647895D02*
X155361027Y-108719323D01*
X155361027Y-108719323D02*
X155384836Y-108814561D01*
X155384836Y-108814561D02*
X155408646Y-108862180D01*
X155408646Y-108862180D02*
X155456265Y-108909800D01*
X155456265Y-108909800D02*
X155527693Y-108933609D01*
X155527693Y-108933609D02*
X155575312Y-108933609D01*
X155575312Y-108933609D02*
X155646741Y-108909800D01*
X155646741Y-108909800D02*
X155670550Y-108885990D01*
X155670550Y-108885990D02*
X155670550Y-108719323D01*
X155670550Y-108719323D02*
X155575312Y-108719323D01*
X155884836Y-108933609D02*
X155884836Y-108433609D01*
X155884836Y-108433609D02*
X156170550Y-108933609D01*
X156170550Y-108933609D02*
X156170550Y-108433609D01*
X156408646Y-108933609D02*
X156408646Y-108433609D01*
X156408646Y-108433609D02*
X156527694Y-108433609D01*
X156527694Y-108433609D02*
X156599122Y-108457419D01*
X156599122Y-108457419D02*
X156646741Y-108505038D01*
X156646741Y-108505038D02*
X156670551Y-108552657D01*
X156670551Y-108552657D02*
X156694360Y-108647895D01*
X156694360Y-108647895D02*
X156694360Y-108719323D01*
X156694360Y-108719323D02*
X156670551Y-108814561D01*
X156670551Y-108814561D02*
X156646741Y-108862180D01*
X156646741Y-108862180D02*
X156599122Y-108909800D01*
X156599122Y-108909800D02*
X156527694Y-108933609D01*
X156527694Y-108933609D02*
X156408646Y-108933609D01*
X155646741Y-98457419D02*
X155599122Y-98433609D01*
X155599122Y-98433609D02*
X155527693Y-98433609D01*
X155527693Y-98433609D02*
X155456265Y-98457419D01*
X155456265Y-98457419D02*
X155408646Y-98505038D01*
X155408646Y-98505038D02*
X155384836Y-98552657D01*
X155384836Y-98552657D02*
X155361027Y-98647895D01*
X155361027Y-98647895D02*
X155361027Y-98719323D01*
X155361027Y-98719323D02*
X155384836Y-98814561D01*
X155384836Y-98814561D02*
X155408646Y-98862180D01*
X155408646Y-98862180D02*
X155456265Y-98909800D01*
X155456265Y-98909800D02*
X155527693Y-98933609D01*
X155527693Y-98933609D02*
X155575312Y-98933609D01*
X155575312Y-98933609D02*
X155646741Y-98909800D01*
X155646741Y-98909800D02*
X155670550Y-98885990D01*
X155670550Y-98885990D02*
X155670550Y-98719323D01*
X155670550Y-98719323D02*
X155575312Y-98719323D01*
X155884836Y-98933609D02*
X155884836Y-98433609D01*
X155884836Y-98433609D02*
X156170550Y-98933609D01*
X156170550Y-98933609D02*
X156170550Y-98433609D01*
X156408646Y-98933609D02*
X156408646Y-98433609D01*
X156408646Y-98433609D02*
X156527694Y-98433609D01*
X156527694Y-98433609D02*
X156599122Y-98457419D01*
X156599122Y-98457419D02*
X156646741Y-98505038D01*
X156646741Y-98505038D02*
X156670551Y-98552657D01*
X156670551Y-98552657D02*
X156694360Y-98647895D01*
X156694360Y-98647895D02*
X156694360Y-98719323D01*
X156694360Y-98719323D02*
X156670551Y-98814561D01*
X156670551Y-98814561D02*
X156646741Y-98862180D01*
X156646741Y-98862180D02*
X156599122Y-98909800D01*
X156599122Y-98909800D02*
X156527694Y-98933609D01*
X156527694Y-98933609D02*
X156408646Y-98933609D01*
X143646741Y-98457419D02*
X143599122Y-98433609D01*
X143599122Y-98433609D02*
X143527693Y-98433609D01*
X143527693Y-98433609D02*
X143456265Y-98457419D01*
X143456265Y-98457419D02*
X143408646Y-98505038D01*
X143408646Y-98505038D02*
X143384836Y-98552657D01*
X143384836Y-98552657D02*
X143361027Y-98647895D01*
X143361027Y-98647895D02*
X143361027Y-98719323D01*
X143361027Y-98719323D02*
X143384836Y-98814561D01*
X143384836Y-98814561D02*
X143408646Y-98862180D01*
X143408646Y-98862180D02*
X143456265Y-98909800D01*
X143456265Y-98909800D02*
X143527693Y-98933609D01*
X143527693Y-98933609D02*
X143575312Y-98933609D01*
X143575312Y-98933609D02*
X143646741Y-98909800D01*
X143646741Y-98909800D02*
X143670550Y-98885990D01*
X143670550Y-98885990D02*
X143670550Y-98719323D01*
X143670550Y-98719323D02*
X143575312Y-98719323D01*
X143884836Y-98933609D02*
X143884836Y-98433609D01*
X143884836Y-98433609D02*
X144170550Y-98933609D01*
X144170550Y-98933609D02*
X144170550Y-98433609D01*
X144408646Y-98933609D02*
X144408646Y-98433609D01*
X144408646Y-98433609D02*
X144527694Y-98433609D01*
X144527694Y-98433609D02*
X144599122Y-98457419D01*
X144599122Y-98457419D02*
X144646741Y-98505038D01*
X144646741Y-98505038D02*
X144670551Y-98552657D01*
X144670551Y-98552657D02*
X144694360Y-98647895D01*
X144694360Y-98647895D02*
X144694360Y-98719323D01*
X144694360Y-98719323D02*
X144670551Y-98814561D01*
X144670551Y-98814561D02*
X144646741Y-98862180D01*
X144646741Y-98862180D02*
X144599122Y-98909800D01*
X144599122Y-98909800D02*
X144527694Y-98933609D01*
X144527694Y-98933609D02*
X144408646Y-98933609D01*
D11*
X155869673Y-83367219D02*
X155869673Y-82367219D01*
X155869673Y-82367219D02*
X156107768Y-82367219D01*
X156107768Y-82367219D02*
X156250625Y-82414838D01*
X156250625Y-82414838D02*
X156345863Y-82510076D01*
X156345863Y-82510076D02*
X156393482Y-82605314D01*
X156393482Y-82605314D02*
X156441101Y-82795790D01*
X156441101Y-82795790D02*
X156441101Y-82938647D01*
X156441101Y-82938647D02*
X156393482Y-83129123D01*
X156393482Y-83129123D02*
X156345863Y-83224361D01*
X156345863Y-83224361D02*
X156250625Y-83319600D01*
X156250625Y-83319600D02*
X156107768Y-83367219D01*
X156107768Y-83367219D02*
X155869673Y-83367219D01*
X153369673Y-82367219D02*
X153369673Y-83176742D01*
X153369673Y-83176742D02*
X153417292Y-83271980D01*
X153417292Y-83271980D02*
X153464911Y-83319600D01*
X153464911Y-83319600D02*
X153560149Y-83367219D01*
X153560149Y-83367219D02*
X153750625Y-83367219D01*
X153750625Y-83367219D02*
X153845863Y-83319600D01*
X153845863Y-83319600D02*
X153893482Y-83271980D01*
X153893482Y-83271980D02*
X153941101Y-83176742D01*
X153941101Y-83176742D02*
X153941101Y-82367219D01*
X151345863Y-83367219D02*
X150869673Y-83367219D01*
X150869673Y-83367219D02*
X150869673Y-82367219D01*
X148941101Y-83367219D02*
X148607768Y-82891028D01*
X148369673Y-83367219D02*
X148369673Y-82367219D01*
X148369673Y-82367219D02*
X148750625Y-82367219D01*
X148750625Y-82367219D02*
X148845863Y-82414838D01*
X148845863Y-82414838D02*
X148893482Y-82462457D01*
X148893482Y-82462457D02*
X148941101Y-82557695D01*
X148941101Y-82557695D02*
X148941101Y-82700552D01*
X148941101Y-82700552D02*
X148893482Y-82795790D01*
X148893482Y-82795790D02*
X148845863Y-82843409D01*
X148845863Y-82843409D02*
X148750625Y-82891028D01*
X148750625Y-82891028D02*
X148369673Y-82891028D01*
X144893482Y-82414838D02*
X144798244Y-82367219D01*
X144798244Y-82367219D02*
X144655387Y-82367219D01*
X144655387Y-82367219D02*
X144512530Y-82414838D01*
X144512530Y-82414838D02*
X144417292Y-82510076D01*
X144417292Y-82510076D02*
X144369673Y-82605314D01*
X144369673Y-82605314D02*
X144322054Y-82795790D01*
X144322054Y-82795790D02*
X144322054Y-82938647D01*
X144322054Y-82938647D02*
X144369673Y-83129123D01*
X144369673Y-83129123D02*
X144417292Y-83224361D01*
X144417292Y-83224361D02*
X144512530Y-83319600D01*
X144512530Y-83319600D02*
X144655387Y-83367219D01*
X144655387Y-83367219D02*
X144750625Y-83367219D01*
X144750625Y-83367219D02*
X144893482Y-83319600D01*
X144893482Y-83319600D02*
X144941101Y-83271980D01*
X144941101Y-83271980D02*
X144941101Y-82938647D01*
X144941101Y-82938647D02*
X144750625Y-82938647D01*
X145369673Y-83367219D02*
X145369673Y-82367219D01*
X145369673Y-82367219D02*
X145941101Y-83367219D01*
X145941101Y-83367219D02*
X145941101Y-82367219D01*
X146417292Y-83367219D02*
X146417292Y-82367219D01*
X146417292Y-82367219D02*
X146655387Y-82367219D01*
X146655387Y-82367219D02*
X146798244Y-82414838D01*
X146798244Y-82414838D02*
X146893482Y-82510076D01*
X146893482Y-82510076D02*
X146941101Y-82605314D01*
X146941101Y-82605314D02*
X146988720Y-82795790D01*
X146988720Y-82795790D02*
X146988720Y-82938647D01*
X146988720Y-82938647D02*
X146941101Y-83129123D01*
X146941101Y-83129123D02*
X146893482Y-83224361D01*
X146893482Y-83224361D02*
X146798244Y-83319600D01*
X146798244Y-83319600D02*
X146655387Y-83367219D01*
X146655387Y-83367219D02*
X146417292Y-83367219D01*
X131487470Y-109867219D02*
X131487470Y-108867219D01*
X131487470Y-108867219D02*
X131820803Y-109581504D01*
X131820803Y-109581504D02*
X132154136Y-108867219D01*
X132154136Y-108867219D02*
X132154136Y-109867219D01*
X132630327Y-109867219D02*
X132630327Y-108867219D01*
X133058898Y-109819600D02*
X133201755Y-109867219D01*
X133201755Y-109867219D02*
X133439850Y-109867219D01*
X133439850Y-109867219D02*
X133535088Y-109819600D01*
X133535088Y-109819600D02*
X133582707Y-109771980D01*
X133582707Y-109771980D02*
X133630326Y-109676742D01*
X133630326Y-109676742D02*
X133630326Y-109581504D01*
X133630326Y-109581504D02*
X133582707Y-109486266D01*
X133582707Y-109486266D02*
X133535088Y-109438647D01*
X133535088Y-109438647D02*
X133439850Y-109391028D01*
X133439850Y-109391028D02*
X133249374Y-109343409D01*
X133249374Y-109343409D02*
X133154136Y-109295790D01*
X133154136Y-109295790D02*
X133106517Y-109248171D01*
X133106517Y-109248171D02*
X133058898Y-109152933D01*
X133058898Y-109152933D02*
X133058898Y-109057695D01*
X133058898Y-109057695D02*
X133106517Y-108962457D01*
X133106517Y-108962457D02*
X133154136Y-108914838D01*
X133154136Y-108914838D02*
X133249374Y-108867219D01*
X133249374Y-108867219D02*
X133487469Y-108867219D01*
X133487469Y-108867219D02*
X133630326Y-108914838D01*
X134249374Y-108867219D02*
X134439850Y-108867219D01*
X134439850Y-108867219D02*
X134535088Y-108914838D01*
X134535088Y-108914838D02*
X134630326Y-109010076D01*
X134630326Y-109010076D02*
X134677945Y-109200552D01*
X134677945Y-109200552D02*
X134677945Y-109533885D01*
X134677945Y-109533885D02*
X134630326Y-109724361D01*
X134630326Y-109724361D02*
X134535088Y-109819600D01*
X134535088Y-109819600D02*
X134439850Y-109867219D01*
X134439850Y-109867219D02*
X134249374Y-109867219D01*
X134249374Y-109867219D02*
X134154136Y-109819600D01*
X134154136Y-109819600D02*
X134058898Y-109724361D01*
X134058898Y-109724361D02*
X134011279Y-109533885D01*
X134011279Y-109533885D02*
X134011279Y-109200552D01*
X134011279Y-109200552D02*
X134058898Y-109010076D01*
X134058898Y-109010076D02*
X134154136Y-108914838D01*
X134154136Y-108914838D02*
X134249374Y-108867219D01*
X132868421Y-107267219D02*
X132392231Y-107267219D01*
X132392231Y-107267219D02*
X132392231Y-106267219D01*
X133201755Y-106743409D02*
X133535088Y-106743409D01*
X133677945Y-107267219D02*
X133201755Y-107267219D01*
X133201755Y-107267219D02*
X133201755Y-106267219D01*
X133201755Y-106267219D02*
X133677945Y-106267219D01*
X134106517Y-107267219D02*
X134106517Y-106267219D01*
X134106517Y-106267219D02*
X134344612Y-106267219D01*
X134344612Y-106267219D02*
X134487469Y-106314838D01*
X134487469Y-106314838D02*
X134582707Y-106410076D01*
X134582707Y-106410076D02*
X134630326Y-106505314D01*
X134630326Y-106505314D02*
X134677945Y-106695790D01*
X134677945Y-106695790D02*
X134677945Y-106838647D01*
X134677945Y-106838647D02*
X134630326Y-107029123D01*
X134630326Y-107029123D02*
X134582707Y-107124361D01*
X134582707Y-107124361D02*
X134487469Y-107219600D01*
X134487469Y-107219600D02*
X134344612Y-107267219D01*
X134344612Y-107267219D02*
X134106517Y-107267219D01*
X132106517Y-104569600D02*
X132249374Y-104617219D01*
X132249374Y-104617219D02*
X132487469Y-104617219D01*
X132487469Y-104617219D02*
X132582707Y-104569600D01*
X132582707Y-104569600D02*
X132630326Y-104521980D01*
X132630326Y-104521980D02*
X132677945Y-104426742D01*
X132677945Y-104426742D02*
X132677945Y-104331504D01*
X132677945Y-104331504D02*
X132630326Y-104236266D01*
X132630326Y-104236266D02*
X132582707Y-104188647D01*
X132582707Y-104188647D02*
X132487469Y-104141028D01*
X132487469Y-104141028D02*
X132296993Y-104093409D01*
X132296993Y-104093409D02*
X132201755Y-104045790D01*
X132201755Y-104045790D02*
X132154136Y-103998171D01*
X132154136Y-103998171D02*
X132106517Y-103902933D01*
X132106517Y-103902933D02*
X132106517Y-103807695D01*
X132106517Y-103807695D02*
X132154136Y-103712457D01*
X132154136Y-103712457D02*
X132201755Y-103664838D01*
X132201755Y-103664838D02*
X132296993Y-103617219D01*
X132296993Y-103617219D02*
X132535088Y-103617219D01*
X132535088Y-103617219D02*
X132677945Y-103664838D01*
X133677945Y-104521980D02*
X133630326Y-104569600D01*
X133630326Y-104569600D02*
X133487469Y-104617219D01*
X133487469Y-104617219D02*
X133392231Y-104617219D01*
X133392231Y-104617219D02*
X133249374Y-104569600D01*
X133249374Y-104569600D02*
X133154136Y-104474361D01*
X133154136Y-104474361D02*
X133106517Y-104379123D01*
X133106517Y-104379123D02*
X133058898Y-104188647D01*
X133058898Y-104188647D02*
X133058898Y-104045790D01*
X133058898Y-104045790D02*
X133106517Y-103855314D01*
X133106517Y-103855314D02*
X133154136Y-103760076D01*
X133154136Y-103760076D02*
X133249374Y-103664838D01*
X133249374Y-103664838D02*
X133392231Y-103617219D01*
X133392231Y-103617219D02*
X133487469Y-103617219D01*
X133487469Y-103617219D02*
X133630326Y-103664838D01*
X133630326Y-103664838D02*
X133677945Y-103712457D01*
X134106517Y-104617219D02*
X134106517Y-103617219D01*
X134677945Y-104617219D02*
X134249374Y-104045790D01*
X134677945Y-103617219D02*
X134106517Y-104188647D01*
X131487470Y-102142219D02*
X131487470Y-101142219D01*
X131487470Y-101142219D02*
X131820803Y-101856504D01*
X131820803Y-101856504D02*
X132154136Y-101142219D01*
X132154136Y-101142219D02*
X132154136Y-102142219D01*
X132820803Y-101142219D02*
X133011279Y-101142219D01*
X133011279Y-101142219D02*
X133106517Y-101189838D01*
X133106517Y-101189838D02*
X133201755Y-101285076D01*
X133201755Y-101285076D02*
X133249374Y-101475552D01*
X133249374Y-101475552D02*
X133249374Y-101808885D01*
X133249374Y-101808885D02*
X133201755Y-101999361D01*
X133201755Y-101999361D02*
X133106517Y-102094600D01*
X133106517Y-102094600D02*
X133011279Y-102142219D01*
X133011279Y-102142219D02*
X132820803Y-102142219D01*
X132820803Y-102142219D02*
X132725565Y-102094600D01*
X132725565Y-102094600D02*
X132630327Y-101999361D01*
X132630327Y-101999361D02*
X132582708Y-101808885D01*
X132582708Y-101808885D02*
X132582708Y-101475552D01*
X132582708Y-101475552D02*
X132630327Y-101285076D01*
X132630327Y-101285076D02*
X132725565Y-101189838D01*
X132725565Y-101189838D02*
X132820803Y-101142219D01*
X133630327Y-102094600D02*
X133773184Y-102142219D01*
X133773184Y-102142219D02*
X134011279Y-102142219D01*
X134011279Y-102142219D02*
X134106517Y-102094600D01*
X134106517Y-102094600D02*
X134154136Y-102046980D01*
X134154136Y-102046980D02*
X134201755Y-101951742D01*
X134201755Y-101951742D02*
X134201755Y-101856504D01*
X134201755Y-101856504D02*
X134154136Y-101761266D01*
X134154136Y-101761266D02*
X134106517Y-101713647D01*
X134106517Y-101713647D02*
X134011279Y-101666028D01*
X134011279Y-101666028D02*
X133820803Y-101618409D01*
X133820803Y-101618409D02*
X133725565Y-101570790D01*
X133725565Y-101570790D02*
X133677946Y-101523171D01*
X133677946Y-101523171D02*
X133630327Y-101427933D01*
X133630327Y-101427933D02*
X133630327Y-101332695D01*
X133630327Y-101332695D02*
X133677946Y-101237457D01*
X133677946Y-101237457D02*
X133725565Y-101189838D01*
X133725565Y-101189838D02*
X133820803Y-101142219D01*
X133820803Y-101142219D02*
X134058898Y-101142219D01*
X134058898Y-101142219D02*
X134201755Y-101189838D01*
X134630327Y-102142219D02*
X134630327Y-101142219D01*
X130106517Y-99617219D02*
X130106517Y-98617219D01*
X130106517Y-98617219D02*
X130344612Y-98617219D01*
X130344612Y-98617219D02*
X130487469Y-98664838D01*
X130487469Y-98664838D02*
X130582707Y-98760076D01*
X130582707Y-98760076D02*
X130630326Y-98855314D01*
X130630326Y-98855314D02*
X130677945Y-99045790D01*
X130677945Y-99045790D02*
X130677945Y-99188647D01*
X130677945Y-99188647D02*
X130630326Y-99379123D01*
X130630326Y-99379123D02*
X130582707Y-99474361D01*
X130582707Y-99474361D02*
X130487469Y-99569600D01*
X130487469Y-99569600D02*
X130344612Y-99617219D01*
X130344612Y-99617219D02*
X130106517Y-99617219D01*
X131677945Y-99521980D02*
X131630326Y-99569600D01*
X131630326Y-99569600D02*
X131487469Y-99617219D01*
X131487469Y-99617219D02*
X131392231Y-99617219D01*
X131392231Y-99617219D02*
X131249374Y-99569600D01*
X131249374Y-99569600D02*
X131154136Y-99474361D01*
X131154136Y-99474361D02*
X131106517Y-99379123D01*
X131106517Y-99379123D02*
X131058898Y-99188647D01*
X131058898Y-99188647D02*
X131058898Y-99045790D01*
X131058898Y-99045790D02*
X131106517Y-98855314D01*
X131106517Y-98855314D02*
X131154136Y-98760076D01*
X131154136Y-98760076D02*
X131249374Y-98664838D01*
X131249374Y-98664838D02*
X131392231Y-98617219D01*
X131392231Y-98617219D02*
X131487469Y-98617219D01*
X131487469Y-98617219D02*
X131630326Y-98664838D01*
X131630326Y-98664838D02*
X131677945Y-98712457D01*
X132820802Y-98569600D02*
X131963660Y-99855314D01*
X133725564Y-99617219D02*
X133392231Y-99141028D01*
X133154136Y-99617219D02*
X133154136Y-98617219D01*
X133154136Y-98617219D02*
X133535088Y-98617219D01*
X133535088Y-98617219D02*
X133630326Y-98664838D01*
X133630326Y-98664838D02*
X133677945Y-98712457D01*
X133677945Y-98712457D02*
X133725564Y-98807695D01*
X133725564Y-98807695D02*
X133725564Y-98950552D01*
X133725564Y-98950552D02*
X133677945Y-99045790D01*
X133677945Y-99045790D02*
X133630326Y-99093409D01*
X133630326Y-99093409D02*
X133535088Y-99141028D01*
X133535088Y-99141028D02*
X133154136Y-99141028D01*
X134106517Y-99569600D02*
X134249374Y-99617219D01*
X134249374Y-99617219D02*
X134487469Y-99617219D01*
X134487469Y-99617219D02*
X134582707Y-99569600D01*
X134582707Y-99569600D02*
X134630326Y-99521980D01*
X134630326Y-99521980D02*
X134677945Y-99426742D01*
X134677945Y-99426742D02*
X134677945Y-99331504D01*
X134677945Y-99331504D02*
X134630326Y-99236266D01*
X134630326Y-99236266D02*
X134582707Y-99188647D01*
X134582707Y-99188647D02*
X134487469Y-99141028D01*
X134487469Y-99141028D02*
X134296993Y-99093409D01*
X134296993Y-99093409D02*
X134201755Y-99045790D01*
X134201755Y-99045790D02*
X134154136Y-98998171D01*
X134154136Y-98998171D02*
X134106517Y-98902933D01*
X134106517Y-98902933D02*
X134106517Y-98807695D01*
X134106517Y-98807695D02*
X134154136Y-98712457D01*
X134154136Y-98712457D02*
X134201755Y-98664838D01*
X134201755Y-98664838D02*
X134296993Y-98617219D01*
X134296993Y-98617219D02*
X134535088Y-98617219D01*
X134535088Y-98617219D02*
X134677945Y-98664838D01*
X131154135Y-97142219D02*
X130820802Y-96666028D01*
X130582707Y-97142219D02*
X130582707Y-96142219D01*
X130582707Y-96142219D02*
X130963659Y-96142219D01*
X130963659Y-96142219D02*
X131058897Y-96189838D01*
X131058897Y-96189838D02*
X131106516Y-96237457D01*
X131106516Y-96237457D02*
X131154135Y-96332695D01*
X131154135Y-96332695D02*
X131154135Y-96475552D01*
X131154135Y-96475552D02*
X131106516Y-96570790D01*
X131106516Y-96570790D02*
X131058897Y-96618409D01*
X131058897Y-96618409D02*
X130963659Y-96666028D01*
X130963659Y-96666028D02*
X130582707Y-96666028D01*
X131582707Y-96618409D02*
X131916040Y-96618409D01*
X132058897Y-97142219D02*
X131582707Y-97142219D01*
X131582707Y-97142219D02*
X131582707Y-96142219D01*
X131582707Y-96142219D02*
X132058897Y-96142219D01*
X132439850Y-97094600D02*
X132582707Y-97142219D01*
X132582707Y-97142219D02*
X132820802Y-97142219D01*
X132820802Y-97142219D02*
X132916040Y-97094600D01*
X132916040Y-97094600D02*
X132963659Y-97046980D01*
X132963659Y-97046980D02*
X133011278Y-96951742D01*
X133011278Y-96951742D02*
X133011278Y-96856504D01*
X133011278Y-96856504D02*
X132963659Y-96761266D01*
X132963659Y-96761266D02*
X132916040Y-96713647D01*
X132916040Y-96713647D02*
X132820802Y-96666028D01*
X132820802Y-96666028D02*
X132630326Y-96618409D01*
X132630326Y-96618409D02*
X132535088Y-96570790D01*
X132535088Y-96570790D02*
X132487469Y-96523171D01*
X132487469Y-96523171D02*
X132439850Y-96427933D01*
X132439850Y-96427933D02*
X132439850Y-96332695D01*
X132439850Y-96332695D02*
X132487469Y-96237457D01*
X132487469Y-96237457D02*
X132535088Y-96189838D01*
X132535088Y-96189838D02*
X132630326Y-96142219D01*
X132630326Y-96142219D02*
X132868421Y-96142219D01*
X132868421Y-96142219D02*
X133011278Y-96189838D01*
X133439850Y-96618409D02*
X133773183Y-96618409D01*
X133916040Y-97142219D02*
X133439850Y-97142219D01*
X133439850Y-97142219D02*
X133439850Y-96142219D01*
X133439850Y-96142219D02*
X133916040Y-96142219D01*
X134201755Y-96142219D02*
X134773183Y-96142219D01*
X134487469Y-97142219D02*
X134487469Y-96142219D01*
X133725564Y-94271980D02*
X133677945Y-94319600D01*
X133677945Y-94319600D02*
X133535088Y-94367219D01*
X133535088Y-94367219D02*
X133439850Y-94367219D01*
X133439850Y-94367219D02*
X133296993Y-94319600D01*
X133296993Y-94319600D02*
X133201755Y-94224361D01*
X133201755Y-94224361D02*
X133154136Y-94129123D01*
X133154136Y-94129123D02*
X133106517Y-93938647D01*
X133106517Y-93938647D02*
X133106517Y-93795790D01*
X133106517Y-93795790D02*
X133154136Y-93605314D01*
X133154136Y-93605314D02*
X133201755Y-93510076D01*
X133201755Y-93510076D02*
X133296993Y-93414838D01*
X133296993Y-93414838D02*
X133439850Y-93367219D01*
X133439850Y-93367219D02*
X133535088Y-93367219D01*
X133535088Y-93367219D02*
X133677945Y-93414838D01*
X133677945Y-93414838D02*
X133725564Y-93462457D01*
X134106517Y-94319600D02*
X134249374Y-94367219D01*
X134249374Y-94367219D02*
X134487469Y-94367219D01*
X134487469Y-94367219D02*
X134582707Y-94319600D01*
X134582707Y-94319600D02*
X134630326Y-94271980D01*
X134630326Y-94271980D02*
X134677945Y-94176742D01*
X134677945Y-94176742D02*
X134677945Y-94081504D01*
X134677945Y-94081504D02*
X134630326Y-93986266D01*
X134630326Y-93986266D02*
X134582707Y-93938647D01*
X134582707Y-93938647D02*
X134487469Y-93891028D01*
X134487469Y-93891028D02*
X134296993Y-93843409D01*
X134296993Y-93843409D02*
X134201755Y-93795790D01*
X134201755Y-93795790D02*
X134154136Y-93748171D01*
X134154136Y-93748171D02*
X134106517Y-93652933D01*
X134106517Y-93652933D02*
X134106517Y-93557695D01*
X134106517Y-93557695D02*
X134154136Y-93462457D01*
X134154136Y-93462457D02*
X134201755Y-93414838D01*
X134201755Y-93414838D02*
X134296993Y-93367219D01*
X134296993Y-93367219D02*
X134535088Y-93367219D01*
X134535088Y-93367219D02*
X134677945Y-93414838D01*
X132582707Y-90914838D02*
X132487469Y-90867219D01*
X132487469Y-90867219D02*
X132344612Y-90867219D01*
X132344612Y-90867219D02*
X132201755Y-90914838D01*
X132201755Y-90914838D02*
X132106517Y-91010076D01*
X132106517Y-91010076D02*
X132058898Y-91105314D01*
X132058898Y-91105314D02*
X132011279Y-91295790D01*
X132011279Y-91295790D02*
X132011279Y-91438647D01*
X132011279Y-91438647D02*
X132058898Y-91629123D01*
X132058898Y-91629123D02*
X132106517Y-91724361D01*
X132106517Y-91724361D02*
X132201755Y-91819600D01*
X132201755Y-91819600D02*
X132344612Y-91867219D01*
X132344612Y-91867219D02*
X132439850Y-91867219D01*
X132439850Y-91867219D02*
X132582707Y-91819600D01*
X132582707Y-91819600D02*
X132630326Y-91771980D01*
X132630326Y-91771980D02*
X132630326Y-91438647D01*
X132630326Y-91438647D02*
X132439850Y-91438647D01*
X133058898Y-91867219D02*
X133058898Y-90867219D01*
X133058898Y-90867219D02*
X133630326Y-91867219D01*
X133630326Y-91867219D02*
X133630326Y-90867219D01*
X134106517Y-91867219D02*
X134106517Y-90867219D01*
X134106517Y-90867219D02*
X134344612Y-90867219D01*
X134344612Y-90867219D02*
X134487469Y-90914838D01*
X134487469Y-90914838D02*
X134582707Y-91010076D01*
X134582707Y-91010076D02*
X134630326Y-91105314D01*
X134630326Y-91105314D02*
X134677945Y-91295790D01*
X134677945Y-91295790D02*
X134677945Y-91438647D01*
X134677945Y-91438647D02*
X134630326Y-91629123D01*
X134630326Y-91629123D02*
X134582707Y-91724361D01*
X134582707Y-91724361D02*
X134487469Y-91819600D01*
X134487469Y-91819600D02*
X134344612Y-91867219D01*
X134344612Y-91867219D02*
X134106517Y-91867219D01*
X131106517Y-88367219D02*
X131439850Y-89367219D01*
X131439850Y-89367219D02*
X131773183Y-88367219D01*
X132439850Y-88843409D02*
X132582707Y-88891028D01*
X132582707Y-88891028D02*
X132630326Y-88938647D01*
X132630326Y-88938647D02*
X132677945Y-89033885D01*
X132677945Y-89033885D02*
X132677945Y-89176742D01*
X132677945Y-89176742D02*
X132630326Y-89271980D01*
X132630326Y-89271980D02*
X132582707Y-89319600D01*
X132582707Y-89319600D02*
X132487469Y-89367219D01*
X132487469Y-89367219D02*
X132106517Y-89367219D01*
X132106517Y-89367219D02*
X132106517Y-88367219D01*
X132106517Y-88367219D02*
X132439850Y-88367219D01*
X132439850Y-88367219D02*
X132535088Y-88414838D01*
X132535088Y-88414838D02*
X132582707Y-88462457D01*
X132582707Y-88462457D02*
X132630326Y-88557695D01*
X132630326Y-88557695D02*
X132630326Y-88652933D01*
X132630326Y-88652933D02*
X132582707Y-88748171D01*
X132582707Y-88748171D02*
X132535088Y-88795790D01*
X132535088Y-88795790D02*
X132439850Y-88843409D01*
X132439850Y-88843409D02*
X132106517Y-88843409D01*
X133106517Y-88367219D02*
X133106517Y-89176742D01*
X133106517Y-89176742D02*
X133154136Y-89271980D01*
X133154136Y-89271980D02*
X133201755Y-89319600D01*
X133201755Y-89319600D02*
X133296993Y-89367219D01*
X133296993Y-89367219D02*
X133487469Y-89367219D01*
X133487469Y-89367219D02*
X133582707Y-89319600D01*
X133582707Y-89319600D02*
X133630326Y-89271980D01*
X133630326Y-89271980D02*
X133677945Y-89176742D01*
X133677945Y-89176742D02*
X133677945Y-88367219D01*
X134106517Y-89319600D02*
X134249374Y-89367219D01*
X134249374Y-89367219D02*
X134487469Y-89367219D01*
X134487469Y-89367219D02*
X134582707Y-89319600D01*
X134582707Y-89319600D02*
X134630326Y-89271980D01*
X134630326Y-89271980D02*
X134677945Y-89176742D01*
X134677945Y-89176742D02*
X134677945Y-89081504D01*
X134677945Y-89081504D02*
X134630326Y-88986266D01*
X134630326Y-88986266D02*
X134582707Y-88938647D01*
X134582707Y-88938647D02*
X134487469Y-88891028D01*
X134487469Y-88891028D02*
X134296993Y-88843409D01*
X134296993Y-88843409D02*
X134201755Y-88795790D01*
X134201755Y-88795790D02*
X134154136Y-88748171D01*
X134154136Y-88748171D02*
X134106517Y-88652933D01*
X134106517Y-88652933D02*
X134106517Y-88557695D01*
X134106517Y-88557695D02*
X134154136Y-88462457D01*
X134154136Y-88462457D02*
X134201755Y-88414838D01*
X134201755Y-88414838D02*
X134296993Y-88367219D01*
X134296993Y-88367219D02*
X134535088Y-88367219D01*
X134535088Y-88367219D02*
X134677945Y-88414838D01*
X193369673Y-69867219D02*
X193369673Y-68867219D01*
X193369673Y-68867219D02*
X193703006Y-69581504D01*
X193703006Y-69581504D02*
X194036339Y-68867219D01*
X194036339Y-68867219D02*
X194036339Y-69867219D01*
X194417292Y-68867219D02*
X195036339Y-68867219D01*
X195036339Y-68867219D02*
X194703006Y-69248171D01*
X194703006Y-69248171D02*
X194845863Y-69248171D01*
X194845863Y-69248171D02*
X194941101Y-69295790D01*
X194941101Y-69295790D02*
X194988720Y-69343409D01*
X194988720Y-69343409D02*
X195036339Y-69438647D01*
X195036339Y-69438647D02*
X195036339Y-69676742D01*
X195036339Y-69676742D02*
X194988720Y-69771980D01*
X194988720Y-69771980D02*
X194941101Y-69819600D01*
X194941101Y-69819600D02*
X194845863Y-69867219D01*
X194845863Y-69867219D02*
X194560149Y-69867219D01*
X194560149Y-69867219D02*
X194464911Y-69819600D01*
X194464911Y-69819600D02*
X194417292Y-69771980D01*
X193369673Y-110867219D02*
X193369673Y-109867219D01*
X193369673Y-109867219D02*
X193703006Y-110581504D01*
X193703006Y-110581504D02*
X194036339Y-109867219D01*
X194036339Y-109867219D02*
X194036339Y-110867219D01*
X194417292Y-109867219D02*
X195036339Y-109867219D01*
X195036339Y-109867219D02*
X194703006Y-110248171D01*
X194703006Y-110248171D02*
X194845863Y-110248171D01*
X194845863Y-110248171D02*
X194941101Y-110295790D01*
X194941101Y-110295790D02*
X194988720Y-110343409D01*
X194988720Y-110343409D02*
X195036339Y-110438647D01*
X195036339Y-110438647D02*
X195036339Y-110676742D01*
X195036339Y-110676742D02*
X194988720Y-110771980D01*
X194988720Y-110771980D02*
X194941101Y-110819600D01*
X194941101Y-110819600D02*
X194845863Y-110867219D01*
X194845863Y-110867219D02*
X194560149Y-110867219D01*
X194560149Y-110867219D02*
X194464911Y-110819600D01*
X194464911Y-110819600D02*
X194417292Y-110771980D01*
X125369673Y-110867219D02*
X125369673Y-109867219D01*
X125369673Y-109867219D02*
X125703006Y-110581504D01*
X125703006Y-110581504D02*
X126036339Y-109867219D01*
X126036339Y-109867219D02*
X126036339Y-110867219D01*
X126417292Y-109867219D02*
X127036339Y-109867219D01*
X127036339Y-109867219D02*
X126703006Y-110248171D01*
X126703006Y-110248171D02*
X126845863Y-110248171D01*
X126845863Y-110248171D02*
X126941101Y-110295790D01*
X126941101Y-110295790D02*
X126988720Y-110343409D01*
X126988720Y-110343409D02*
X127036339Y-110438647D01*
X127036339Y-110438647D02*
X127036339Y-110676742D01*
X127036339Y-110676742D02*
X126988720Y-110771980D01*
X126988720Y-110771980D02*
X126941101Y-110819600D01*
X126941101Y-110819600D02*
X126845863Y-110867219D01*
X126845863Y-110867219D02*
X126560149Y-110867219D01*
X126560149Y-110867219D02*
X126464911Y-110819600D01*
X126464911Y-110819600D02*
X126417292Y-110771980D01*
X125369673Y-69867219D02*
X125369673Y-68867219D01*
X125369673Y-68867219D02*
X125703006Y-69581504D01*
X125703006Y-69581504D02*
X126036339Y-68867219D01*
X126036339Y-68867219D02*
X126036339Y-69867219D01*
X126417292Y-68867219D02*
X127036339Y-68867219D01*
X127036339Y-68867219D02*
X126703006Y-69248171D01*
X126703006Y-69248171D02*
X126845863Y-69248171D01*
X126845863Y-69248171D02*
X126941101Y-69295790D01*
X126941101Y-69295790D02*
X126988720Y-69343409D01*
X126988720Y-69343409D02*
X127036339Y-69438647D01*
X127036339Y-69438647D02*
X127036339Y-69676742D01*
X127036339Y-69676742D02*
X126988720Y-69771980D01*
X126988720Y-69771980D02*
X126941101Y-69819600D01*
X126941101Y-69819600D02*
X126845863Y-69867219D01*
X126845863Y-69867219D02*
X126560149Y-69867219D01*
X126560149Y-69867219D02*
X126464911Y-69819600D01*
X126464911Y-69819600D02*
X126417292Y-69771980D01*
D12*
X176232438Y-99666667D02*
X174899104Y-99666667D01*
X175280057Y-99666667D02*
X175089580Y-99571429D01*
X175089580Y-99571429D02*
X174994342Y-99476191D01*
X174994342Y-99476191D02*
X174899104Y-99285715D01*
X174899104Y-99285715D02*
X174899104Y-99095238D01*
X176232438Y-97571429D02*
X175184819Y-97571429D01*
X175184819Y-97571429D02*
X174994342Y-97666667D01*
X174994342Y-97666667D02*
X174899104Y-97857143D01*
X174899104Y-97857143D02*
X174899104Y-98238096D01*
X174899104Y-98238096D02*
X174994342Y-98428572D01*
X176137200Y-97571429D02*
X176232438Y-97761905D01*
X176232438Y-97761905D02*
X176232438Y-98238096D01*
X176232438Y-98238096D02*
X176137200Y-98428572D01*
X176137200Y-98428572D02*
X175946723Y-98523810D01*
X175946723Y-98523810D02*
X175756247Y-98523810D01*
X175756247Y-98523810D02*
X175565771Y-98428572D01*
X175565771Y-98428572D02*
X175470533Y-98238096D01*
X175470533Y-98238096D02*
X175470533Y-97761905D01*
X175470533Y-97761905D02*
X175375295Y-97571429D01*
X176137200Y-96714286D02*
X176232438Y-96523810D01*
X176232438Y-96523810D02*
X176232438Y-96142858D01*
X176232438Y-96142858D02*
X176137200Y-95952381D01*
X176137200Y-95952381D02*
X175946723Y-95857143D01*
X175946723Y-95857143D02*
X175851485Y-95857143D01*
X175851485Y-95857143D02*
X175661009Y-95952381D01*
X175661009Y-95952381D02*
X175565771Y-96142858D01*
X175565771Y-96142858D02*
X175565771Y-96428572D01*
X175565771Y-96428572D02*
X175470533Y-96619048D01*
X175470533Y-96619048D02*
X175280057Y-96714286D01*
X175280057Y-96714286D02*
X175184819Y-96714286D01*
X175184819Y-96714286D02*
X174994342Y-96619048D01*
X174994342Y-96619048D02*
X174899104Y-96428572D01*
X174899104Y-96428572D02*
X174899104Y-96142858D01*
X174899104Y-96142858D02*
X174994342Y-95952381D01*
X176232438Y-95000000D02*
X174232438Y-95000000D01*
X174994342Y-95000000D02*
X174899104Y-94809524D01*
X174899104Y-94809524D02*
X174899104Y-94428571D01*
X174899104Y-94428571D02*
X174994342Y-94238095D01*
X174994342Y-94238095D02*
X175089580Y-94142857D01*
X175089580Y-94142857D02*
X175280057Y-94047619D01*
X175280057Y-94047619D02*
X175851485Y-94047619D01*
X175851485Y-94047619D02*
X176041961Y-94142857D01*
X176041961Y-94142857D02*
X176137200Y-94238095D01*
X176137200Y-94238095D02*
X176232438Y-94428571D01*
X176232438Y-94428571D02*
X176232438Y-94809524D01*
X176232438Y-94809524D02*
X176137200Y-95000000D01*
X176137200Y-92428571D02*
X176232438Y-92619047D01*
X176232438Y-92619047D02*
X176232438Y-93000000D01*
X176232438Y-93000000D02*
X176137200Y-93190476D01*
X176137200Y-93190476D02*
X175946723Y-93285714D01*
X175946723Y-93285714D02*
X175184819Y-93285714D01*
X175184819Y-93285714D02*
X174994342Y-93190476D01*
X174994342Y-93190476D02*
X174899104Y-93000000D01*
X174899104Y-93000000D02*
X174899104Y-92619047D01*
X174899104Y-92619047D02*
X174994342Y-92428571D01*
X174994342Y-92428571D02*
X175184819Y-92333333D01*
X175184819Y-92333333D02*
X175375295Y-92333333D01*
X175375295Y-92333333D02*
X175565771Y-93285714D01*
X176232438Y-91476190D02*
X174899104Y-91476190D01*
X175280057Y-91476190D02*
X175089580Y-91380952D01*
X175089580Y-91380952D02*
X174994342Y-91285714D01*
X174994342Y-91285714D02*
X174899104Y-91095238D01*
X174899104Y-91095238D02*
X174899104Y-90904761D01*
X176232438Y-90238095D02*
X174899104Y-90238095D01*
X175280057Y-90238095D02*
X175089580Y-90142857D01*
X175089580Y-90142857D02*
X174994342Y-90047619D01*
X174994342Y-90047619D02*
X174899104Y-89857143D01*
X174899104Y-89857143D02*
X174899104Y-89666666D01*
X174899104Y-89190476D02*
X176232438Y-88714286D01*
X174899104Y-88238095D02*
X176232438Y-88714286D01*
X176232438Y-88714286D02*
X176708628Y-88904762D01*
X176708628Y-88904762D02*
X176803866Y-89000000D01*
X176803866Y-89000000D02*
X176899104Y-89190476D01*
X174899104Y-85952380D02*
X176899104Y-85952380D01*
X174994342Y-85952380D02*
X174899104Y-85761904D01*
X174899104Y-85761904D02*
X174899104Y-85380951D01*
X174899104Y-85380951D02*
X174994342Y-85190475D01*
X174994342Y-85190475D02*
X175089580Y-85095237D01*
X175089580Y-85095237D02*
X175280057Y-84999999D01*
X175280057Y-84999999D02*
X175851485Y-84999999D01*
X175851485Y-84999999D02*
X176041961Y-85095237D01*
X176041961Y-85095237D02*
X176137200Y-85190475D01*
X176137200Y-85190475D02*
X176232438Y-85380951D01*
X176232438Y-85380951D02*
X176232438Y-85761904D01*
X176232438Y-85761904D02*
X176137200Y-85952380D01*
X176232438Y-84142856D02*
X174899104Y-84142856D01*
X174232438Y-84142856D02*
X174327676Y-84238094D01*
X174327676Y-84238094D02*
X174422914Y-84142856D01*
X174422914Y-84142856D02*
X174327676Y-84047618D01*
X174327676Y-84047618D02*
X174232438Y-84142856D01*
X174232438Y-84142856D02*
X174422914Y-84142856D01*
X174899104Y-81666665D02*
X176899104Y-81666665D01*
X174994342Y-81666665D02*
X174899104Y-81476189D01*
X174899104Y-81476189D02*
X174899104Y-81095236D01*
X174899104Y-81095236D02*
X174994342Y-80904760D01*
X174994342Y-80904760D02*
X175089580Y-80809522D01*
X175089580Y-80809522D02*
X175280057Y-80714284D01*
X175280057Y-80714284D02*
X175851485Y-80714284D01*
X175851485Y-80714284D02*
X176041961Y-80809522D01*
X176041961Y-80809522D02*
X176137200Y-80904760D01*
X176137200Y-80904760D02*
X176232438Y-81095236D01*
X176232438Y-81095236D02*
X176232438Y-81476189D01*
X176232438Y-81476189D02*
X176137200Y-81666665D01*
X176232438Y-79857141D02*
X174899104Y-79857141D01*
X174232438Y-79857141D02*
X174327676Y-79952379D01*
X174327676Y-79952379D02*
X174422914Y-79857141D01*
X174422914Y-79857141D02*
X174327676Y-79761903D01*
X174327676Y-79761903D02*
X174232438Y-79857141D01*
X174232438Y-79857141D02*
X174422914Y-79857141D01*
X176137200Y-78047617D02*
X176232438Y-78238093D01*
X176232438Y-78238093D02*
X176232438Y-78619046D01*
X176232438Y-78619046D02*
X176137200Y-78809522D01*
X176137200Y-78809522D02*
X176041961Y-78904760D01*
X176041961Y-78904760D02*
X175851485Y-78999998D01*
X175851485Y-78999998D02*
X175280057Y-78999998D01*
X175280057Y-78999998D02*
X175089580Y-78904760D01*
X175089580Y-78904760D02*
X174994342Y-78809522D01*
X174994342Y-78809522D02*
X174899104Y-78619046D01*
X174899104Y-78619046D02*
X174899104Y-78238093D01*
X174899104Y-78238093D02*
X174994342Y-78047617D01*
X176232438Y-76904760D02*
X176137200Y-77095236D01*
X176137200Y-77095236D02*
X176041961Y-77190474D01*
X176041961Y-77190474D02*
X175851485Y-77285712D01*
X175851485Y-77285712D02*
X175280057Y-77285712D01*
X175280057Y-77285712D02*
X175089580Y-77190474D01*
X175089580Y-77190474D02*
X174994342Y-77095236D01*
X174994342Y-77095236D02*
X174899104Y-76904760D01*
X174899104Y-76904760D02*
X174899104Y-76619045D01*
X174899104Y-76619045D02*
X174994342Y-76428569D01*
X174994342Y-76428569D02*
X175089580Y-76333331D01*
X175089580Y-76333331D02*
X175280057Y-76238093D01*
X175280057Y-76238093D02*
X175851485Y-76238093D01*
X175851485Y-76238093D02*
X176041961Y-76333331D01*
X176041961Y-76333331D02*
X176137200Y-76428569D01*
X176137200Y-76428569D02*
X176232438Y-76619045D01*
X176232438Y-76619045D02*
X176232438Y-76904760D01*
X154916666Y-103381009D02*
X155059523Y-103428628D01*
X155059523Y-103428628D02*
X155107142Y-103476247D01*
X155107142Y-103476247D02*
X155154761Y-103571485D01*
X155154761Y-103571485D02*
X155154761Y-103714342D01*
X155154761Y-103714342D02*
X155107142Y-103809580D01*
X155107142Y-103809580D02*
X155059523Y-103857200D01*
X155059523Y-103857200D02*
X154964285Y-103904819D01*
X154964285Y-103904819D02*
X154583333Y-103904819D01*
X154583333Y-103904819D02*
X154583333Y-102904819D01*
X154583333Y-102904819D02*
X154916666Y-102904819D01*
X154916666Y-102904819D02*
X155011904Y-102952438D01*
X155011904Y-102952438D02*
X155059523Y-103000057D01*
X155059523Y-103000057D02*
X155107142Y-103095295D01*
X155107142Y-103095295D02*
X155107142Y-103190533D01*
X155107142Y-103190533D02*
X155059523Y-103285771D01*
X155059523Y-103285771D02*
X155011904Y-103333390D01*
X155011904Y-103333390D02*
X154916666Y-103381009D01*
X154916666Y-103381009D02*
X154583333Y-103381009D01*
X156011904Y-103238152D02*
X156011904Y-103904819D01*
X155583333Y-103238152D02*
X155583333Y-103761961D01*
X155583333Y-103761961D02*
X155630952Y-103857200D01*
X155630952Y-103857200D02*
X155726190Y-103904819D01*
X155726190Y-103904819D02*
X155869047Y-103904819D01*
X155869047Y-103904819D02*
X155964285Y-103857200D01*
X155964285Y-103857200D02*
X156011904Y-103809580D01*
X156345238Y-103238152D02*
X156726190Y-103238152D01*
X156488095Y-102904819D02*
X156488095Y-103761961D01*
X156488095Y-103761961D02*
X156535714Y-103857200D01*
X156535714Y-103857200D02*
X156630952Y-103904819D01*
X156630952Y-103904819D02*
X156726190Y-103904819D01*
X156916667Y-103238152D02*
X157297619Y-103238152D01*
X157059524Y-102904819D02*
X157059524Y-103761961D01*
X157059524Y-103761961D02*
X157107143Y-103857200D01*
X157107143Y-103857200D02*
X157202381Y-103904819D01*
X157202381Y-103904819D02*
X157297619Y-103904819D01*
X157773810Y-103904819D02*
X157678572Y-103857200D01*
X157678572Y-103857200D02*
X157630953Y-103809580D01*
X157630953Y-103809580D02*
X157583334Y-103714342D01*
X157583334Y-103714342D02*
X157583334Y-103428628D01*
X157583334Y-103428628D02*
X157630953Y-103333390D01*
X157630953Y-103333390D02*
X157678572Y-103285771D01*
X157678572Y-103285771D02*
X157773810Y-103238152D01*
X157773810Y-103238152D02*
X157916667Y-103238152D01*
X157916667Y-103238152D02*
X158011905Y-103285771D01*
X158011905Y-103285771D02*
X158059524Y-103333390D01*
X158059524Y-103333390D02*
X158107143Y-103428628D01*
X158107143Y-103428628D02*
X158107143Y-103714342D01*
X158107143Y-103714342D02*
X158059524Y-103809580D01*
X158059524Y-103809580D02*
X158011905Y-103857200D01*
X158011905Y-103857200D02*
X157916667Y-103904819D01*
X157916667Y-103904819D02*
X157773810Y-103904819D01*
X158535715Y-103238152D02*
X158535715Y-103904819D01*
X158535715Y-103333390D02*
X158583334Y-103285771D01*
X158583334Y-103285771D02*
X158678572Y-103238152D01*
X158678572Y-103238152D02*
X158821429Y-103238152D01*
X158821429Y-103238152D02*
X158916667Y-103285771D01*
X158916667Y-103285771D02*
X158964286Y-103381009D01*
X158964286Y-103381009D02*
X158964286Y-103904819D01*
X159869048Y-103238152D02*
X159869048Y-103904819D01*
X159630953Y-102857200D02*
X159392858Y-103571485D01*
X159392858Y-103571485D02*
X160011905Y-103571485D01*
X140954819Y-90428571D02*
X141669104Y-90428571D01*
X141669104Y-90428571D02*
X141811961Y-90476190D01*
X141811961Y-90476190D02*
X141907200Y-90571428D01*
X141907200Y-90571428D02*
X141954819Y-90714285D01*
X141954819Y-90714285D02*
X141954819Y-90809523D01*
X141954819Y-89809523D02*
X141907200Y-89904761D01*
X141907200Y-89904761D02*
X141859580Y-89952380D01*
X141859580Y-89952380D02*
X141764342Y-89999999D01*
X141764342Y-89999999D02*
X141478628Y-89999999D01*
X141478628Y-89999999D02*
X141383390Y-89952380D01*
X141383390Y-89952380D02*
X141335771Y-89904761D01*
X141335771Y-89904761D02*
X141288152Y-89809523D01*
X141288152Y-89809523D02*
X141288152Y-89666666D01*
X141288152Y-89666666D02*
X141335771Y-89571428D01*
X141335771Y-89571428D02*
X141383390Y-89523809D01*
X141383390Y-89523809D02*
X141478628Y-89476190D01*
X141478628Y-89476190D02*
X141764342Y-89476190D01*
X141764342Y-89476190D02*
X141859580Y-89523809D01*
X141859580Y-89523809D02*
X141907200Y-89571428D01*
X141907200Y-89571428D02*
X141954819Y-89666666D01*
X141954819Y-89666666D02*
X141954819Y-89809523D01*
X141288152Y-89142856D02*
X141954819Y-88904761D01*
X141288152Y-88666666D02*
X141954819Y-88904761D01*
X141954819Y-88904761D02*
X142192914Y-88999999D01*
X142192914Y-88999999D02*
X142240533Y-89047618D01*
X142240533Y-89047618D02*
X142288152Y-89142856D01*
X141907200Y-88333332D02*
X141954819Y-88238094D01*
X141954819Y-88238094D02*
X141954819Y-88047618D01*
X141954819Y-88047618D02*
X141907200Y-87952380D01*
X141907200Y-87952380D02*
X141811961Y-87904761D01*
X141811961Y-87904761D02*
X141764342Y-87904761D01*
X141764342Y-87904761D02*
X141669104Y-87952380D01*
X141669104Y-87952380D02*
X141621485Y-88047618D01*
X141621485Y-88047618D02*
X141621485Y-88190475D01*
X141621485Y-88190475D02*
X141573866Y-88285713D01*
X141573866Y-88285713D02*
X141478628Y-88333332D01*
X141478628Y-88333332D02*
X141431009Y-88333332D01*
X141431009Y-88333332D02*
X141335771Y-88285713D01*
X141335771Y-88285713D02*
X141288152Y-88190475D01*
X141288152Y-88190475D02*
X141288152Y-88047618D01*
X141288152Y-88047618D02*
X141335771Y-87952380D01*
X141288152Y-87619046D02*
X141288152Y-87238094D01*
X140954819Y-87476189D02*
X141811961Y-87476189D01*
X141811961Y-87476189D02*
X141907200Y-87428570D01*
X141907200Y-87428570D02*
X141954819Y-87333332D01*
X141954819Y-87333332D02*
X141954819Y-87238094D01*
X141954819Y-86904760D02*
X141288152Y-86904760D01*
X140954819Y-86904760D02*
X141002438Y-86952379D01*
X141002438Y-86952379D02*
X141050057Y-86904760D01*
X141050057Y-86904760D02*
X141002438Y-86857141D01*
X141002438Y-86857141D02*
X140954819Y-86904760D01*
X140954819Y-86904760D02*
X141050057Y-86904760D01*
X141907200Y-85999999D02*
X141954819Y-86095237D01*
X141954819Y-86095237D02*
X141954819Y-86285713D01*
X141954819Y-86285713D02*
X141907200Y-86380951D01*
X141907200Y-86380951D02*
X141859580Y-86428570D01*
X141859580Y-86428570D02*
X141764342Y-86476189D01*
X141764342Y-86476189D02*
X141478628Y-86476189D01*
X141478628Y-86476189D02*
X141383390Y-86428570D01*
X141383390Y-86428570D02*
X141335771Y-86380951D01*
X141335771Y-86380951D02*
X141288152Y-86285713D01*
X141288152Y-86285713D02*
X141288152Y-86095237D01*
X141288152Y-86095237D02*
X141335771Y-85999999D01*
X141954819Y-85571427D02*
X140954819Y-85571427D01*
X141573866Y-85476189D02*
X141954819Y-85190475D01*
X141288152Y-85190475D02*
X141669104Y-85571427D01*
X141954819Y-84238094D02*
X141954819Y-84809522D01*
X141954819Y-84523808D02*
X140954819Y-84523808D01*
X140954819Y-84523808D02*
X141097676Y-84619046D01*
X141097676Y-84619046D02*
X141192914Y-84714284D01*
X141192914Y-84714284D02*
X141240533Y-84809522D01*
X142916666Y-93381009D02*
X143059523Y-93428628D01*
X143059523Y-93428628D02*
X143107142Y-93476247D01*
X143107142Y-93476247D02*
X143154761Y-93571485D01*
X143154761Y-93571485D02*
X143154761Y-93714342D01*
X143154761Y-93714342D02*
X143107142Y-93809580D01*
X143107142Y-93809580D02*
X143059523Y-93857200D01*
X143059523Y-93857200D02*
X142964285Y-93904819D01*
X142964285Y-93904819D02*
X142583333Y-93904819D01*
X142583333Y-93904819D02*
X142583333Y-92904819D01*
X142583333Y-92904819D02*
X142916666Y-92904819D01*
X142916666Y-92904819D02*
X143011904Y-92952438D01*
X143011904Y-92952438D02*
X143059523Y-93000057D01*
X143059523Y-93000057D02*
X143107142Y-93095295D01*
X143107142Y-93095295D02*
X143107142Y-93190533D01*
X143107142Y-93190533D02*
X143059523Y-93285771D01*
X143059523Y-93285771D02*
X143011904Y-93333390D01*
X143011904Y-93333390D02*
X142916666Y-93381009D01*
X142916666Y-93381009D02*
X142583333Y-93381009D01*
X144011904Y-93238152D02*
X144011904Y-93904819D01*
X143583333Y-93238152D02*
X143583333Y-93761961D01*
X143583333Y-93761961D02*
X143630952Y-93857200D01*
X143630952Y-93857200D02*
X143726190Y-93904819D01*
X143726190Y-93904819D02*
X143869047Y-93904819D01*
X143869047Y-93904819D02*
X143964285Y-93857200D01*
X143964285Y-93857200D02*
X144011904Y-93809580D01*
X144345238Y-93238152D02*
X144726190Y-93238152D01*
X144488095Y-92904819D02*
X144488095Y-93761961D01*
X144488095Y-93761961D02*
X144535714Y-93857200D01*
X144535714Y-93857200D02*
X144630952Y-93904819D01*
X144630952Y-93904819D02*
X144726190Y-93904819D01*
X144916667Y-93238152D02*
X145297619Y-93238152D01*
X145059524Y-92904819D02*
X145059524Y-93761961D01*
X145059524Y-93761961D02*
X145107143Y-93857200D01*
X145107143Y-93857200D02*
X145202381Y-93904819D01*
X145202381Y-93904819D02*
X145297619Y-93904819D01*
X145773810Y-93904819D02*
X145678572Y-93857200D01*
X145678572Y-93857200D02*
X145630953Y-93809580D01*
X145630953Y-93809580D02*
X145583334Y-93714342D01*
X145583334Y-93714342D02*
X145583334Y-93428628D01*
X145583334Y-93428628D02*
X145630953Y-93333390D01*
X145630953Y-93333390D02*
X145678572Y-93285771D01*
X145678572Y-93285771D02*
X145773810Y-93238152D01*
X145773810Y-93238152D02*
X145916667Y-93238152D01*
X145916667Y-93238152D02*
X146011905Y-93285771D01*
X146011905Y-93285771D02*
X146059524Y-93333390D01*
X146059524Y-93333390D02*
X146107143Y-93428628D01*
X146107143Y-93428628D02*
X146107143Y-93714342D01*
X146107143Y-93714342D02*
X146059524Y-93809580D01*
X146059524Y-93809580D02*
X146011905Y-93857200D01*
X146011905Y-93857200D02*
X145916667Y-93904819D01*
X145916667Y-93904819D02*
X145773810Y-93904819D01*
X146535715Y-93238152D02*
X146535715Y-93904819D01*
X146535715Y-93333390D02*
X146583334Y-93285771D01*
X146583334Y-93285771D02*
X146678572Y-93238152D01*
X146678572Y-93238152D02*
X146821429Y-93238152D01*
X146821429Y-93238152D02*
X146916667Y-93285771D01*
X146916667Y-93285771D02*
X146964286Y-93381009D01*
X146964286Y-93381009D02*
X146964286Y-93904819D01*
X147964286Y-93904819D02*
X147392858Y-93904819D01*
X147678572Y-93904819D02*
X147678572Y-92904819D01*
X147678572Y-92904819D02*
X147583334Y-93047676D01*
X147583334Y-93047676D02*
X147488096Y-93142914D01*
X147488096Y-93142914D02*
X147392858Y-93190533D01*
X142916666Y-103381009D02*
X143059523Y-103428628D01*
X143059523Y-103428628D02*
X143107142Y-103476247D01*
X143107142Y-103476247D02*
X143154761Y-103571485D01*
X143154761Y-103571485D02*
X143154761Y-103714342D01*
X143154761Y-103714342D02*
X143107142Y-103809580D01*
X143107142Y-103809580D02*
X143059523Y-103857200D01*
X143059523Y-103857200D02*
X142964285Y-103904819D01*
X142964285Y-103904819D02*
X142583333Y-103904819D01*
X142583333Y-103904819D02*
X142583333Y-102904819D01*
X142583333Y-102904819D02*
X142916666Y-102904819D01*
X142916666Y-102904819D02*
X143011904Y-102952438D01*
X143011904Y-102952438D02*
X143059523Y-103000057D01*
X143059523Y-103000057D02*
X143107142Y-103095295D01*
X143107142Y-103095295D02*
X143107142Y-103190533D01*
X143107142Y-103190533D02*
X143059523Y-103285771D01*
X143059523Y-103285771D02*
X143011904Y-103333390D01*
X143011904Y-103333390D02*
X142916666Y-103381009D01*
X142916666Y-103381009D02*
X142583333Y-103381009D01*
X144011904Y-103238152D02*
X144011904Y-103904819D01*
X143583333Y-103238152D02*
X143583333Y-103761961D01*
X143583333Y-103761961D02*
X143630952Y-103857200D01*
X143630952Y-103857200D02*
X143726190Y-103904819D01*
X143726190Y-103904819D02*
X143869047Y-103904819D01*
X143869047Y-103904819D02*
X143964285Y-103857200D01*
X143964285Y-103857200D02*
X144011904Y-103809580D01*
X144345238Y-103238152D02*
X144726190Y-103238152D01*
X144488095Y-102904819D02*
X144488095Y-103761961D01*
X144488095Y-103761961D02*
X144535714Y-103857200D01*
X144535714Y-103857200D02*
X144630952Y-103904819D01*
X144630952Y-103904819D02*
X144726190Y-103904819D01*
X144916667Y-103238152D02*
X145297619Y-103238152D01*
X145059524Y-102904819D02*
X145059524Y-103761961D01*
X145059524Y-103761961D02*
X145107143Y-103857200D01*
X145107143Y-103857200D02*
X145202381Y-103904819D01*
X145202381Y-103904819D02*
X145297619Y-103904819D01*
X145773810Y-103904819D02*
X145678572Y-103857200D01*
X145678572Y-103857200D02*
X145630953Y-103809580D01*
X145630953Y-103809580D02*
X145583334Y-103714342D01*
X145583334Y-103714342D02*
X145583334Y-103428628D01*
X145583334Y-103428628D02*
X145630953Y-103333390D01*
X145630953Y-103333390D02*
X145678572Y-103285771D01*
X145678572Y-103285771D02*
X145773810Y-103238152D01*
X145773810Y-103238152D02*
X145916667Y-103238152D01*
X145916667Y-103238152D02*
X146011905Y-103285771D01*
X146011905Y-103285771D02*
X146059524Y-103333390D01*
X146059524Y-103333390D02*
X146107143Y-103428628D01*
X146107143Y-103428628D02*
X146107143Y-103714342D01*
X146107143Y-103714342D02*
X146059524Y-103809580D01*
X146059524Y-103809580D02*
X146011905Y-103857200D01*
X146011905Y-103857200D02*
X145916667Y-103904819D01*
X145916667Y-103904819D02*
X145773810Y-103904819D01*
X146535715Y-103238152D02*
X146535715Y-103904819D01*
X146535715Y-103333390D02*
X146583334Y-103285771D01*
X146583334Y-103285771D02*
X146678572Y-103238152D01*
X146678572Y-103238152D02*
X146821429Y-103238152D01*
X146821429Y-103238152D02*
X146916667Y-103285771D01*
X146916667Y-103285771D02*
X146964286Y-103381009D01*
X146964286Y-103381009D02*
X146964286Y-103904819D01*
X147345239Y-102904819D02*
X147964286Y-102904819D01*
X147964286Y-102904819D02*
X147630953Y-103285771D01*
X147630953Y-103285771D02*
X147773810Y-103285771D01*
X147773810Y-103285771D02*
X147869048Y-103333390D01*
X147869048Y-103333390D02*
X147916667Y-103381009D01*
X147916667Y-103381009D02*
X147964286Y-103476247D01*
X147964286Y-103476247D02*
X147964286Y-103714342D01*
X147964286Y-103714342D02*
X147916667Y-103809580D01*
X147916667Y-103809580D02*
X147869048Y-103857200D01*
X147869048Y-103857200D02*
X147773810Y-103904819D01*
X147773810Y-103904819D02*
X147488096Y-103904819D01*
X147488096Y-103904819D02*
X147392858Y-103857200D01*
X147392858Y-103857200D02*
X147345239Y-103809580D01*
X133571428Y-112034819D02*
X133571428Y-111034819D01*
X133571428Y-111034819D02*
X133809523Y-111034819D01*
X133809523Y-111034819D02*
X133952380Y-111082438D01*
X133952380Y-111082438D02*
X134047618Y-111177676D01*
X134047618Y-111177676D02*
X134095237Y-111272914D01*
X134095237Y-111272914D02*
X134142856Y-111463390D01*
X134142856Y-111463390D02*
X134142856Y-111606247D01*
X134142856Y-111606247D02*
X134095237Y-111796723D01*
X134095237Y-111796723D02*
X134047618Y-111891961D01*
X134047618Y-111891961D02*
X133952380Y-111987200D01*
X133952380Y-111987200D02*
X133809523Y-112034819D01*
X133809523Y-112034819D02*
X133571428Y-112034819D01*
X134571428Y-112034819D02*
X134571428Y-111368152D01*
X134571428Y-111034819D02*
X134523809Y-111082438D01*
X134523809Y-111082438D02*
X134571428Y-111130057D01*
X134571428Y-111130057D02*
X134619047Y-111082438D01*
X134619047Y-111082438D02*
X134571428Y-111034819D01*
X134571428Y-111034819D02*
X134571428Y-111130057D01*
X134999999Y-111987200D02*
X135095237Y-112034819D01*
X135095237Y-112034819D02*
X135285713Y-112034819D01*
X135285713Y-112034819D02*
X135380951Y-111987200D01*
X135380951Y-111987200D02*
X135428570Y-111891961D01*
X135428570Y-111891961D02*
X135428570Y-111844342D01*
X135428570Y-111844342D02*
X135380951Y-111749104D01*
X135380951Y-111749104D02*
X135285713Y-111701485D01*
X135285713Y-111701485D02*
X135142856Y-111701485D01*
X135142856Y-111701485D02*
X135047618Y-111653866D01*
X135047618Y-111653866D02*
X134999999Y-111558628D01*
X134999999Y-111558628D02*
X134999999Y-111511009D01*
X134999999Y-111511009D02*
X135047618Y-111415771D01*
X135047618Y-111415771D02*
X135142856Y-111368152D01*
X135142856Y-111368152D02*
X135285713Y-111368152D01*
X135285713Y-111368152D02*
X135380951Y-111415771D01*
X135857142Y-111368152D02*
X135857142Y-112368152D01*
X135857142Y-111415771D02*
X135952380Y-111368152D01*
X135952380Y-111368152D02*
X136142856Y-111368152D01*
X136142856Y-111368152D02*
X136238094Y-111415771D01*
X136238094Y-111415771D02*
X136285713Y-111463390D01*
X136285713Y-111463390D02*
X136333332Y-111558628D01*
X136333332Y-111558628D02*
X136333332Y-111844342D01*
X136333332Y-111844342D02*
X136285713Y-111939580D01*
X136285713Y-111939580D02*
X136238094Y-111987200D01*
X136238094Y-111987200D02*
X136142856Y-112034819D01*
X136142856Y-112034819D02*
X135952380Y-112034819D01*
X135952380Y-112034819D02*
X135857142Y-111987200D01*
X136904761Y-112034819D02*
X136809523Y-111987200D01*
X136809523Y-111987200D02*
X136761904Y-111891961D01*
X136761904Y-111891961D02*
X136761904Y-111034819D01*
X137714285Y-112034819D02*
X137714285Y-111511009D01*
X137714285Y-111511009D02*
X137666666Y-111415771D01*
X137666666Y-111415771D02*
X137571428Y-111368152D01*
X137571428Y-111368152D02*
X137380952Y-111368152D01*
X137380952Y-111368152D02*
X137285714Y-111415771D01*
X137714285Y-111987200D02*
X137619047Y-112034819D01*
X137619047Y-112034819D02*
X137380952Y-112034819D01*
X137380952Y-112034819D02*
X137285714Y-111987200D01*
X137285714Y-111987200D02*
X137238095Y-111891961D01*
X137238095Y-111891961D02*
X137238095Y-111796723D01*
X137238095Y-111796723D02*
X137285714Y-111701485D01*
X137285714Y-111701485D02*
X137380952Y-111653866D01*
X137380952Y-111653866D02*
X137619047Y-111653866D01*
X137619047Y-111653866D02*
X137714285Y-111606247D01*
X138095238Y-111368152D02*
X138333333Y-112034819D01*
X138571428Y-111368152D02*
X138333333Y-112034819D01*
X138333333Y-112034819D02*
X138238095Y-112272914D01*
X138238095Y-112272914D02*
X138190476Y-112320533D01*
X138190476Y-112320533D02*
X138095238Y-112368152D01*
X139476190Y-112034819D02*
X138904762Y-112034819D01*
X139190476Y-112034819D02*
X139190476Y-111034819D01*
X139190476Y-111034819D02*
X139095238Y-111177676D01*
X139095238Y-111177676D02*
X139000000Y-111272914D01*
X139000000Y-111272914D02*
X138904762Y-111320533D01*
X154916666Y-93381009D02*
X155059523Y-93428628D01*
X155059523Y-93428628D02*
X155107142Y-93476247D01*
X155107142Y-93476247D02*
X155154761Y-93571485D01*
X155154761Y-93571485D02*
X155154761Y-93714342D01*
X155154761Y-93714342D02*
X155107142Y-93809580D01*
X155107142Y-93809580D02*
X155059523Y-93857200D01*
X155059523Y-93857200D02*
X154964285Y-93904819D01*
X154964285Y-93904819D02*
X154583333Y-93904819D01*
X154583333Y-93904819D02*
X154583333Y-92904819D01*
X154583333Y-92904819D02*
X154916666Y-92904819D01*
X154916666Y-92904819D02*
X155011904Y-92952438D01*
X155011904Y-92952438D02*
X155059523Y-93000057D01*
X155059523Y-93000057D02*
X155107142Y-93095295D01*
X155107142Y-93095295D02*
X155107142Y-93190533D01*
X155107142Y-93190533D02*
X155059523Y-93285771D01*
X155059523Y-93285771D02*
X155011904Y-93333390D01*
X155011904Y-93333390D02*
X154916666Y-93381009D01*
X154916666Y-93381009D02*
X154583333Y-93381009D01*
X156011904Y-93238152D02*
X156011904Y-93904819D01*
X155583333Y-93238152D02*
X155583333Y-93761961D01*
X155583333Y-93761961D02*
X155630952Y-93857200D01*
X155630952Y-93857200D02*
X155726190Y-93904819D01*
X155726190Y-93904819D02*
X155869047Y-93904819D01*
X155869047Y-93904819D02*
X155964285Y-93857200D01*
X155964285Y-93857200D02*
X156011904Y-93809580D01*
X156345238Y-93238152D02*
X156726190Y-93238152D01*
X156488095Y-92904819D02*
X156488095Y-93761961D01*
X156488095Y-93761961D02*
X156535714Y-93857200D01*
X156535714Y-93857200D02*
X156630952Y-93904819D01*
X156630952Y-93904819D02*
X156726190Y-93904819D01*
X156916667Y-93238152D02*
X157297619Y-93238152D01*
X157059524Y-92904819D02*
X157059524Y-93761961D01*
X157059524Y-93761961D02*
X157107143Y-93857200D01*
X157107143Y-93857200D02*
X157202381Y-93904819D01*
X157202381Y-93904819D02*
X157297619Y-93904819D01*
X157773810Y-93904819D02*
X157678572Y-93857200D01*
X157678572Y-93857200D02*
X157630953Y-93809580D01*
X157630953Y-93809580D02*
X157583334Y-93714342D01*
X157583334Y-93714342D02*
X157583334Y-93428628D01*
X157583334Y-93428628D02*
X157630953Y-93333390D01*
X157630953Y-93333390D02*
X157678572Y-93285771D01*
X157678572Y-93285771D02*
X157773810Y-93238152D01*
X157773810Y-93238152D02*
X157916667Y-93238152D01*
X157916667Y-93238152D02*
X158011905Y-93285771D01*
X158011905Y-93285771D02*
X158059524Y-93333390D01*
X158059524Y-93333390D02*
X158107143Y-93428628D01*
X158107143Y-93428628D02*
X158107143Y-93714342D01*
X158107143Y-93714342D02*
X158059524Y-93809580D01*
X158059524Y-93809580D02*
X158011905Y-93857200D01*
X158011905Y-93857200D02*
X157916667Y-93904819D01*
X157916667Y-93904819D02*
X157773810Y-93904819D01*
X158535715Y-93238152D02*
X158535715Y-93904819D01*
X158535715Y-93333390D02*
X158583334Y-93285771D01*
X158583334Y-93285771D02*
X158678572Y-93238152D01*
X158678572Y-93238152D02*
X158821429Y-93238152D01*
X158821429Y-93238152D02*
X158916667Y-93285771D01*
X158916667Y-93285771D02*
X158964286Y-93381009D01*
X158964286Y-93381009D02*
X158964286Y-93904819D01*
X159392858Y-93000057D02*
X159440477Y-92952438D01*
X159440477Y-92952438D02*
X159535715Y-92904819D01*
X159535715Y-92904819D02*
X159773810Y-92904819D01*
X159773810Y-92904819D02*
X159869048Y-92952438D01*
X159869048Y-92952438D02*
X159916667Y-93000057D01*
X159916667Y-93000057D02*
X159964286Y-93095295D01*
X159964286Y-93095295D02*
X159964286Y-93190533D01*
X159964286Y-93190533D02*
X159916667Y-93333390D01*
X159916667Y-93333390D02*
X159345239Y-93904819D01*
X159345239Y-93904819D02*
X159964286Y-93904819D01*
X144954819Y-71761904D02*
X145764342Y-71761904D01*
X145764342Y-71761904D02*
X145859580Y-71714285D01*
X145859580Y-71714285D02*
X145907200Y-71666666D01*
X145907200Y-71666666D02*
X145954819Y-71571428D01*
X145954819Y-71571428D02*
X145954819Y-71380952D01*
X145954819Y-71380952D02*
X145907200Y-71285714D01*
X145907200Y-71285714D02*
X145859580Y-71238095D01*
X145859580Y-71238095D02*
X145764342Y-71190476D01*
X145764342Y-71190476D02*
X144954819Y-71190476D01*
X145050057Y-70761904D02*
X145002438Y-70714285D01*
X145002438Y-70714285D02*
X144954819Y-70619047D01*
X144954819Y-70619047D02*
X144954819Y-70380952D01*
X144954819Y-70380952D02*
X145002438Y-70285714D01*
X145002438Y-70285714D02*
X145050057Y-70238095D01*
X145050057Y-70238095D02*
X145145295Y-70190476D01*
X145145295Y-70190476D02*
X145240533Y-70190476D01*
X145240533Y-70190476D02*
X145383390Y-70238095D01*
X145383390Y-70238095D02*
X145954819Y-70809523D01*
X145954819Y-70809523D02*
X145954819Y-70190476D01*
D13*
X149712993Y-64257161D02*
X150576593Y-63969294D01*
X150576593Y-63969294D02*
X149712993Y-63681428D01*
X150576593Y-63393560D02*
X150000860Y-63393560D01*
X149712993Y-63393560D02*
X149754117Y-63434684D01*
X149754117Y-63434684D02*
X149795241Y-63393560D01*
X149795241Y-63393560D02*
X149754117Y-63352437D01*
X149754117Y-63352437D02*
X149712993Y-63393560D01*
X149712993Y-63393560D02*
X149795241Y-63393560D01*
X150000860Y-62982322D02*
X150576593Y-62982322D01*
X150083108Y-62982322D02*
X150041984Y-62941199D01*
X150041984Y-62941199D02*
X150000860Y-62858951D01*
X150000860Y-62858951D02*
X150000860Y-62735580D01*
X150000860Y-62735580D02*
X150041984Y-62653332D01*
X150041984Y-62653332D02*
X150124231Y-62612208D01*
X150124231Y-62612208D02*
X150576593Y-62612208D01*
X150535470Y-69385542D02*
X150576593Y-69262171D01*
X150576593Y-69262171D02*
X150576593Y-69056552D01*
X150576593Y-69056552D02*
X150535470Y-68974304D01*
X150535470Y-68974304D02*
X150494346Y-68933180D01*
X150494346Y-68933180D02*
X150412098Y-68892057D01*
X150412098Y-68892057D02*
X150329850Y-68892057D01*
X150329850Y-68892057D02*
X150247603Y-68933180D01*
X150247603Y-68933180D02*
X150206479Y-68974304D01*
X150206479Y-68974304D02*
X150165355Y-69056552D01*
X150165355Y-69056552D02*
X150124231Y-69221047D01*
X150124231Y-69221047D02*
X150083108Y-69303295D01*
X150083108Y-69303295D02*
X150041984Y-69344418D01*
X150041984Y-69344418D02*
X149959736Y-69385542D01*
X149959736Y-69385542D02*
X149877489Y-69385542D01*
X149877489Y-69385542D02*
X149795241Y-69344418D01*
X149795241Y-69344418D02*
X149754117Y-69303295D01*
X149754117Y-69303295D02*
X149712993Y-69221047D01*
X149712993Y-69221047D02*
X149712993Y-69015428D01*
X149712993Y-69015428D02*
X149754117Y-68892057D01*
X150576593Y-68521942D02*
X149712993Y-68521942D01*
X149712993Y-68521942D02*
X149712993Y-68316323D01*
X149712993Y-68316323D02*
X149754117Y-68192952D01*
X149754117Y-68192952D02*
X149836365Y-68110704D01*
X149836365Y-68110704D02*
X149918612Y-68069581D01*
X149918612Y-68069581D02*
X150083108Y-68028457D01*
X150083108Y-68028457D02*
X150206479Y-68028457D01*
X150206479Y-68028457D02*
X150370974Y-68069581D01*
X150370974Y-68069581D02*
X150453222Y-68110704D01*
X150453222Y-68110704D02*
X150535470Y-68192952D01*
X150535470Y-68192952D02*
X150576593Y-68316323D01*
X150576593Y-68316323D02*
X150576593Y-68521942D01*
X150576593Y-74417161D02*
X149712993Y-74417161D01*
X149712993Y-74417161D02*
X149712993Y-74211542D01*
X149712993Y-74211542D02*
X149754117Y-74088171D01*
X149754117Y-74088171D02*
X149836365Y-74005923D01*
X149836365Y-74005923D02*
X149918612Y-73964800D01*
X149918612Y-73964800D02*
X150083108Y-73923676D01*
X150083108Y-73923676D02*
X150206479Y-73923676D01*
X150206479Y-73923676D02*
X150370974Y-73964800D01*
X150370974Y-73964800D02*
X150453222Y-74005923D01*
X150453222Y-74005923D02*
X150535470Y-74088171D01*
X150535470Y-74088171D02*
X150576593Y-74211542D01*
X150576593Y-74211542D02*
X150576593Y-74417161D01*
X150576593Y-73553561D02*
X149712993Y-73553561D01*
X150576593Y-73142323D02*
X149712993Y-73142323D01*
X149712993Y-73142323D02*
X150576593Y-72648838D01*
X150576593Y-72648838D02*
X149712993Y-72648838D01*
X150576593Y-78828294D02*
X150576593Y-79239532D01*
X150576593Y-79239532D02*
X149712993Y-79239532D01*
X150576593Y-78046942D02*
X150165355Y-78334808D01*
X150576593Y-78540427D02*
X149712993Y-78540427D01*
X149712993Y-78540427D02*
X149712993Y-78211437D01*
X149712993Y-78211437D02*
X149754117Y-78129189D01*
X149754117Y-78129189D02*
X149795241Y-78088066D01*
X149795241Y-78088066D02*
X149877489Y-78046942D01*
X149877489Y-78046942D02*
X150000860Y-78046942D01*
X150000860Y-78046942D02*
X150083108Y-78088066D01*
X150083108Y-78088066D02*
X150124231Y-78129189D01*
X150124231Y-78129189D02*
X150165355Y-78211437D01*
X150165355Y-78211437D02*
X150165355Y-78540427D01*
X150494346Y-77183342D02*
X150535470Y-77224466D01*
X150535470Y-77224466D02*
X150576593Y-77347837D01*
X150576593Y-77347837D02*
X150576593Y-77430085D01*
X150576593Y-77430085D02*
X150535470Y-77553456D01*
X150535470Y-77553456D02*
X150453222Y-77635704D01*
X150453222Y-77635704D02*
X150370974Y-77676827D01*
X150370974Y-77676827D02*
X150206479Y-77717951D01*
X150206479Y-77717951D02*
X150083108Y-77717951D01*
X150083108Y-77717951D02*
X149918612Y-77676827D01*
X149918612Y-77676827D02*
X149836365Y-77635704D01*
X149836365Y-77635704D02*
X149754117Y-77553456D01*
X149754117Y-77553456D02*
X149712993Y-77430085D01*
X149712993Y-77430085D02*
X149712993Y-77347837D01*
X149712993Y-77347837D02*
X149754117Y-77224466D01*
X149754117Y-77224466D02*
X149795241Y-77183342D01*
X154254117Y-66697981D02*
X154212993Y-66780228D01*
X154212993Y-66780228D02*
X154212993Y-66903600D01*
X154212993Y-66903600D02*
X154254117Y-67026971D01*
X154254117Y-67026971D02*
X154336365Y-67109219D01*
X154336365Y-67109219D02*
X154418612Y-67150342D01*
X154418612Y-67150342D02*
X154583108Y-67191466D01*
X154583108Y-67191466D02*
X154706479Y-67191466D01*
X154706479Y-67191466D02*
X154870974Y-67150342D01*
X154870974Y-67150342D02*
X154953222Y-67109219D01*
X154953222Y-67109219D02*
X155035470Y-67026971D01*
X155035470Y-67026971D02*
X155076593Y-66903600D01*
X155076593Y-66903600D02*
X155076593Y-66821352D01*
X155076593Y-66821352D02*
X155035470Y-66697981D01*
X155035470Y-66697981D02*
X154994346Y-66656857D01*
X154994346Y-66656857D02*
X154706479Y-66656857D01*
X154706479Y-66656857D02*
X154706479Y-66821352D01*
X155076593Y-66286742D02*
X154212993Y-66286742D01*
X154212993Y-66286742D02*
X155076593Y-65793257D01*
X155076593Y-65793257D02*
X154212993Y-65793257D01*
X155076593Y-65382018D02*
X154212993Y-65382018D01*
X154212993Y-65382018D02*
X154212993Y-65176399D01*
X154212993Y-65176399D02*
X154254117Y-65053028D01*
X154254117Y-65053028D02*
X154336365Y-64970780D01*
X154336365Y-64970780D02*
X154418612Y-64929657D01*
X154418612Y-64929657D02*
X154583108Y-64888533D01*
X154583108Y-64888533D02*
X154706479Y-64888533D01*
X154706479Y-64888533D02*
X154870974Y-64929657D01*
X154870974Y-64929657D02*
X154953222Y-64970780D01*
X154953222Y-64970780D02*
X155035470Y-65053028D01*
X155035470Y-65053028D02*
X155076593Y-65176399D01*
X155076593Y-65176399D02*
X155076593Y-65382018D01*
X154254117Y-71921914D02*
X154212993Y-72004161D01*
X154212993Y-72004161D02*
X154212993Y-72127533D01*
X154212993Y-72127533D02*
X154254117Y-72250904D01*
X154254117Y-72250904D02*
X154336365Y-72333152D01*
X154336365Y-72333152D02*
X154418612Y-72374275D01*
X154418612Y-72374275D02*
X154583108Y-72415399D01*
X154583108Y-72415399D02*
X154706479Y-72415399D01*
X154706479Y-72415399D02*
X154870974Y-72374275D01*
X154870974Y-72374275D02*
X154953222Y-72333152D01*
X154953222Y-72333152D02*
X155035470Y-72250904D01*
X155035470Y-72250904D02*
X155076593Y-72127533D01*
X155076593Y-72127533D02*
X155076593Y-72045285D01*
X155076593Y-72045285D02*
X155035470Y-71921914D01*
X155035470Y-71921914D02*
X154994346Y-71880790D01*
X154994346Y-71880790D02*
X154706479Y-71880790D01*
X154706479Y-71880790D02*
X154706479Y-72045285D01*
X154829850Y-71551799D02*
X154829850Y-71140561D01*
X155076593Y-71634047D02*
X154212993Y-71346180D01*
X154212993Y-71346180D02*
X155076593Y-71058314D01*
X155076593Y-70770446D02*
X154212993Y-70770446D01*
X155076593Y-70359208D02*
X154212993Y-70359208D01*
X154212993Y-70359208D02*
X155076593Y-69865723D01*
X155076593Y-69865723D02*
X154212993Y-69865723D01*
X154624231Y-77351466D02*
X154665355Y-77228094D01*
X154665355Y-77228094D02*
X154706479Y-77186971D01*
X154706479Y-77186971D02*
X154788727Y-77145847D01*
X154788727Y-77145847D02*
X154912098Y-77145847D01*
X154912098Y-77145847D02*
X154994346Y-77186971D01*
X154994346Y-77186971D02*
X155035470Y-77228094D01*
X155035470Y-77228094D02*
X155076593Y-77310342D01*
X155076593Y-77310342D02*
X155076593Y-77639332D01*
X155076593Y-77639332D02*
X154212993Y-77639332D01*
X154212993Y-77639332D02*
X154212993Y-77351466D01*
X154212993Y-77351466D02*
X154254117Y-77269218D01*
X154254117Y-77269218D02*
X154295241Y-77228094D01*
X154295241Y-77228094D02*
X154377489Y-77186971D01*
X154377489Y-77186971D02*
X154459736Y-77186971D01*
X154459736Y-77186971D02*
X154541984Y-77228094D01*
X154541984Y-77228094D02*
X154583108Y-77269218D01*
X154583108Y-77269218D02*
X154624231Y-77351466D01*
X154624231Y-77351466D02*
X154624231Y-77639332D01*
X154994346Y-76282247D02*
X155035470Y-76323371D01*
X155035470Y-76323371D02*
X155076593Y-76446742D01*
X155076593Y-76446742D02*
X155076593Y-76528990D01*
X155076593Y-76528990D02*
X155035470Y-76652361D01*
X155035470Y-76652361D02*
X154953222Y-76734609D01*
X154953222Y-76734609D02*
X154870974Y-76775732D01*
X154870974Y-76775732D02*
X154706479Y-76816856D01*
X154706479Y-76816856D02*
X154583108Y-76816856D01*
X154583108Y-76816856D02*
X154418612Y-76775732D01*
X154418612Y-76775732D02*
X154336365Y-76734609D01*
X154336365Y-76734609D02*
X154254117Y-76652361D01*
X154254117Y-76652361D02*
X154212993Y-76528990D01*
X154212993Y-76528990D02*
X154212993Y-76446742D01*
X154212993Y-76446742D02*
X154254117Y-76323371D01*
X154254117Y-76323371D02*
X154295241Y-76282247D01*
X155076593Y-75500894D02*
X155076593Y-75912132D01*
X155076593Y-75912132D02*
X154212993Y-75912132D01*
X155076593Y-75213027D02*
X154212993Y-75213027D01*
X155076593Y-74719542D02*
X154583108Y-75089656D01*
X154212993Y-74719542D02*
X154706479Y-75213027D01*
%TO.C,U1*%
X187245000Y-113440000D02*
X187245000Y-60100000D01*
X187245000Y-60100000D02*
X164385000Y-60100000D01*
X179625000Y-62640000D02*
X179625000Y-57560000D01*
X179625000Y-57560000D02*
X171921690Y-57560000D01*
X171921690Y-62640000D02*
X179625000Y-62640000D01*
X171921690Y-57560000D02*
X171921690Y-62640000D01*
X164385000Y-113440000D02*
X187245000Y-113440000D01*
X164385000Y-60100000D02*
X164385000Y-113440000D01*
%TO.C,Button4*%
D14*
X153150000Y-104250000D02*
X153150000Y-105500000D01*
X153450000Y-106800000D02*
X154200000Y-106800000D01*
X154200000Y-106800000D02*
X154200000Y-109750000D01*
X154200000Y-109750000D02*
X157250000Y-109750000D01*
X154400000Y-104250000D02*
X153150000Y-104250000D01*
X160300000Y-106800000D02*
X160300000Y-109750000D01*
X160300000Y-109750000D02*
X157250000Y-109750000D01*
X161050000Y-106800000D02*
X160300000Y-106800000D01*
X153440000Y-104540000D02*
X161060000Y-104540000D01*
X161060000Y-110510000D01*
X153440000Y-110510000D01*
X153440000Y-104540000D01*
X153450000Y-104550000D02*
X155250000Y-104550000D01*
X155250000Y-105300000D01*
X153450000Y-105300000D01*
X153450000Y-104550000D01*
X156750000Y-104550000D02*
X157750000Y-104550000D01*
X157750000Y-105300000D01*
X156750000Y-105300000D01*
X156750000Y-104550000D01*
X159250000Y-104550000D02*
X161050000Y-104550000D01*
X161050000Y-105300000D01*
X159250000Y-105300000D01*
X159250000Y-104550000D01*
%TO.C,Joystick1*%
X143150000Y-84250000D02*
X143150000Y-85500000D01*
X143450000Y-86800000D02*
X144200000Y-86800000D01*
X144200000Y-86800000D02*
X144200000Y-89750000D01*
X144200000Y-89750000D02*
X151000000Y-89750000D01*
X144400000Y-84250000D02*
X143150000Y-84250000D01*
X157800000Y-86800000D02*
X157800000Y-89750000D01*
X157800000Y-89750000D02*
X151000000Y-89750000D01*
X158550000Y-86800000D02*
X157800000Y-86800000D01*
X143440000Y-84540000D02*
X158560000Y-84540000D01*
X158560000Y-90510000D01*
X143440000Y-90510000D01*
X143440000Y-84540000D01*
X143450000Y-84550000D02*
X145250000Y-84550000D01*
X145250000Y-85300000D01*
X143450000Y-85300000D01*
X143450000Y-84550000D01*
X146750000Y-84550000D02*
X155250000Y-84550000D01*
X155250000Y-85300000D01*
X146750000Y-85300000D01*
X146750000Y-84550000D01*
X156750000Y-84550000D02*
X158550000Y-84550000D01*
X158550000Y-85300000D01*
X156750000Y-85300000D01*
X156750000Y-84550000D01*
%TO.C,Button1*%
X141150000Y-94250000D02*
X141150000Y-95500000D01*
X141450000Y-96800000D02*
X142200000Y-96800000D01*
X142200000Y-96800000D02*
X142200000Y-99750000D01*
X142200000Y-99750000D02*
X145250000Y-99750000D01*
X142400000Y-94250000D02*
X141150000Y-94250000D01*
X148300000Y-96800000D02*
X148300000Y-99750000D01*
X148300000Y-99750000D02*
X145250000Y-99750000D01*
X149050000Y-96800000D02*
X148300000Y-96800000D01*
X141440000Y-94540000D02*
X149060000Y-94540000D01*
X149060000Y-100510000D01*
X141440000Y-100510000D01*
X141440000Y-94540000D01*
X141450000Y-94550000D02*
X143250000Y-94550000D01*
X143250000Y-95300000D01*
X141450000Y-95300000D01*
X141450000Y-94550000D01*
X144750000Y-94550000D02*
X145750000Y-94550000D01*
X145750000Y-95300000D01*
X144750000Y-95300000D01*
X144750000Y-94550000D01*
X147250000Y-94550000D02*
X149050000Y-94550000D01*
X149050000Y-95300000D01*
X147250000Y-95300000D01*
X147250000Y-94550000D01*
%TO.C,Button3*%
X141150000Y-104250000D02*
X141150000Y-105500000D01*
X141450000Y-106800000D02*
X142200000Y-106800000D01*
X142200000Y-106800000D02*
X142200000Y-109750000D01*
X142200000Y-109750000D02*
X145250000Y-109750000D01*
X142400000Y-104250000D02*
X141150000Y-104250000D01*
X148300000Y-106800000D02*
X148300000Y-109750000D01*
X148300000Y-109750000D02*
X145250000Y-109750000D01*
X149050000Y-106800000D02*
X148300000Y-106800000D01*
X141440000Y-104540000D02*
X149060000Y-104540000D01*
X149060000Y-110510000D01*
X141440000Y-110510000D01*
X141440000Y-104540000D01*
X141450000Y-104550000D02*
X143250000Y-104550000D01*
X143250000Y-105300000D01*
X141450000Y-105300000D01*
X141450000Y-104550000D01*
X144750000Y-104550000D02*
X145750000Y-104550000D01*
X145750000Y-105300000D01*
X144750000Y-105300000D01*
X144750000Y-104550000D01*
X147250000Y-104550000D02*
X149050000Y-104550000D01*
X149050000Y-105300000D01*
X147250000Y-105300000D01*
X147250000Y-104550000D01*
%TO.C,Display1*%
X135120000Y-107930000D02*
X135120000Y-87500000D01*
X137880000Y-87500000D02*
X135120000Y-87500000D01*
X137880000Y-107930000D02*
X135120000Y-107930000D01*
X137880000Y-107930000D02*
X137880000Y-87500000D01*
X137880000Y-109200000D02*
X137880000Y-110580000D01*
X137880000Y-110580000D02*
X136500000Y-110580000D01*
%TO.C,Button2*%
X153150000Y-94250000D02*
X153150000Y-95500000D01*
X153450000Y-96800000D02*
X154200000Y-96800000D01*
X154200000Y-96800000D02*
X154200000Y-99750000D01*
X154200000Y-99750000D02*
X157250000Y-99750000D01*
X154400000Y-94250000D02*
X153150000Y-94250000D01*
X160300000Y-96800000D02*
X160300000Y-99750000D01*
X160300000Y-99750000D02*
X157250000Y-99750000D01*
X161050000Y-96800000D02*
X160300000Y-96800000D01*
X153440000Y-94540000D02*
X161060000Y-94540000D01*
X161060000Y-100510000D01*
X153440000Y-100510000D01*
X153440000Y-94540000D01*
X153450000Y-94550000D02*
X155250000Y-94550000D01*
X155250000Y-95300000D01*
X153450000Y-95300000D01*
X153450000Y-94550000D01*
X156750000Y-94550000D02*
X157750000Y-94550000D01*
X157750000Y-95300000D01*
X156750000Y-95300000D01*
X156750000Y-94550000D01*
X159250000Y-94550000D02*
X161050000Y-94550000D01*
X161050000Y-95300000D01*
X159250000Y-95300000D01*
X159250000Y-94550000D01*
%TO.C,U2*%
D15*
X136353000Y-67720000D02*
X136353000Y-74720000D01*
X136353000Y-74720000D02*
X137753000Y-74720000D01*
D16*
X136397000Y-77470000D02*
X136397000Y-64770000D01*
D15*
X137753000Y-67720000D02*
X136353000Y-67720000D01*
X137753000Y-67720000D02*
X137753000Y-74720000D01*
X137753000Y-74720000D02*
X143353000Y-74720000D01*
D16*
X138937000Y-62230000D02*
X152907000Y-62230000D01*
X139000000Y-80000000D02*
X152970000Y-80000000D01*
D15*
X143353000Y-67720000D02*
X137753000Y-67720000D01*
X143353000Y-74720000D02*
X143353000Y-67720000D01*
D16*
X155447000Y-64770000D02*
X155447000Y-77470000D01*
X136397000Y-64770000D02*
G75*
G02*
X138937000Y-62230000I2540000J0D01*
G01*
X138953452Y-79997238D02*
G75*
G02*
X136413452Y-77457238I1J2540001D01*
G01*
X152907000Y-62230000D02*
G75*
G02*
X155447000Y-64770000I0J-2540000D01*
G01*
X155447000Y-77470000D02*
G75*
G02*
X152907000Y-80010000I-2540001J1D01*
G01*
D15*
X140937000Y-64770000D02*
G75*
G02*
X136937000Y-64770000I-2000000J0D01*
G01*
X136937000Y-64770000D02*
G75*
G02*
X140937000Y-64770000I2000000J0D01*
G01*
X140937000Y-77470000D02*
G75*
G02*
X136937000Y-77470000I-2000000J0D01*
G01*
X136937000Y-77470000D02*
G75*
G02*
X140937000Y-77470000I2000000J0D01*
G01*
%TD*%
M02*
