%TF.GenerationSoftware,KiCad,Pcbnew,10.0.3*%
%TF.CreationDate,2026-06-20T13:33:00+02:00*%
%TF.ProjectId,Controller,436f6e74-726f-46c6-9c65-722e6b696361,rev?*%
%TF.SameCoordinates,Original*%
%TF.FileFunction,Soldermask,Top*%
%TF.FilePolarity,Negative*%
%FSLAX46Y46*%
G04 Gerber Fmt 4.6, Leading zero omitted, Abs format (unit mm)*
G04 Created by KiCad (PCBNEW 10.0.3) date 2026-06-20 13:33:00*
%MOMM*%
%LPD*%
G01*
G04 APERTURE LIST*
G04 Aperture macros list*
%AMRoundRect*
0 Rectangle with rounded corners*
0 $1 Rounding radius*
0 $2 $3 $4 $5 $6 $7 $8 $9 X,Y pos of 4 corners*
0 Add a 4 corners polygon primitive as box body*
4,1,4,$2,$3,$4,$5,$6,$7,$8,$9,$2,$3,0*
0 Add four circle primitives for the rounded corners*
1,1,$1+$1,$2,$3*
1,1,$1+$1,$4,$5*
1,1,$1+$1,$6,$7*
1,1,$1+$1,$8,$9*
0 Add four rect primitives between the rounded corners*
20,1,$1+$1,$2,$3,$4,$5,0*
20,1,$1+$1,$4,$5,$6,$7,0*
20,1,$1+$1,$6,$7,$8,$9,0*
20,1,$1+$1,$8,$9,$2,$3,0*%
G04 Aperture macros list end*
%ADD10C,3.200000*%
%ADD11RoundRect,0.102000X-0.754000X-0.754000X0.754000X-0.754000X0.754000X0.754000X-0.754000X0.754000X0*%
%ADD12RoundRect,0.250000X-0.600000X-0.750000X0.600000X-0.750000X0.600000X0.750000X-0.600000X0.750000X0*%
%ADD13O,1.700000X2.000000*%
%ADD14RoundRect,0.250000X-0.600000X-0.725000X0.600000X-0.725000X0.600000X0.725000X-0.600000X0.725000X0*%
%ADD15O,1.700000X1.950000*%
%ADD16R,1.700000X1.700000*%
%ADD17C,1.700000*%
%ADD18O,3.101600X1.851600*%
%ADD19O,4.101600X2.601600*%
G04 APERTURE END LIST*
D10*
%TO.C,REF\u002A\u002A*%
X194000000Y-65000000D03*
%TD*%
%TO.C,REF\u002A\u002A*%
X126000000Y-65000000D03*
%TD*%
%TO.C,REF\u002A\u002A*%
X126000000Y-115000000D03*
%TD*%
%TO.C,REF\u002A\u002A*%
X194000000Y-115000000D03*
%TD*%
D11*
%TO.C,U1*%
X184705000Y-65180000D03*
X184705000Y-62640000D03*
X184705000Y-88040000D03*
X184705000Y-77880000D03*
X184705000Y-82960000D03*
X184705000Y-85500000D03*
X184705000Y-90580000D03*
X184705000Y-95660000D03*
X184705000Y-98200000D03*
X184705000Y-100740000D03*
X184705000Y-103280000D03*
X184705000Y-108360000D03*
X184705000Y-110900000D03*
X166925000Y-110900000D03*
X166925000Y-108360000D03*
X166925000Y-103280000D03*
X166925000Y-100740000D03*
X166925000Y-98200000D03*
X166925000Y-95660000D03*
X166925000Y-90580000D03*
X166925000Y-88040000D03*
X166925000Y-85500000D03*
X166925000Y-82960000D03*
X166925000Y-77880000D03*
X166925000Y-75340000D03*
X166925000Y-72800000D03*
X166925000Y-70260000D03*
X166925000Y-65180000D03*
X166925000Y-62640000D03*
X166925000Y-105820000D03*
X166925000Y-93120000D03*
X166925000Y-80420000D03*
X166925000Y-67720000D03*
X184705000Y-105820000D03*
X184705000Y-93120000D03*
X184705000Y-67720000D03*
X184705000Y-80420000D03*
X184705000Y-75340000D03*
X184705000Y-70260000D03*
X184705000Y-72800000D03*
%TD*%
D12*
%TO.C,Button4*%
X156000000Y-107000000D03*
D13*
X158500000Y-107000000D03*
%TD*%
D14*
%TO.C,Joystick1*%
X146000000Y-87000000D03*
D15*
X148500000Y-87000000D03*
X151000000Y-87000000D03*
X153500000Y-87000000D03*
X156000000Y-87000000D03*
%TD*%
D12*
%TO.C,Button1*%
X144000000Y-97000000D03*
D13*
X146500000Y-97000000D03*
%TD*%
D12*
%TO.C,Button3*%
X144000000Y-107000000D03*
D13*
X146500000Y-107000000D03*
%TD*%
D16*
%TO.C,Display1*%
X136500000Y-109200000D03*
D17*
X136500000Y-106660000D03*
X136500000Y-104120000D03*
X136500000Y-101580000D03*
X136500000Y-99040000D03*
X136500000Y-96500000D03*
X136500000Y-93960000D03*
X136500000Y-91420000D03*
X136500000Y-88880000D03*
%TD*%
D12*
%TO.C,Button2*%
X156000000Y-97000000D03*
D13*
X158500000Y-97000000D03*
%TD*%
D18*
%TO.C,U2*%
X152407000Y-63500000D03*
X152407000Y-66040000D03*
X152407000Y-68580000D03*
X152407000Y-71120000D03*
X152407000Y-73660000D03*
X152407000Y-76200000D03*
X152407000Y-78740000D03*
D19*
X139953000Y-72920000D03*
X139953000Y-69420000D03*
%TD*%
M02*
