%TF.GenerationSoftware,KiCad,Pcbnew,10.0.3*%
%TF.CreationDate,2026-06-20T13:33:00+02:00*%
%TF.ProjectId,Controller,436f6e74-726f-46c6-9c65-722e6b696361,rev?*%
%TF.SameCoordinates,Original*%
%TF.FileFunction,Copper,L1,Top*%
%TF.FilePolarity,Positive*%
%FSLAX46Y46*%
G04 Gerber Fmt 4.6, Leading zero omitted, Abs format (unit mm)*
G04 Created by KiCad (PCBNEW 10.0.3) date 2026-06-20 13:33:00*
%MOMM*%
%LPD*%
G01*
G04 APERTURE LIST*
G04 Aperture macros list*
%AMRoundRect*
0 Rectangle with rounded corners*
0 $1 Rounding radius*
0 $2 $3 $4 $5 $6 $7 $8 $9 X,Y pos of 4 corners*
0 Add a 4 corners polygon primitive as box body*
4,1,4,$2,$3,$4,$5,$6,$7,$8,$9,$2,$3,0*
0 Add four circle primitives for the rounded corners*
1,1,$1+$1,$2,$3*
1,1,$1+$1,$4,$5*
1,1,$1+$1,$6,$7*
1,1,$1+$1,$8,$9*
0 Add four rect primitives between the rounded corners*
20,1,$1+$1,$2,$3,$4,$5,0*
20,1,$1+$1,$4,$5,$6,$7,0*
20,1,$1+$1,$6,$7,$8,$9,0*
20,1,$1+$1,$8,$9,$2,$3,0*%
G04 Aperture macros list end*
%TA.AperFunction,ComponentPad*%
%ADD10R,1.508000X1.508000*%
%TD*%
%TA.AperFunction,ComponentPad*%
%ADD11RoundRect,0.250000X-0.600000X-0.750000X0.600000X-0.750000X0.600000X0.750000X-0.600000X0.750000X0*%
%TD*%
%TA.AperFunction,ComponentPad*%
%ADD12O,1.700000X2.000000*%
%TD*%
%TA.AperFunction,ComponentPad*%
%ADD13RoundRect,0.250000X-0.600000X-0.725000X0.600000X-0.725000X0.600000X0.725000X-0.600000X0.725000X0*%
%TD*%
%TA.AperFunction,ComponentPad*%
%ADD14O,1.700000X1.950000*%
%TD*%
%TA.AperFunction,ComponentPad*%
%ADD15R,1.700000X1.700000*%
%TD*%
%TA.AperFunction,ComponentPad*%
%ADD16C,1.700000*%
%TD*%
%TA.AperFunction,ComponentPad*%
%ADD17O,3.000000X1.750000*%
%TD*%
%TA.AperFunction,ComponentPad*%
%ADD18O,4.000000X2.500000*%
%TD*%
%TA.AperFunction,ViaPad*%
%ADD19C,0.600000*%
%TD*%
%TA.AperFunction,Conductor*%
%ADD20C,0.200000*%
%TD*%
G04 APERTURE END LIST*
D10*
%TO.P,U1,VSYS,VSYS_VSYS*%
%TO.N,unconnected-(U1-PadVSYS)*%
X184705000Y-65180000D03*
%TO.P,U1,VBUS,VBUS_VBUS*%
%TO.N,/VBUS*%
X184705000Y-62640000D03*
%TO.P,U1,RUN,RUN_RUN*%
%TO.N,unconnected-(U1-PadRUN)*%
X184705000Y-88040000D03*
%TO.P,U1,GP28_A2,GP28_A2_GP28_A2*%
%TO.N,unconnected-(U1-PadGP28_A2)*%
X184705000Y-77880000D03*
%TO.P,U1,GP27_A1,GP27_A1_GP27_A1*%
%TO.N,unconnected-(U1-PadGP27_A1)*%
X184705000Y-82960000D03*
%TO.P,U1,GP26_A0,GP26_A0_GP26_A0*%
%TO.N,unconnected-(U1-PadGP26_A0)*%
X184705000Y-85500000D03*
%TO.P,U1,GP22,GP22_GP22*%
%TO.N,unconnected-(U1-PadGP22)*%
X184705000Y-90580000D03*
%TO.P,U1,GP21,GP21_GP21*%
%TO.N,unconnected-(U1-PadGP21)*%
X184705000Y-95660000D03*
%TO.P,U1,GP20,GP20_GP20*%
%TO.N,unconnected-(U1-PadGP20)*%
X184705000Y-98200000D03*
%TO.P,U1,GP19,GP19_GP19*%
%TO.N,/SD_MODE*%
X184705000Y-100740000D03*
%TO.P,U1,GP18,GP18_GP18*%
%TO.N,/DIN*%
X184705000Y-103280000D03*
%TO.P,U1,GP17,GP17_GP17*%
%TO.N,/LRC*%
X184705000Y-108360000D03*
%TO.P,U1,GP16,GP16_GP16*%
%TO.N,/BCLK*%
X184705000Y-110900000D03*
%TO.P,U1,GP15,GP15_GP15*%
%TO.N,/RESET*%
X166925000Y-110900000D03*
%TO.P,U1,GP14,GP14_GP14*%
%TO.N,/DC{slash}RS*%
X166925000Y-108360000D03*
%TO.P,U1,GP13,GP13_GP13*%
%TO.N,/CS*%
X166925000Y-103280000D03*
%TO.P,U1,GP12,GP12_GP12*%
%TO.N,/MISO*%
X166925000Y-100740000D03*
%TO.P,U1,GP11,GP11_GP11*%
%TO.N,/MOSI*%
X166925000Y-98200000D03*
%TO.P,U1,GP10,GP10_GP10*%
%TO.N,/SCK*%
X166925000Y-95660000D03*
%TO.P,U1,GP9,GP9_GP9*%
%TO.N,/B4*%
X166925000Y-90580000D03*
%TO.P,U1,GP8,GP8_GP8*%
%TO.N,/B3*%
X166925000Y-88040000D03*
%TO.P,U1,GP7,GP7_GP7*%
%TO.N,/B2*%
X166925000Y-85500000D03*
%TO.P,U1,GP6,GP6_GP6*%
%TO.N,/B1*%
X166925000Y-82960000D03*
%TO.P,U1,GP5,GP5_GP5*%
%TO.N,/Down*%
X166925000Y-77880000D03*
%TO.P,U1,GP4,GP4_GP4*%
%TO.N,/Up*%
X166925000Y-75340000D03*
%TO.P,U1,GP3,GP3_GP3*%
%TO.N,/Left*%
X166925000Y-72800000D03*
%TO.P,U1,GP2,GP2_GP2*%
%TO.N,/Right*%
X166925000Y-70260000D03*
%TO.P,U1,GP1,GP1_GP1*%
%TO.N,unconnected-(U1-PadGP1)*%
X166925000Y-65180000D03*
%TO.P,U1,GP0,GP0_GP0*%
%TO.N,unconnected-(U1-PadGP0)*%
X166925000Y-62640000D03*
%TO.P,U1,GND7,GND7_GND7*%
%TO.N,unconnected-(U1-PadGND7)*%
X166925000Y-105820000D03*
%TO.P,U1,GND6,GND6_GND6*%
%TO.N,GND*%
X166925000Y-93120000D03*
%TO.P,U1,GND5,GND5_GND5*%
X166925000Y-80420000D03*
%TO.P,U1,GND4,GND4_GND4*%
X166925000Y-67720000D03*
%TO.P,U1,GND3,GND3_GND3*%
%TO.N,unconnected-(U1-PadGND3)*%
X184705000Y-105820000D03*
%TO.P,U1,GND2,GND2_GND2*%
%TO.N,unconnected-(U1-PadGND2)*%
X184705000Y-93120000D03*
%TO.P,U1,GND,GND_GND*%
%TO.N,GND*%
X184705000Y-67720000D03*
%TO.P,U1,AGND,AGND_AGND*%
%TO.N,unconnected-(U1-PadAGND)*%
X184705000Y-80420000D03*
%TO.P,U1,ADC_VREF,ADC_VREF_ADC_VREF*%
%TO.N,unconnected-(U1-PadADC_VREF)*%
X184705000Y-75340000D03*
%TO.P,U1,3V3_EN,3V3_EN_3V3_EN*%
%TO.N,unconnected-(U1-Pad3V3_EN)*%
X184705000Y-70260000D03*
%TO.P,U1,3V3,3V3_3V3*%
%TO.N,/LED*%
X184705000Y-72800000D03*
%TD*%
D11*
%TO.P,Button4,1,Pin_1_1*%
%TO.N,GND*%
X156000000Y-107000000D03*
D12*
%TO.P,Button4,2,Pin_2_2*%
%TO.N,/B4*%
X158500000Y-107000000D03*
%TD*%
D13*
%TO.P,Joystick1,1,Pin_1_1*%
%TO.N,GND*%
X146000000Y-87000000D03*
D14*
%TO.P,Joystick1,2,Pin_2_2*%
%TO.N,/Right*%
X148500000Y-87000000D03*
%TO.P,Joystick1,3,Pin_3_3*%
%TO.N,/Left*%
X151000000Y-87000000D03*
%TO.P,Joystick1,4,Pin_4_4*%
%TO.N,/Up*%
X153500000Y-87000000D03*
%TO.P,Joystick1,5,Pin_5_5*%
%TO.N,/Down*%
X156000000Y-87000000D03*
%TD*%
D11*
%TO.P,Button1,1,Pin_1_1*%
%TO.N,GND*%
X144000000Y-97000000D03*
D12*
%TO.P,Button1,2,Pin_2_2*%
%TO.N,/B1*%
X146500000Y-97000000D03*
%TD*%
D11*
%TO.P,Button3,1,Pin_1_1*%
%TO.N,GND*%
X144000000Y-107000000D03*
D12*
%TO.P,Button3,2,Pin_2_2*%
%TO.N,/B3*%
X146500000Y-107000000D03*
%TD*%
D15*
%TO.P,Display1,1,Pin_1_1*%
%TO.N,/MISO*%
X136500000Y-109200000D03*
D16*
%TO.P,Display1,2,Pin_2_2*%
%TO.N,/LED*%
X136500000Y-106660000D03*
%TO.P,Display1,3,Pin_3_3*%
%TO.N,/SCK*%
X136500000Y-104120000D03*
%TO.P,Display1,4,Pin_4_4*%
%TO.N,/MOSI*%
X136500000Y-101580000D03*
%TO.P,Display1,5,Pin_5_5*%
%TO.N,/DC{slash}RS*%
X136500000Y-99040000D03*
%TO.P,Display1,6,Pin_6_6*%
%TO.N,/RESET*%
X136500000Y-96500000D03*
%TO.P,Display1,7,Pin_7_7*%
%TO.N,/CS*%
X136500000Y-93960000D03*
%TO.P,Display1,8,Pin_8_8*%
%TO.N,GND*%
X136500000Y-91420000D03*
%TO.P,Display1,9,Pin_9_9*%
%TO.N,/VBUS*%
X136500000Y-88880000D03*
%TD*%
D11*
%TO.P,Button2,1,Pin_1_1*%
%TO.N,GND*%
X156000000Y-97000000D03*
D12*
%TO.P,Button2,2,Pin_2_2*%
%TO.N,/B2*%
X158500000Y-97000000D03*
%TD*%
D17*
%TO.P,U2,1,Vin_1*%
%TO.N,/VBUS*%
X152407000Y-63500000D03*
%TO.P,U2,2,GND_2*%
%TO.N,GND*%
X152407000Y-66040000D03*
%TO.P,U2,3,~{SD_MODE}_3*%
%TO.N,/SD_MODE*%
X152407000Y-68580000D03*
%TO.P,U2,4,GAIN_4*%
%TO.N,unconnected-(U2-GAIN-Pad4)*%
X152407000Y-71120000D03*
%TO.P,U2,5,DIN_5*%
%TO.N,/DIN*%
X152407000Y-73660000D03*
%TO.P,U2,6,BCLK_6*%
%TO.N,/BCLK*%
X152407000Y-76200000D03*
%TO.P,U2,7,LRC_7*%
%TO.N,/LRC*%
X152407000Y-78740000D03*
D18*
%TO.P,U2,8,OUTP_8*%
%TO.N,unconnected-(U2-OUTP-Pad8)*%
X139953000Y-72920000D03*
%TO.P,U2,9,OUTN_9*%
%TO.N,unconnected-(U2-OUTN-Pad9)*%
X139953000Y-69420000D03*
%TD*%
D19*
%TO.N,/MOSI*%
X176700000Y-98200000D03*
%TD*%
%TO.N,GND*%
D20*
X144000000Y-97000000D02*
X144000000Y-107000000D01*
%TO.N,/LRC*%
X152907000Y-78740000D02*
X152822000Y-78825000D01*
X152822000Y-78825000D02*
X147525000Y-78825000D01*
X147525000Y-78825000D02*
X146600000Y-79750000D01*
X146600000Y-79750000D02*
X133500000Y-79750000D01*
X133500000Y-79750000D02*
X131725000Y-81525000D01*
X131725000Y-81525000D02*
X131725000Y-112350000D01*
X131725000Y-112350000D02*
X137450000Y-118075000D01*
X137450000Y-118075000D02*
X169975000Y-118075000D01*
X169975000Y-118075000D02*
X179690000Y-108360000D01*
X179690000Y-108360000D02*
X184705000Y-108360000D01*
%TO.N,/BCLK*%
X152907000Y-76200000D02*
X149250000Y-76200000D01*
X149250000Y-76200000D02*
X146450000Y-79000000D01*
X146450000Y-79000000D02*
X133150000Y-79000000D01*
X133150000Y-79000000D02*
X131075000Y-81075000D01*
X131075000Y-81075000D02*
X131075000Y-112525000D01*
X131075000Y-112525000D02*
X137175000Y-118625000D01*
X137175000Y-118625000D02*
X170650000Y-118625000D01*
X170650000Y-118625000D02*
X178375000Y-110900000D01*
X178375000Y-110900000D02*
X184705000Y-110900000D01*
%TO.N,/SD_MODE*%
X184705000Y-100740000D02*
X184705000Y-101020000D01*
X184705000Y-101020000D02*
X169225000Y-116500000D01*
X133275000Y-111825000D02*
X133275000Y-82300000D01*
X137950000Y-116500000D02*
X133275000Y-111825000D01*
X169225000Y-116500000D02*
X137950000Y-116500000D01*
X154525000Y-68600000D02*
X152927000Y-68600000D01*
X133275000Y-82300000D02*
X134250000Y-81325000D01*
X134250000Y-81325000D02*
X154275000Y-81325000D01*
X154275000Y-81325000D02*
X157475000Y-78125000D01*
X157475000Y-78125000D02*
X157475000Y-71550000D01*
X157475000Y-71550000D02*
X154525000Y-68600000D01*
X152927000Y-68600000D02*
X152907000Y-68580000D01*
%TO.N,/DIN*%
X152907000Y-73660000D02*
X155810000Y-73660000D01*
X155810000Y-73660000D02*
X156650000Y-74500000D01*
X156650000Y-74500000D02*
X156650000Y-77675000D01*
X156650000Y-77675000D02*
X153800000Y-80525000D01*
X153800000Y-80525000D02*
X133975000Y-80525000D01*
X133975000Y-80525000D02*
X132600000Y-81900000D01*
X132600000Y-81900000D02*
X132600000Y-112225000D01*
X132600000Y-112225000D02*
X137650000Y-117275000D01*
X137650000Y-117275000D02*
X169600000Y-117275000D01*
X169600000Y-117275000D02*
X183595000Y-103280000D01*
X183595000Y-103280000D02*
X184705000Y-103280000D01*
%TO.N,/DC{slash}RS*%
X166925000Y-108360000D02*
X168910000Y-108360000D01*
X138840000Y-99040000D02*
X136500000Y-99040000D01*
X168910000Y-108360000D02*
X170050000Y-109500000D01*
X170050000Y-109500000D02*
X170050000Y-110900000D01*
X170050000Y-110900000D02*
X167900000Y-113050000D01*
X167900000Y-113050000D02*
X144350000Y-113050000D01*
X139650000Y-99850000D02*
X138840000Y-99040000D01*
X144350000Y-113050000D02*
X139650000Y-108350000D01*
X139650000Y-108350000D02*
X139650000Y-99850000D01*
%TO.N,/RESET*%
X136500000Y-96500000D02*
X139525000Y-96500000D01*
X139525000Y-96500000D02*
X140425000Y-97400000D01*
X140425000Y-97400000D02*
X140425000Y-108025000D01*
X140425000Y-108025000D02*
X144550000Y-112150000D01*
X144550000Y-112150000D02*
X160050000Y-112150000D01*
X160050000Y-112150000D02*
X161300000Y-110900000D01*
X161300000Y-110900000D02*
X166925000Y-110900000D01*
%TO.N,/CS*%
X163650000Y-106750000D02*
X163650000Y-104250000D01*
X158900000Y-111500000D02*
X163650000Y-106750000D01*
X141125000Y-107725000D02*
X144900000Y-111500000D01*
X144900000Y-111500000D02*
X158900000Y-111500000D01*
X141125000Y-96350000D02*
X141125000Y-107725000D01*
X138735000Y-93960000D02*
X141125000Y-96350000D01*
X164620000Y-103280000D02*
X166925000Y-103280000D01*
X136500000Y-93960000D02*
X138735000Y-93960000D01*
X163650000Y-104250000D02*
X164620000Y-103280000D01*
%TO.N,/MISO*%
X168075000Y-113800000D02*
X175900000Y-105975000D01*
X175900000Y-105975000D02*
X175900000Y-101650000D01*
X139275000Y-113800000D02*
X168075000Y-113800000D01*
X175900000Y-101650000D02*
X174990000Y-100740000D01*
X136500000Y-111025000D02*
X139275000Y-113800000D01*
X136500000Y-109200000D02*
X136500000Y-111025000D01*
X174990000Y-100740000D02*
X166925000Y-100740000D01*
%TO.N,/SCK*%
X166925000Y-95660000D02*
X173285000Y-95660000D01*
X173285000Y-95660000D02*
X176725000Y-99100000D01*
X176725000Y-99100000D02*
X176725000Y-106400000D01*
X176725000Y-106400000D02*
X168425000Y-114700000D01*
X168425000Y-114700000D02*
X138650000Y-114700000D01*
X138650000Y-114700000D02*
X134925000Y-110975000D01*
X134925000Y-110975000D02*
X134925000Y-104325000D01*
X134925000Y-104325000D02*
X135130000Y-104120000D01*
X135130000Y-104120000D02*
X136500000Y-104120000D01*
%TO.N,/MOSI*%
X176700000Y-98200000D02*
X176975000Y-98200000D01*
X176975000Y-98200000D02*
X177550000Y-98775000D01*
X177550000Y-98775000D02*
X177550000Y-106775000D01*
X177550000Y-106775000D02*
X168725000Y-115600000D01*
X168725000Y-115600000D02*
X138250000Y-115600000D01*
X138250000Y-115600000D02*
X134100000Y-111450000D01*
X134100000Y-111450000D02*
X134100000Y-102350000D01*
X134100000Y-102350000D02*
X134870000Y-101580000D01*
X134870000Y-101580000D02*
X136500000Y-101580000D01*
%TO.N,/LRC*%
X152722000Y-78925000D02*
X152907000Y-78740000D01*
%TO.N,/Right*%
X148500000Y-87000000D02*
X152025000Y-83475000D01*
X152025000Y-83475000D02*
X153900000Y-83475000D01*
X153900000Y-83475000D02*
X166925000Y-70450000D01*
X166925000Y-70450000D02*
X166925000Y-70260000D01*
%TO.N,/Left*%
X151000000Y-87000000D02*
X153625000Y-84375000D01*
X153625000Y-84375000D02*
X155325000Y-84375000D01*
X155325000Y-84375000D02*
X166900000Y-72800000D01*
X166900000Y-72800000D02*
X166925000Y-72800000D01*
%TO.N,/Up*%
X153500000Y-87000000D02*
X155325000Y-85175000D01*
X155325000Y-85175000D02*
X157025000Y-85175000D01*
X157025000Y-85175000D02*
X166860000Y-75340000D01*
X166860000Y-75340000D02*
X166925000Y-75340000D01*
%TO.N,GND*%
X154700000Y-110575000D02*
X158500000Y-110575000D01*
X158500000Y-110575000D02*
X162500000Y-106575000D01*
X162500000Y-95275000D02*
X164655000Y-93120000D01*
X162500000Y-106575000D02*
X162500000Y-95275000D01*
X164655000Y-93120000D02*
X166925000Y-93120000D01*
X144000000Y-107000000D02*
X144000000Y-109600000D01*
X144000000Y-109600000D02*
X144975000Y-110575000D01*
X144975000Y-110575000D02*
X154700000Y-110575000D01*
X154700000Y-110575000D02*
X156000000Y-109275000D01*
X156000000Y-109275000D02*
X156000000Y-107000000D01*
X156000000Y-97000000D02*
X154000000Y-97000000D01*
X154000000Y-97000000D02*
X144000000Y-107000000D01*
X148725000Y-89725000D02*
X157125000Y-89725000D01*
X166430000Y-80420000D02*
X166925000Y-80420000D01*
X146000000Y-87000000D02*
X148725000Y-89725000D01*
X157125000Y-89725000D02*
X166430000Y-80420000D01*
%TO.N,/B4*%
X158500000Y-107000000D02*
X158500000Y-101550000D01*
X158500000Y-101550000D02*
X161425000Y-98625000D01*
X161425000Y-98625000D02*
X161425000Y-94525000D01*
X161425000Y-94525000D02*
X165370000Y-90580000D01*
X165370000Y-90580000D02*
X166925000Y-90580000D01*
%TO.N,/B3*%
X146500000Y-107000000D02*
X149325000Y-104175000D01*
X149325000Y-104175000D02*
X154300000Y-104175000D01*
X154300000Y-104175000D02*
X160100000Y-98375000D01*
X160100000Y-98375000D02*
X160100000Y-94350000D01*
X160100000Y-94350000D02*
X166410000Y-88040000D01*
X166410000Y-88040000D02*
X166925000Y-88040000D01*
%TO.N,/B2*%
X158500000Y-97000000D02*
X158500000Y-94450000D01*
X158500000Y-94450000D02*
X164425000Y-88525000D01*
X164425000Y-88525000D02*
X164425000Y-87125000D01*
X164425000Y-87125000D02*
X166050000Y-85500000D01*
X166050000Y-85500000D02*
X166925000Y-85500000D01*
%TO.N,/B1*%
X146500000Y-97000000D02*
X149025000Y-94475000D01*
X149025000Y-94475000D02*
X157250000Y-94475000D01*
X157250000Y-94475000D02*
X163625000Y-88100000D01*
X163625000Y-88100000D02*
X163625000Y-86350000D01*
X163625000Y-86350000D02*
X166925000Y-83050000D01*
X166925000Y-83050000D02*
X166925000Y-82960000D01*
%TO.N,/Down*%
X166745000Y-77880000D02*
X166925000Y-77880000D01*
X157625000Y-87000000D02*
X166745000Y-77880000D01*
X156000000Y-87000000D02*
X157625000Y-87000000D01*
%TD*%
M02*
