ISO-10303-21;
HEADER;
/* Generated by software containing ST-Developer
 * from STEP Tools, Inc. (www.steptools.com) 
 */

FILE_DESCRIPTION(
/* description */ (''),
/* implementation_level */ '2;1');

FILE_NAME(
/* name */ 'Speaker (1) v1.step',
/* time_stamp */ '2026-06-20T13:42:36+02:00',
/* author */ (''),
/* organization */ (''),
/* preprocessor_version */ 'ST-DEVELOPER v20.1',
/* originating_system */ 'Autodesk Translation Framework v15.8.0.0',
/* authorisation */ '');

FILE_SCHEMA (('AUTOMOTIVE_DESIGN { 1 0 10303 214 3 1 1 }'));
ENDSEC;

DATA;
#10=MECHANICAL_DESIGN_GEOMETRIC_PRESENTATION_REPRESENTATION('',(#16,#17,
#18,#19,#20,#21,#22,#23),#1428);
#11=SHAPE_REPRESENTATION_RELATIONSHIP('SRR','None',#1435,#12);
#12=ADVANCED_BREP_SHAPE_REPRESENTATION('',(#13),#1427);
#13=MANIFOLD_SOLID_BREP('K\X\F6rper1',#722);
#14=(
BOUNDED_SURFACE()
B_SPLINE_SURFACE(3,2,((#1379,#1380,#1381),(#1382,#1383,#1384),(#1385,#1386,
#1387),(#1388,#1389,#1390),(#1391,#1392,#1393),(#1394,#1395,#1396),(#1397,
#1398,#1399)),.UNSPECIFIED.,.F.,.F.,.F.)
B_SPLINE_SURFACE_WITH_KNOTS((4,1,1,1,4),(3,3),(0.00160055172285905,0.00195479229184748,
0.00230903286083592,0.00266327342982435,0.00301751399881279),(0.,1.),
 .UNSPECIFIED.)
GEOMETRIC_REPRESENTATION_ITEM()
RATIONAL_B_SPLINE_SURFACE(((1.,0.758958520558752,1.),(1.,0.756066085239368,
1.),(1.,0.749462689042904,1.),(1.,0.737664680685623,1.),(1.,0.723438548010155,
1.),(1.,0.712805051199444,1.),(1.,0.707106781186547,1.)))
REPRESENTATION_ITEM('')
SURFACE()
);
#15=(
BOUNDED_SURFACE()
B_SPLINE_SURFACE(3,2,((#1402,#1403,#1404),(#1405,#1406,#1407),(#1408,#1409,
#1410),(#1411,#1412,#1413),(#1414,#1415,#1416),(#1417,#1418,#1419),(#1420,
#1421,#1422)),.UNSPECIFIED.,.F.,.F.,.F.)
B_SPLINE_SURFACE_WITH_KNOTS((4,1,1,1,4),(3,3),(0.00168854333040898,0.00201707662218849,
0.002345609913968,0.00267414320574752,0.00300267649752703),(0.,1.),
 .UNSPECIFIED.)
GEOMETRIC_REPRESENTATION_ITEM()
RATIONAL_B_SPLINE_SURFACE(((1.,0.682556968712278,1.),(1.,0.684435225287807,
1.),(1.,0.688432585607762,1.),(1.,0.694654005558958,1.),(1.,0.70103748021298,
1.),(1.,0.705100953063762,1.),(1.,0.707106781186548,1.)))
REPRESENTATION_ITEM('')
SURFACE()
);
#16=STYLED_ITEM('',(#1445),#715);
#17=STYLED_ITEM('',(#1445),#716);
#18=STYLED_ITEM('',(#1445),#717);
#19=STYLED_ITEM('',(#1445),#718);
#20=STYLED_ITEM('',(#1445),#719);
#21=STYLED_ITEM('',(#1445),#720);
#22=STYLED_ITEM('',(#1445),#721);
#23=STYLED_ITEM('',(#1444),#13);
#24=TOROIDAL_SURFACE('',#780,9.64,0.36);
#25=TOROIDAL_SURFACE('',#783,9.64,0.36);
#26=TOROIDAL_SURFACE('',#805,9.8,0.2);
#27=TOROIDAL_SURFACE('',#807,9.8,0.2);
#28=TOROIDAL_SURFACE('',#810,7.44,0.2);
#29=TOROIDAL_SURFACE('',#817,7.44,0.2);
#30=TOROIDAL_SURFACE('',#818,9.8,0.2);
#31=TOROIDAL_SURFACE('',#819,9.8,0.2);
#32=TOROIDAL_SURFACE('',#824,12.7322419462643,2.5);
#33=TOROIDAL_SURFACE('',#825,8.06506484271025,2.5);
#34=FACE_BOUND('',#119,.T.);
#35=FACE_BOUND('',#122,.T.);
#36=FACE_BOUND('',#130,.T.);
#37=FACE_BOUND('',#132,.T.);
#38=CYLINDRICAL_SURFACE('',#742,11.1803398874989);
#39=CYLINDRICAL_SURFACE('',#744,11.1803398874989);
#40=CYLINDRICAL_SURFACE('',#746,7.24);
#41=CYLINDRICAL_SURFACE('',#750,7.24);
#42=CYLINDRICAL_SURFACE('',#757,10.);
#43=CYLINDRICAL_SURFACE('',#761,10.);
#44=CYLINDRICAL_SURFACE('',#765,11.1803398874989);
#45=CYLINDRICAL_SURFACE('',#770,7.65);
#46=CYLINDRICAL_SURFACE('',#774,6.95);
#47=CYLINDRICAL_SURFACE('',#777,0.36);
#48=CYLINDRICAL_SURFACE('',#786,0.36);
#49=CYLINDRICAL_SURFACE('',#795,10.);
#50=CYLINDRICAL_SURFACE('',#798,10.);
#51=CYLINDRICAL_SURFACE('',#802,0.2);
#52=CYLINDRICAL_SURFACE('',#809,0.2);
#53=CYLINDRICAL_SURFACE('',#813,0.2);
#54=CYLINDRICAL_SURFACE('',#815,0.2);
#55=CYLINDRICAL_SURFACE('',#827,0.7);
#56=CYLINDRICAL_SURFACE('',#829,0.7);
#57=FACE_OUTER_BOUND('',#104,.T.);
#58=FACE_OUTER_BOUND('',#105,.T.);
#59=FACE_OUTER_BOUND('',#106,.T.);
#60=FACE_OUTER_BOUND('',#107,.T.);
#61=FACE_OUTER_BOUND('',#108,.T.);
#62=FACE_OUTER_BOUND('',#109,.T.);
#63=FACE_OUTER_BOUND('',#110,.T.);
#64=FACE_OUTER_BOUND('',#111,.T.);
#65=FACE_OUTER_BOUND('',#112,.T.);
#66=FACE_OUTER_BOUND('',#113,.T.);
#67=FACE_OUTER_BOUND('',#114,.T.);
#68=FACE_OUTER_BOUND('',#115,.T.);
#69=FACE_OUTER_BOUND('',#116,.T.);
#70=FACE_OUTER_BOUND('',#117,.T.);
#71=FACE_OUTER_BOUND('',#118,.T.);
#72=FACE_OUTER_BOUND('',#120,.T.);
#73=FACE_OUTER_BOUND('',#121,.T.);
#74=FACE_OUTER_BOUND('',#123,.T.);
#75=FACE_OUTER_BOUND('',#124,.T.);
#76=FACE_OUTER_BOUND('',#125,.T.);
#77=FACE_OUTER_BOUND('',#126,.T.);
#78=FACE_OUTER_BOUND('',#127,.T.);
#79=FACE_OUTER_BOUND('',#128,.T.);
#80=FACE_OUTER_BOUND('',#129,.T.);
#81=FACE_OUTER_BOUND('',#131,.T.);
#82=FACE_OUTER_BOUND('',#133,.T.);
#83=FACE_OUTER_BOUND('',#134,.T.);
#84=FACE_OUTER_BOUND('',#135,.T.);
#85=FACE_OUTER_BOUND('',#136,.T.);
#86=FACE_OUTER_BOUND('',#137,.T.);
#87=FACE_OUTER_BOUND('',#138,.T.);
#88=FACE_OUTER_BOUND('',#139,.T.);
#89=FACE_OUTER_BOUND('',#140,.T.);
#90=FACE_OUTER_BOUND('',#141,.T.);
#91=FACE_OUTER_BOUND('',#142,.T.);
#92=FACE_OUTER_BOUND('',#143,.T.);
#93=FACE_OUTER_BOUND('',#144,.T.);
#94=FACE_OUTER_BOUND('',#145,.T.);
#95=FACE_OUTER_BOUND('',#146,.T.);
#96=FACE_OUTER_BOUND('',#147,.T.);
#97=FACE_OUTER_BOUND('',#148,.T.);
#98=FACE_OUTER_BOUND('',#149,.T.);
#99=FACE_OUTER_BOUND('',#150,.T.);
#100=FACE_OUTER_BOUND('',#151,.T.);
#101=FACE_OUTER_BOUND('',#152,.T.);
#102=FACE_OUTER_BOUND('',#153,.T.);
#103=FACE_OUTER_BOUND('',#154,.T.);
#104=EDGE_LOOP('',(#457,#458,#459,#460));
#105=EDGE_LOOP('',(#461,#462,#463,#464));
#106=EDGE_LOOP('',(#465,#466,#467,#468,#469));
#107=EDGE_LOOP('',(#470,#471,#472,#473,#474));
#108=EDGE_LOOP('',(#475,#476,#477,#478));
#109=EDGE_LOOP('',(#479,#480,#481,#482));
#110=EDGE_LOOP('',(#483,#484,#485,#486));
#111=EDGE_LOOP('',(#487,#488,#489,#490));
#112=EDGE_LOOP('',(#491,#492));
#113=EDGE_LOOP('',(#493,#494,#495,#496));
#114=EDGE_LOOP('',(#497,#498,#499,#500,#501,#502));
#115=EDGE_LOOP('',(#503,#504,#505,#506));
#116=EDGE_LOOP('',(#507,#508,#509,#510,#511,#512));
#117=EDGE_LOOP('',(#513,#514,#515,#516,#517,#518));
#118=EDGE_LOOP('',(#519,#520,#521,#522,#523,#524));
#119=EDGE_LOOP('',(#525));
#120=EDGE_LOOP('',(#526,#527,#528,#529));
#121=EDGE_LOOP('',(#530));
#122=EDGE_LOOP('',(#531));
#123=EDGE_LOOP('',(#532,#533,#534,#535));
#124=EDGE_LOOP('',(#536));
#125=EDGE_LOOP('',(#537,#538,#539,#540));
#126=EDGE_LOOP('',(#541,#542,#543,#544));
#127=EDGE_LOOP('',(#545,#546,#547,#548));
#128=EDGE_LOOP('',(#549,#550,#551,#552));
#129=EDGE_LOOP('',(#553,#554,#555,#556));
#130=EDGE_LOOP('',(#557,#558,#559,#560));
#131=EDGE_LOOP('',(#561,#562,#563,#564));
#132=EDGE_LOOP('',(#565,#566,#567,#568));
#133=EDGE_LOOP('',(#569,#570,#571,#572));
#134=EDGE_LOOP('',(#573,#574,#575,#576));
#135=EDGE_LOOP('',(#577,#578,#579,#580));
#136=EDGE_LOOP('',(#581,#582,#583,#584));
#137=EDGE_LOOP('',(#585,#586,#587,#588));
#138=EDGE_LOOP('',(#589,#590,#591,#592));
#139=EDGE_LOOP('',(#593,#594,#595,#596));
#140=EDGE_LOOP('',(#597,#598,#599,#600));
#141=EDGE_LOOP('',(#601,#602,#603,#604));
#142=EDGE_LOOP('',(#605,#606,#607,#608));
#143=EDGE_LOOP('',(#609,#610,#611,#612));
#144=EDGE_LOOP('',(#613,#614,#615,#616));
#145=EDGE_LOOP('',(#617,#618,#619,#620));
#146=EDGE_LOOP('',(#621,#622,#623,#624));
#147=EDGE_LOOP('',(#625,#626,#627,#628,#629,#630));
#148=EDGE_LOOP('',(#631,#632,#633,#634));
#149=EDGE_LOOP('',(#635,#636,#637,#638));
#150=EDGE_LOOP('',(#639,#640,#641,#642));
#151=EDGE_LOOP('',(#643,#644,#645));
#152=EDGE_LOOP('',(#646,#647,#648,#649,#650));
#153=EDGE_LOOP('',(#651,#652,#653,#654));
#154=EDGE_LOOP('',(#655,#656,#657,#658));
#155=B_SPLINE_CURVE_WITH_KNOTS('',3,(#1068,#1069,#1070,#1071,#1072,#1073,
#1074,#1075,#1076,#1077,#1078,#1079,#1080,#1081),.UNSPECIFIED.,.F.,.F.,
(4,2,2,2,2,2,4),(0.,0.0275386242309157,0.0624733971617573,0.15035652368834,
0.242043331030987,0.277164947268343,0.311321157220933),.UNSPECIFIED.);
#156=B_SPLINE_CURVE_WITH_KNOTS('',3,(#1090,#1091,#1092,#1093,#1094,#1095,
#1096,#1097,#1098,#1099,#1100,#1101,#1102,#1103,#1104,#1105,#1106,#1107),
 .UNSPECIFIED.,.F.,.F.,(4,2,2,2,2,2,2,2,4),(0.,0.0164282854399916,0.0370473878525948,
0.0766366334810471,0.175751481239716,0.259565251916282,0.307251071339135,
0.331159452245434,0.35332679796843),.UNSPECIFIED.);
#157=B_SPLINE_CURVE_WITH_KNOTS('',3,(#1111,#1112,#1113,#1114,#1115,#1116),
 .UNSPECIFIED.,.F.,.F.,(4,2,4),(1.0519388648967E-6,0.0219702832125995,0.0440678516202819),
 .UNSPECIFIED.);
#158=B_SPLINE_CURVE_WITH_KNOTS('',3,(#1121,#1122,#1123,#1124,#1125,#1126,
#1127,#1128,#1129,#1130,#1131,#1132),.UNSPECIFIED.,.F.,.F.,(4,2,2,2,2,4),
(0.,0.00355147035395318,0.00787360933789398,0.014808366372856,0.0269807560065531,
0.0418869075680221),.UNSPECIFIED.);
#159=B_SPLINE_CURVE_WITH_KNOTS('',3,(#1137,#1138,#1139,#1140),
 .UNSPECIFIED.,.F.,.F.,(4,4),(-0.0156649598531446,0.),.UNSPECIFIED.);
#160=B_SPLINE_CURVE_WITH_KNOTS('',3,(#1142,#1143,#1144,#1145,#1146,#1147,
#1148,#1149,#1150,#1151,#1152,#1153,#1154,#1155),.UNSPECIFIED.,.F.,.F.,
(4,2,2,2,2,2,4),(0.124204214108717,0.126094887980206,0.14550200593954,0.15577604143431,
0.160565672462054,0.162684651901738,0.164710291116544),.UNSPECIFIED.);
#161=B_SPLINE_CURVE_WITH_KNOTS('',3,(#1213,#1214,#1215,#1216,#1217,#1218,
#1219,#1220,#1221,#1222,#1223,#1224),.UNSPECIFIED.,.F.,.F.,(4,2,2,2,2,4),
(0.,0.00355147035395067,0.00787360933788659,0.014808366372876,0.0269807560066537,
0.0418869075682941),.UNSPECIFIED.);
#162=B_SPLINE_CURVE_WITH_KNOTS('',3,(#1225,#1226,#1227,#1228,#1229,#1230,
#1231,#1232,#1233,#1234,#1235,#1236,#1237,#1238),.UNSPECIFIED.,.F.,.F.,
(4,2,2,2,2,2,4),(0.124204214107925,0.126094887979407,0.145502005938664,
0.155776041433392,0.160565672461109,0.162684651900773,0.164710291115572),
 .UNSPECIFIED.);
#163=B_SPLINE_CURVE_WITH_KNOTS('',3,(#1344,#1345,#1346,#1347,#1348,#1349,
#1350,#1351,#1352,#1353),.UNSPECIFIED.,.F.,.F.,(4,2,2,2,4),(-0.207837778835215,
-0.151615084739859,-0.0301483789877108,0.,0.00082348768008837),
 .UNSPECIFIED.);
#164=B_SPLINE_CURVE_WITH_KNOTS('',3,(#1354,#1355,#1356,#1357,#1358,#1359,
#1360),.UNSPECIFIED.,.F.,.F.,(4,1,1,1,4),(1.93947980722443E-18,0.000423315090757984,
0.000846630181515967,0.00126994527227395,0.00169326036303193),
 .UNSPECIFIED.);
#165=B_SPLINE_CURVE_WITH_KNOTS('',3,(#1362,#1363,#1364,#1365,#1366,#1367,
#1368),.UNSPECIFIED.,.F.,.F.,(4,1,1,1,4),(4.00481490562879E-10,0.0004892399955384,
0.000978479991076798,0.0014677199866152,0.00195695998215359),
 .UNSPECIFIED.);
#166=B_SPLINE_CURVE_WITH_KNOTS('',3,(#1369,#1370,#1371,#1372,#1373,#1374,
#1375,#1376,#1377,#1378),.UNSPECIFIED.,.F.,.F.,(4,2,2,2,4),(-0.208365613674927,
-0.145412671762979,-0.0713809936816974,0.,0.000733547340631796),
 .UNSPECIFIED.);
#167=LINE('',#1066,#207);
#168=LINE('',#1088,#208);
#169=LINE('',#1120,#209);
#170=LINE('',#1156,#210);
#171=LINE('',#1160,#211);
#172=LINE('',#1164,#212);
#173=LINE('',#1168,#213);
#174=LINE('',#1170,#214);
#175=LINE('',#1171,#215);
#176=LINE('',#1176,#216);
#177=LINE('',#1179,#217);
#178=LINE('',#1180,#218);
#179=LINE('',#1189,#219);
#180=LINE('',#1193,#220);
#181=LINE('',#1197,#221);
#182=LINE('',#1199,#222);
#183=LINE('',#1200,#223);
#184=LINE('',#1201,#224);
#185=LINE('',#1204,#225);
#186=LINE('',#1208,#226);
#187=LINE('',#1210,#227);
#188=LINE('',#1211,#228);
#189=LINE('',#1246,#229);
#190=LINE('',#1253,#230);
#191=LINE('',#1260,#231);
#192=LINE('',#1271,#232);
#193=LINE('',#1277,#233);
#194=LINE('',#1280,#234);
#195=LINE('',#1286,#235);
#196=LINE('',#1289,#236);
#197=LINE('',#1292,#237);
#198=LINE('',#1296,#238);
#199=LINE('',#1300,#239);
#200=LINE('',#1303,#240);
#201=LINE('',#1306,#241);
#202=LINE('',#1307,#242);
#203=LINE('',#1310,#243);
#204=LINE('',#1313,#244);
#205=LINE('',#1339,#245);
#206=LINE('',#1342,#246);
#207=VECTOR('',#836,1.62313316141781);
#208=VECTOR('',#843,1.66035830082389);
#209=VECTOR('',#850,0.36);
#210=VECTOR('',#855,0.36);
#211=VECTOR('',#858,0.59);
#212=VECTOR('',#861,0.59);
#213=VECTOR('',#866,10.);
#214=VECTOR('',#867,0.59);
#215=VECTOR('',#868,10.);
#216=VECTOR('',#873,0.59);
#217=VECTOR('',#878,10.0000000000001);
#218=VECTOR('',#879,10.0000000000001);
#219=VECTOR('',#888,2.38);
#220=VECTOR('',#891,2.38);
#221=VECTOR('',#896,0.36);
#222=VECTOR('',#897,10.);
#223=VECTOR('',#898,2.38);
#224=VECTOR('',#899,10.);
#225=VECTOR('',#902,2.38);
#226=VECTOR('',#909,10.);
#227=VECTOR('',#910,0.36);
#228=VECTOR('',#911,10.);
#229=VECTOR('',#924,7.65);
#230=VECTOR('',#933,6.95);
#231=VECTOR('',#942,10.);
#232=VECTOR('',#959,10.);
#233=VECTOR('',#964,10.0000000000001);
#234=VECTOR('',#967,10.);
#235=VECTOR('',#972,10.);
#236=VECTOR('',#975,10.0000000000001);
#237=VECTOR('',#976,10.);
#238=VECTOR('',#979,10.0000000000001);
#239=VECTOR('',#984,0.6);
#240=VECTOR('',#987,0.6);
#241=VECTOR('',#990,0.6);
#242=VECTOR('',#991,10.);
#243=VECTOR('',#994,0.6);
#244=VECTOR('',#999,10.0000000000001);
#245=VECTOR('',#1044,0.0149783795956038);
#246=VECTOR('',#1047,0.0188192219835576);
#247=CIRCLE('',#737,9.8);
#248=CIRCLE('',#738,11.1803398874989);
#249=CIRCLE('',#740,11.1803398874989);
#250=CIRCLE('',#741,9.8);
#251=CIRCLE('',#743,11.1803398874989);
#252=CIRCLE('',#745,11.1803398874989);
#253=CIRCLE('',#747,7.24);
#254=CIRCLE('',#748,7.24);
#255=CIRCLE('',#751,7.24);
#256=CIRCLE('',#752,7.24);
#257=CIRCLE('',#755,11.1803398874989);
#258=CIRCLE('',#756,9.8);
#259=CIRCLE('',#758,10.);
#260=CIRCLE('',#759,10.);
#261=CIRCLE('',#762,10.);
#262=CIRCLE('',#763,10.);
#263=CIRCLE('',#766,11.1803398874989);
#264=CIRCLE('',#768,11.1803398874989);
#265=CIRCLE('',#769,7.65);
#266=CIRCLE('',#771,7.65);
#267=CIRCLE('',#773,6.95);
#268=CIRCLE('',#775,6.95);
#269=CIRCLE('',#778,0.36);
#270=CIRCLE('',#779,0.36);
#271=CIRCLE('',#781,9.64);
#272=CIRCLE('',#782,0.36);
#273=CIRCLE('',#784,0.36);
#274=CIRCLE('',#785,9.64);
#275=CIRCLE('',#788,10.);
#276=CIRCLE('',#789,10.);
#277=CIRCLE('',#791,9.8);
#278=CIRCLE('',#792,9.8);
#279=CIRCLE('',#793,7.44);
#280=CIRCLE('',#794,7.44);
#281=CIRCLE('',#796,10.);
#282=CIRCLE('',#799,10.);
#283=CIRCLE('',#803,0.2);
#284=CIRCLE('',#804,0.2);
#285=CIRCLE('',#806,0.2);
#286=CIRCLE('',#808,0.2);
#287=CIRCLE('',#811,0.2);
#288=CIRCLE('',#812,0.2);
#289=CIRCLE('',#814,0.2);
#290=CIRCLE('',#816,0.2);
#291=CIRCLE('',#820,9.8);
#292=CIRCLE('',#822,8.06506484271025);
#293=CIRCLE('',#823,12.7322419462643);
#294=CIRCLE('',#826,0.7);
#295=CIRCLE('',#828,0.7);
#296=VERTEX_POINT('',#1062);
#297=VERTEX_POINT('',#1063);
#298=VERTEX_POINT('',#1065);
#299=VERTEX_POINT('',#1067);
#300=VERTEX_POINT('',#1084);
#301=VERTEX_POINT('',#1085);
#302=VERTEX_POINT('',#1087);
#303=VERTEX_POINT('',#1089);
#304=VERTEX_POINT('',#1110);
#305=VERTEX_POINT('',#1117);
#306=VERTEX_POINT('',#1119);
#307=VERTEX_POINT('',#1134);
#308=VERTEX_POINT('',#1135);
#309=VERTEX_POINT('',#1141);
#310=VERTEX_POINT('',#1158);
#311=VERTEX_POINT('',#1159);
#312=VERTEX_POINT('',#1161);
#313=VERTEX_POINT('',#1163);
#314=VERTEX_POINT('',#1167);
#315=VERTEX_POINT('',#1169);
#316=VERTEX_POINT('',#1173);
#317=VERTEX_POINT('',#1175);
#318=VERTEX_POINT('',#1182);
#319=VERTEX_POINT('',#1183);
#320=VERTEX_POINT('',#1187);
#321=VERTEX_POINT('',#1188);
#322=VERTEX_POINT('',#1190);
#323=VERTEX_POINT('',#1192);
#324=VERTEX_POINT('',#1196);
#325=VERTEX_POINT('',#1198);
#326=VERTEX_POINT('',#1203);
#327=VERTEX_POINT('',#1209);
#328=VERTEX_POINT('',#1242);
#329=VERTEX_POINT('',#1245);
#330=VERTEX_POINT('',#1249);
#331=VERTEX_POINT('',#1252);
#332=VERTEX_POINT('',#1257);
#333=VERTEX_POINT('',#1259);
#334=VERTEX_POINT('',#1263);
#335=VERTEX_POINT('',#1267);
#336=VERTEX_POINT('',#1273);
#337=VERTEX_POINT('',#1274);
#338=VERTEX_POINT('',#1276);
#339=VERTEX_POINT('',#1278);
#340=VERTEX_POINT('',#1282);
#341=VERTEX_POINT('',#1283);
#342=VERTEX_POINT('',#1285);
#343=VERTEX_POINT('',#1287);
#344=VERTEX_POINT('',#1290);
#345=VERTEX_POINT('',#1291);
#346=VERTEX_POINT('',#1293);
#347=VERTEX_POINT('',#1295);
#348=VERTEX_POINT('',#1299);
#349=VERTEX_POINT('',#1301);
#350=VERTEX_POINT('',#1305);
#351=VERTEX_POINT('',#1309);
#352=VERTEX_POINT('',#1335);
#353=VERTEX_POINT('',#1336);
#354=VERTEX_POINT('',#1338);
#355=VERTEX_POINT('',#1340);
#356=EDGE_CURVE('',#296,#297,#247,.T.);
#357=EDGE_CURVE('',#298,#297,#167,.T.);
#358=EDGE_CURVE('',#298,#299,#155,.T.);
#359=EDGE_CURVE('',#296,#299,#248,.T.);
#360=EDGE_CURVE('',#300,#301,#249,.T.);
#361=EDGE_CURVE('',#302,#300,#168,.T.);
#362=EDGE_CURVE('',#302,#303,#156,.T.);
#363=EDGE_CURVE('',#303,#301,#250,.T.);
#364=EDGE_CURVE('',#299,#304,#157,.T.);
#365=EDGE_CURVE('',#305,#304,#251,.T.);
#366=EDGE_CURVE('',#305,#306,#169,.T.);
#367=EDGE_CURVE('',#306,#296,#158,.T.);
#368=EDGE_CURVE('',#307,#308,#252,.T.);
#369=EDGE_CURVE('',#307,#300,#159,.T.);
#370=EDGE_CURVE('',#301,#309,#160,.T.);
#371=EDGE_CURVE('',#308,#309,#170,.T.);
#372=EDGE_CURVE('',#310,#311,#171,.T.);
#373=EDGE_CURVE('',#310,#312,#253,.T.);
#374=EDGE_CURVE('',#312,#313,#172,.T.);
#375=EDGE_CURVE('',#311,#313,#254,.T.);
#376=EDGE_CURVE('',#312,#314,#173,.T.);
#377=EDGE_CURVE('',#314,#315,#174,.T.);
#378=EDGE_CURVE('',#313,#315,#175,.T.);
#379=EDGE_CURVE('',#314,#316,#255,.T.);
#380=EDGE_CURVE('',#316,#317,#176,.T.);
#381=EDGE_CURVE('',#315,#317,#256,.T.);
#382=EDGE_CURVE('',#316,#310,#177,.T.);
#383=EDGE_CURVE('',#317,#311,#178,.T.);
#384=EDGE_CURVE('',#318,#319,#257,.T.);
#385=EDGE_CURVE('',#318,#319,#258,.T.);
#386=EDGE_CURVE('',#320,#321,#179,.T.);
#387=EDGE_CURVE('',#320,#322,#259,.F.);
#388=EDGE_CURVE('',#322,#323,#180,.T.);
#389=EDGE_CURVE('',#323,#321,#260,.T.);
#390=EDGE_CURVE('',#324,#320,#181,.T.);
#391=EDGE_CURVE('',#321,#325,#182,.T.);
#392=EDGE_CURVE('',#306,#325,#183,.T.);
#393=EDGE_CURVE('',#324,#305,#184,.T.);
#394=EDGE_CURVE('',#309,#326,#185,.T.);
#395=EDGE_CURVE('',#309,#306,#261,.F.);
#396=EDGE_CURVE('',#325,#326,#262,.T.);
#397=EDGE_CURVE('',#326,#323,#186,.T.);
#398=EDGE_CURVE('',#327,#322,#187,.T.);
#399=EDGE_CURVE('',#308,#327,#188,.T.);
#400=EDGE_CURVE('',#322,#318,#161,.T.);
#401=EDGE_CURVE('',#319,#320,#162,.T.);
#402=EDGE_CURVE('',#327,#324,#263,.T.);
#403=EDGE_CURVE('',#304,#307,#264,.T.);
#404=EDGE_CURVE('',#328,#328,#265,.T.);
#405=EDGE_CURVE('',#328,#329,#189,.T.);
#406=EDGE_CURVE('',#329,#329,#266,.T.);
#407=EDGE_CURVE('',#330,#330,#267,.T.);
#408=EDGE_CURVE('',#330,#331,#190,.T.);
#409=EDGE_CURVE('',#331,#331,#268,.T.);
#410=EDGE_CURVE('',#332,#321,#269,.T.);
#411=EDGE_CURVE('',#333,#332,#191,.F.);
#412=EDGE_CURVE('',#325,#333,#270,.T.);
#413=EDGE_CURVE('',#334,#333,#271,.F.);
#414=EDGE_CURVE('',#326,#334,#272,.T.);
#415=EDGE_CURVE('',#335,#323,#273,.T.);
#416=EDGE_CURVE('',#332,#335,#274,.F.);
#417=EDGE_CURVE('',#335,#334,#192,.F.);
#418=EDGE_CURVE('',#336,#337,#275,.T.);
#419=EDGE_CURVE('',#338,#336,#193,.T.);
#420=EDGE_CURVE('',#339,#338,#276,.T.);
#421=EDGE_CURVE('',#337,#339,#194,.T.);
#422=EDGE_CURVE('',#340,#341,#277,.T.);
#423=EDGE_CURVE('',#341,#342,#195,.T.);
#424=EDGE_CURVE('',#342,#343,#278,.T.);
#425=EDGE_CURVE('',#343,#340,#196,.T.);
#426=EDGE_CURVE('',#344,#345,#197,.F.);
#427=EDGE_CURVE('',#345,#346,#279,.F.);
#428=EDGE_CURVE('',#346,#347,#198,.F.);
#429=EDGE_CURVE('',#347,#344,#280,.F.);
#430=EDGE_CURVE('',#348,#337,#199,.T.);
#431=EDGE_CURVE('',#348,#349,#281,.F.);
#432=EDGE_CURVE('',#349,#336,#200,.T.);
#433=EDGE_CURVE('',#350,#339,#201,.T.);
#434=EDGE_CURVE('',#350,#348,#202,.F.);
#435=EDGE_CURVE('',#351,#338,#203,.T.);
#436=EDGE_CURVE('',#351,#350,#282,.F.);
#437=EDGE_CURVE('',#349,#351,#204,.F.);
#438=EDGE_CURVE('',#351,#343,#283,.T.);
#439=EDGE_CURVE('',#340,#349,#284,.T.);
#440=EDGE_CURVE('',#341,#348,#285,.T.);
#441=EDGE_CURVE('',#350,#342,#286,.T.);
#442=EDGE_CURVE('',#344,#314,#287,.T.);
#443=EDGE_CURVE('',#316,#347,#288,.T.);
#444=EDGE_CURVE('',#310,#346,#289,.T.);
#445=EDGE_CURVE('',#345,#312,#290,.T.);
#446=EDGE_CURVE('',#297,#303,#291,.T.);
#447=EDGE_CURVE('',#352,#353,#292,.T.);
#448=EDGE_CURVE('',#353,#354,#205,.F.);
#449=EDGE_CURVE('',#354,#355,#293,.F.);
#450=EDGE_CURVE('',#355,#352,#206,.F.);
#451=EDGE_CURVE('',#354,#307,#163,.F.);
#452=EDGE_CURVE('',#304,#355,#164,.T.);
#453=EDGE_CURVE('',#303,#353,#165,.T.);
#454=EDGE_CURVE('',#352,#297,#166,.F.);
#455=EDGE_CURVE('',#353,#302,#294,.T.);
#456=EDGE_CURVE('',#355,#298,#295,.T.);
#457=ORIENTED_EDGE('',*,*,#356,.T.);
#458=ORIENTED_EDGE('',*,*,#357,.F.);
#459=ORIENTED_EDGE('',*,*,#358,.T.);
#460=ORIENTED_EDGE('',*,*,#359,.F.);
#461=ORIENTED_EDGE('',*,*,#360,.F.);
#462=ORIENTED_EDGE('',*,*,#361,.F.);
#463=ORIENTED_EDGE('',*,*,#362,.T.);
#464=ORIENTED_EDGE('',*,*,#363,.T.);
#465=ORIENTED_EDGE('',*,*,#359,.T.);
#466=ORIENTED_EDGE('',*,*,#364,.T.);
#467=ORIENTED_EDGE('',*,*,#365,.F.);
#468=ORIENTED_EDGE('',*,*,#366,.T.);
#469=ORIENTED_EDGE('',*,*,#367,.T.);
#470=ORIENTED_EDGE('',*,*,#368,.F.);
#471=ORIENTED_EDGE('',*,*,#369,.T.);
#472=ORIENTED_EDGE('',*,*,#360,.T.);
#473=ORIENTED_EDGE('',*,*,#370,.T.);
#474=ORIENTED_EDGE('',*,*,#371,.F.);
#475=ORIENTED_EDGE('',*,*,#372,.F.);
#476=ORIENTED_EDGE('',*,*,#373,.T.);
#477=ORIENTED_EDGE('',*,*,#374,.T.);
#478=ORIENTED_EDGE('',*,*,#375,.F.);
#479=ORIENTED_EDGE('',*,*,#374,.F.);
#480=ORIENTED_EDGE('',*,*,#376,.T.);
#481=ORIENTED_EDGE('',*,*,#377,.T.);
#482=ORIENTED_EDGE('',*,*,#378,.F.);
#483=ORIENTED_EDGE('',*,*,#377,.F.);
#484=ORIENTED_EDGE('',*,*,#379,.T.);
#485=ORIENTED_EDGE('',*,*,#380,.T.);
#486=ORIENTED_EDGE('',*,*,#381,.F.);
#487=ORIENTED_EDGE('',*,*,#380,.F.);
#488=ORIENTED_EDGE('',*,*,#382,.T.);
#489=ORIENTED_EDGE('',*,*,#372,.T.);
#490=ORIENTED_EDGE('',*,*,#383,.F.);
#491=ORIENTED_EDGE('',*,*,#384,.F.);
#492=ORIENTED_EDGE('',*,*,#385,.T.);
#493=ORIENTED_EDGE('',*,*,#386,.F.);
#494=ORIENTED_EDGE('',*,*,#387,.T.);
#495=ORIENTED_EDGE('',*,*,#388,.T.);
#496=ORIENTED_EDGE('',*,*,#389,.T.);
#497=ORIENTED_EDGE('',*,*,#390,.T.);
#498=ORIENTED_EDGE('',*,*,#386,.T.);
#499=ORIENTED_EDGE('',*,*,#391,.T.);
#500=ORIENTED_EDGE('',*,*,#392,.F.);
#501=ORIENTED_EDGE('',*,*,#366,.F.);
#502=ORIENTED_EDGE('',*,*,#393,.F.);
#503=ORIENTED_EDGE('',*,*,#394,.F.);
#504=ORIENTED_EDGE('',*,*,#395,.T.);
#505=ORIENTED_EDGE('',*,*,#392,.T.);
#506=ORIENTED_EDGE('',*,*,#396,.T.);
#507=ORIENTED_EDGE('',*,*,#371,.T.);
#508=ORIENTED_EDGE('',*,*,#394,.T.);
#509=ORIENTED_EDGE('',*,*,#397,.T.);
#510=ORIENTED_EDGE('',*,*,#388,.F.);
#511=ORIENTED_EDGE('',*,*,#398,.F.);
#512=ORIENTED_EDGE('',*,*,#399,.F.);
#513=ORIENTED_EDGE('',*,*,#398,.T.);
#514=ORIENTED_EDGE('',*,*,#400,.T.);
#515=ORIENTED_EDGE('',*,*,#384,.T.);
#516=ORIENTED_EDGE('',*,*,#401,.T.);
#517=ORIENTED_EDGE('',*,*,#390,.F.);
#518=ORIENTED_EDGE('',*,*,#402,.F.);
#519=ORIENTED_EDGE('',*,*,#365,.T.);
#520=ORIENTED_EDGE('',*,*,#403,.T.);
#521=ORIENTED_EDGE('',*,*,#368,.T.);
#522=ORIENTED_EDGE('',*,*,#399,.T.);
#523=ORIENTED_EDGE('',*,*,#402,.T.);
#524=ORIENTED_EDGE('',*,*,#393,.T.);
#525=ORIENTED_EDGE('',*,*,#404,.F.);
#526=ORIENTED_EDGE('',*,*,#404,.T.);
#527=ORIENTED_EDGE('',*,*,#405,.T.);
#528=ORIENTED_EDGE('',*,*,#406,.F.);
#529=ORIENTED_EDGE('',*,*,#405,.F.);
#530=ORIENTED_EDGE('',*,*,#406,.T.);
#531=ORIENTED_EDGE('',*,*,#407,.F.);
#532=ORIENTED_EDGE('',*,*,#407,.T.);
#533=ORIENTED_EDGE('',*,*,#408,.T.);
#534=ORIENTED_EDGE('',*,*,#409,.F.);
#535=ORIENTED_EDGE('',*,*,#408,.F.);
#536=ORIENTED_EDGE('',*,*,#409,.T.);
#537=ORIENTED_EDGE('',*,*,#410,.F.);
#538=ORIENTED_EDGE('',*,*,#411,.F.);
#539=ORIENTED_EDGE('',*,*,#412,.F.);
#540=ORIENTED_EDGE('',*,*,#391,.F.);
#541=ORIENTED_EDGE('',*,*,#412,.T.);
#542=ORIENTED_EDGE('',*,*,#413,.F.);
#543=ORIENTED_EDGE('',*,*,#414,.F.);
#544=ORIENTED_EDGE('',*,*,#396,.F.);
#545=ORIENTED_EDGE('',*,*,#410,.T.);
#546=ORIENTED_EDGE('',*,*,#389,.F.);
#547=ORIENTED_EDGE('',*,*,#415,.F.);
#548=ORIENTED_EDGE('',*,*,#416,.F.);
#549=ORIENTED_EDGE('',*,*,#414,.T.);
#550=ORIENTED_EDGE('',*,*,#417,.F.);
#551=ORIENTED_EDGE('',*,*,#415,.T.);
#552=ORIENTED_EDGE('',*,*,#397,.F.);
#553=ORIENTED_EDGE('',*,*,#418,.F.);
#554=ORIENTED_EDGE('',*,*,#419,.F.);
#555=ORIENTED_EDGE('',*,*,#420,.F.);
#556=ORIENTED_EDGE('',*,*,#421,.F.);
#557=ORIENTED_EDGE('',*,*,#413,.T.);
#558=ORIENTED_EDGE('',*,*,#411,.T.);
#559=ORIENTED_EDGE('',*,*,#416,.T.);
#560=ORIENTED_EDGE('',*,*,#417,.T.);
#561=ORIENTED_EDGE('',*,*,#422,.T.);
#562=ORIENTED_EDGE('',*,*,#423,.T.);
#563=ORIENTED_EDGE('',*,*,#424,.T.);
#564=ORIENTED_EDGE('',*,*,#425,.T.);
#565=ORIENTED_EDGE('',*,*,#426,.T.);
#566=ORIENTED_EDGE('',*,*,#427,.T.);
#567=ORIENTED_EDGE('',*,*,#428,.T.);
#568=ORIENTED_EDGE('',*,*,#429,.T.);
#569=ORIENTED_EDGE('',*,*,#430,.F.);
#570=ORIENTED_EDGE('',*,*,#431,.T.);
#571=ORIENTED_EDGE('',*,*,#432,.T.);
#572=ORIENTED_EDGE('',*,*,#418,.T.);
#573=ORIENTED_EDGE('',*,*,#433,.F.);
#574=ORIENTED_EDGE('',*,*,#434,.T.);
#575=ORIENTED_EDGE('',*,*,#430,.T.);
#576=ORIENTED_EDGE('',*,*,#421,.T.);
#577=ORIENTED_EDGE('',*,*,#435,.F.);
#578=ORIENTED_EDGE('',*,*,#436,.T.);
#579=ORIENTED_EDGE('',*,*,#433,.T.);
#580=ORIENTED_EDGE('',*,*,#420,.T.);
#581=ORIENTED_EDGE('',*,*,#432,.F.);
#582=ORIENTED_EDGE('',*,*,#437,.T.);
#583=ORIENTED_EDGE('',*,*,#435,.T.);
#584=ORIENTED_EDGE('',*,*,#419,.T.);
#585=ORIENTED_EDGE('',*,*,#381,.T.);
#586=ORIENTED_EDGE('',*,*,#383,.T.);
#587=ORIENTED_EDGE('',*,*,#375,.T.);
#588=ORIENTED_EDGE('',*,*,#378,.T.);
#589=ORIENTED_EDGE('',*,*,#438,.F.);
#590=ORIENTED_EDGE('',*,*,#437,.F.);
#591=ORIENTED_EDGE('',*,*,#439,.F.);
#592=ORIENTED_EDGE('',*,*,#425,.F.);
#593=ORIENTED_EDGE('',*,*,#439,.T.);
#594=ORIENTED_EDGE('',*,*,#431,.F.);
#595=ORIENTED_EDGE('',*,*,#440,.F.);
#596=ORIENTED_EDGE('',*,*,#422,.F.);
#597=ORIENTED_EDGE('',*,*,#438,.T.);
#598=ORIENTED_EDGE('',*,*,#424,.F.);
#599=ORIENTED_EDGE('',*,*,#441,.F.);
#600=ORIENTED_EDGE('',*,*,#436,.F.);
#601=ORIENTED_EDGE('',*,*,#440,.T.);
#602=ORIENTED_EDGE('',*,*,#434,.F.);
#603=ORIENTED_EDGE('',*,*,#441,.T.);
#604=ORIENTED_EDGE('',*,*,#423,.F.);
#605=ORIENTED_EDGE('',*,*,#442,.F.);
#606=ORIENTED_EDGE('',*,*,#429,.F.);
#607=ORIENTED_EDGE('',*,*,#443,.F.);
#608=ORIENTED_EDGE('',*,*,#379,.F.);
#609=ORIENTED_EDGE('',*,*,#443,.T.);
#610=ORIENTED_EDGE('',*,*,#428,.F.);
#611=ORIENTED_EDGE('',*,*,#444,.F.);
#612=ORIENTED_EDGE('',*,*,#382,.F.);
#613=ORIENTED_EDGE('',*,*,#442,.T.);
#614=ORIENTED_EDGE('',*,*,#376,.F.);
#615=ORIENTED_EDGE('',*,*,#445,.F.);
#616=ORIENTED_EDGE('',*,*,#426,.F.);
#617=ORIENTED_EDGE('',*,*,#444,.T.);
#618=ORIENTED_EDGE('',*,*,#427,.F.);
#619=ORIENTED_EDGE('',*,*,#445,.T.);
#620=ORIENTED_EDGE('',*,*,#373,.F.);
#621=ORIENTED_EDGE('',*,*,#400,.F.);
#622=ORIENTED_EDGE('',*,*,#387,.F.);
#623=ORIENTED_EDGE('',*,*,#401,.F.);
#624=ORIENTED_EDGE('',*,*,#385,.F.);
#625=ORIENTED_EDGE('',*,*,#367,.F.);
#626=ORIENTED_EDGE('',*,*,#395,.F.);
#627=ORIENTED_EDGE('',*,*,#370,.F.);
#628=ORIENTED_EDGE('',*,*,#363,.F.);
#629=ORIENTED_EDGE('',*,*,#446,.F.);
#630=ORIENTED_EDGE('',*,*,#356,.F.);
#631=ORIENTED_EDGE('',*,*,#447,.T.);
#632=ORIENTED_EDGE('',*,*,#448,.T.);
#633=ORIENTED_EDGE('',*,*,#449,.T.);
#634=ORIENTED_EDGE('',*,*,#450,.T.);
#635=ORIENTED_EDGE('',*,*,#449,.F.);
#636=ORIENTED_EDGE('',*,*,#451,.T.);
#637=ORIENTED_EDGE('',*,*,#403,.F.);
#638=ORIENTED_EDGE('',*,*,#452,.T.);
#639=ORIENTED_EDGE('',*,*,#446,.T.);
#640=ORIENTED_EDGE('',*,*,#453,.T.);
#641=ORIENTED_EDGE('',*,*,#447,.F.);
#642=ORIENTED_EDGE('',*,*,#454,.T.);
#643=ORIENTED_EDGE('',*,*,#453,.F.);
#644=ORIENTED_EDGE('',*,*,#362,.F.);
#645=ORIENTED_EDGE('',*,*,#455,.F.);
#646=ORIENTED_EDGE('',*,*,#451,.F.);
#647=ORIENTED_EDGE('',*,*,#448,.F.);
#648=ORIENTED_EDGE('',*,*,#455,.T.);
#649=ORIENTED_EDGE('',*,*,#361,.T.);
#650=ORIENTED_EDGE('',*,*,#369,.F.);
#651=ORIENTED_EDGE('',*,*,#364,.F.);
#652=ORIENTED_EDGE('',*,*,#358,.F.);
#653=ORIENTED_EDGE('',*,*,#456,.F.);
#654=ORIENTED_EDGE('',*,*,#452,.F.);
#655=ORIENTED_EDGE('',*,*,#454,.F.);
#656=ORIENTED_EDGE('',*,*,#450,.F.);
#657=ORIENTED_EDGE('',*,*,#456,.T.);
#658=ORIENTED_EDGE('',*,*,#357,.T.);
#659=PLANE('',#736);
#660=PLANE('',#739);
#661=PLANE('',#749);
#662=PLANE('',#753);
#663=PLANE('',#754);
#664=PLANE('',#760);
#665=PLANE('',#764);
#666=PLANE('',#767);
#667=PLANE('',#772);
#668=PLANE('',#776);
#669=PLANE('',#787);
#670=PLANE('',#790);
#671=PLANE('',#797);
#672=PLANE('',#800);
#673=PLANE('',#801);
#674=PLANE('',#821);
#675=ADVANCED_FACE('',(#57),#659,.T.);
#676=ADVANCED_FACE('',(#58),#660,.T.);
#677=ADVANCED_FACE('',(#59),#38,.T.);
#678=ADVANCED_FACE('',(#60),#39,.T.);
#679=ADVANCED_FACE('',(#61),#40,.F.);
#680=ADVANCED_FACE('',(#62),#661,.T.);
#681=ADVANCED_FACE('',(#63),#41,.F.);
#682=ADVANCED_FACE('',(#64),#662,.T.);
#683=ADVANCED_FACE('',(#65),#663,.T.);
#684=ADVANCED_FACE('',(#66),#42,.T.);
#685=ADVANCED_FACE('',(#67),#664,.F.);
#686=ADVANCED_FACE('',(#68),#43,.T.);
#687=ADVANCED_FACE('',(#69),#665,.F.);
#688=ADVANCED_FACE('',(#70),#44,.T.);
#689=ADVANCED_FACE('',(#71,#34),#666,.T.);
#690=ADVANCED_FACE('',(#72),#45,.T.);
#691=ADVANCED_FACE('',(#73,#35),#667,.T.);
#692=ADVANCED_FACE('',(#74),#46,.F.);
#693=ADVANCED_FACE('',(#75),#668,.T.);
#694=ADVANCED_FACE('',(#76),#47,.T.);
#695=ADVANCED_FACE('',(#77),#24,.T.);
#696=ADVANCED_FACE('',(#78),#25,.T.);
#697=ADVANCED_FACE('',(#79),#48,.T.);
#698=ADVANCED_FACE('',(#80,#36),#669,.F.);
#699=ADVANCED_FACE('',(#81,#37),#670,.T.);
#700=ADVANCED_FACE('',(#82),#49,.T.);
#701=ADVANCED_FACE('',(#83),#671,.F.);
#702=ADVANCED_FACE('',(#84),#50,.T.);
#703=ADVANCED_FACE('',(#85),#672,.F.);
#704=ADVANCED_FACE('',(#86),#673,.F.);
#705=ADVANCED_FACE('',(#87),#51,.T.);
#706=ADVANCED_FACE('',(#88),#26,.T.);
#707=ADVANCED_FACE('',(#89),#27,.T.);
#708=ADVANCED_FACE('',(#90),#52,.T.);
#709=ADVANCED_FACE('',(#91),#28,.T.);
#710=ADVANCED_FACE('',(#92),#53,.T.);
#711=ADVANCED_FACE('',(#93),#54,.T.);
#712=ADVANCED_FACE('',(#94),#29,.T.);
#713=ADVANCED_FACE('',(#95),#30,.T.);
#714=ADVANCED_FACE('',(#96),#31,.T.);
#715=ADVANCED_FACE('',(#97),#674,.T.);
#716=ADVANCED_FACE('',(#98),#32,.T.);
#717=ADVANCED_FACE('',(#99),#33,.T.);
#718=ADVANCED_FACE('',(#100),#14,.T.);
#719=ADVANCED_FACE('',(#101),#55,.T.);
#720=ADVANCED_FACE('',(#102),#15,.T.);
#721=ADVANCED_FACE('',(#103),#56,.T.);
#722=CLOSED_SHELL('',(#675,#676,#677,#678,#679,#680,#681,#682,#683,#684,
#685,#686,#687,#688,#689,#690,#691,#692,#693,#694,#695,#696,#697,#698,#699,
#700,#701,#702,#703,#704,#705,#706,#707,#708,#709,#710,#711,#712,#713,#714,
#715,#716,#717,#718,#719,#720,#721));
#723=DERIVED_UNIT_ELEMENT(#725,1.);
#724=DERIVED_UNIT_ELEMENT(#1430,-3.);
#725=(
MASS_UNIT()
NAMED_UNIT(*)
SI_UNIT(.KILO.,.GRAM.)
);
#726=DERIVED_UNIT((#723,#724));
#727=MEASURE_REPRESENTATION_ITEM('density measure',
POSITIVE_RATIO_MEASURE(7850.),#726);
#728=PROPERTY_DEFINITION_REPRESENTATION(#733,#730);
#729=PROPERTY_DEFINITION_REPRESENTATION(#734,#731);
#730=REPRESENTATION('material name',(#732),#1427);
#731=REPRESENTATION('density',(#727),#1427);
#732=DESCRIPTIVE_REPRESENTATION_ITEM('Stahl','Stahl');
#733=PROPERTY_DEFINITION('material property','material name',#1437);
#734=PROPERTY_DEFINITION('material property','density of part',#1437);
#735=AXIS2_PLACEMENT_3D('',#1060,#830,#831);
#736=AXIS2_PLACEMENT_3D('',#1061,#832,#833);
#737=AXIS2_PLACEMENT_3D('',#1064,#834,#835);
#738=AXIS2_PLACEMENT_3D('',#1082,#837,#838);
#739=AXIS2_PLACEMENT_3D('',#1083,#839,#840);
#740=AXIS2_PLACEMENT_3D('',#1086,#841,#842);
#741=AXIS2_PLACEMENT_3D('',#1108,#844,#845);
#742=AXIS2_PLACEMENT_3D('',#1109,#846,#847);
#743=AXIS2_PLACEMENT_3D('',#1118,#848,#849);
#744=AXIS2_PLACEMENT_3D('',#1133,#851,#852);
#745=AXIS2_PLACEMENT_3D('',#1136,#853,#854);
#746=AXIS2_PLACEMENT_3D('',#1157,#856,#857);
#747=AXIS2_PLACEMENT_3D('',#1162,#859,#860);
#748=AXIS2_PLACEMENT_3D('',#1165,#862,#863);
#749=AXIS2_PLACEMENT_3D('',#1166,#864,#865);
#750=AXIS2_PLACEMENT_3D('',#1172,#869,#870);
#751=AXIS2_PLACEMENT_3D('',#1174,#871,#872);
#752=AXIS2_PLACEMENT_3D('',#1177,#874,#875);
#753=AXIS2_PLACEMENT_3D('',#1178,#876,#877);
#754=AXIS2_PLACEMENT_3D('',#1181,#880,#881);
#755=AXIS2_PLACEMENT_3D('',#1184,#882,#883);
#756=AXIS2_PLACEMENT_3D('',#1185,#884,#885);
#757=AXIS2_PLACEMENT_3D('',#1186,#886,#887);
#758=AXIS2_PLACEMENT_3D('',#1191,#889,#890);
#759=AXIS2_PLACEMENT_3D('',#1194,#892,#893);
#760=AXIS2_PLACEMENT_3D('',#1195,#894,#895);
#761=AXIS2_PLACEMENT_3D('',#1202,#900,#901);
#762=AXIS2_PLACEMENT_3D('',#1205,#903,#904);
#763=AXIS2_PLACEMENT_3D('',#1206,#905,#906);
#764=AXIS2_PLACEMENT_3D('',#1207,#907,#908);
#765=AXIS2_PLACEMENT_3D('',#1212,#912,#913);
#766=AXIS2_PLACEMENT_3D('',#1239,#914,#915);
#767=AXIS2_PLACEMENT_3D('',#1240,#916,#917);
#768=AXIS2_PLACEMENT_3D('',#1241,#918,#919);
#769=AXIS2_PLACEMENT_3D('',#1243,#920,#921);
#770=AXIS2_PLACEMENT_3D('',#1244,#922,#923);
#771=AXIS2_PLACEMENT_3D('',#1247,#925,#926);
#772=AXIS2_PLACEMENT_3D('',#1248,#927,#928);
#773=AXIS2_PLACEMENT_3D('',#1250,#929,#930);
#774=AXIS2_PLACEMENT_3D('',#1251,#931,#932);
#775=AXIS2_PLACEMENT_3D('',#1254,#934,#935);
#776=AXIS2_PLACEMENT_3D('',#1255,#936,#937);
#777=AXIS2_PLACEMENT_3D('',#1256,#938,#939);
#778=AXIS2_PLACEMENT_3D('',#1258,#940,#941);
#779=AXIS2_PLACEMENT_3D('',#1261,#943,#944);
#780=AXIS2_PLACEMENT_3D('',#1262,#945,#946);
#781=AXIS2_PLACEMENT_3D('',#1264,#947,#948);
#782=AXIS2_PLACEMENT_3D('',#1265,#949,#950);
#783=AXIS2_PLACEMENT_3D('',#1266,#951,#952);
#784=AXIS2_PLACEMENT_3D('',#1268,#953,#954);
#785=AXIS2_PLACEMENT_3D('',#1269,#955,#956);
#786=AXIS2_PLACEMENT_3D('',#1270,#957,#958);
#787=AXIS2_PLACEMENT_3D('',#1272,#960,#961);
#788=AXIS2_PLACEMENT_3D('',#1275,#962,#963);
#789=AXIS2_PLACEMENT_3D('',#1279,#965,#966);
#790=AXIS2_PLACEMENT_3D('',#1281,#968,#969);
#791=AXIS2_PLACEMENT_3D('',#1284,#970,#971);
#792=AXIS2_PLACEMENT_3D('',#1288,#973,#974);
#793=AXIS2_PLACEMENT_3D('',#1294,#977,#978);
#794=AXIS2_PLACEMENT_3D('',#1297,#980,#981);
#795=AXIS2_PLACEMENT_3D('',#1298,#982,#983);
#796=AXIS2_PLACEMENT_3D('',#1302,#985,#986);
#797=AXIS2_PLACEMENT_3D('',#1304,#988,#989);
#798=AXIS2_PLACEMENT_3D('',#1308,#992,#993);
#799=AXIS2_PLACEMENT_3D('',#1311,#995,#996);
#800=AXIS2_PLACEMENT_3D('',#1312,#997,#998);
#801=AXIS2_PLACEMENT_3D('',#1314,#1000,#1001);
#802=AXIS2_PLACEMENT_3D('',#1315,#1002,#1003);
#803=AXIS2_PLACEMENT_3D('',#1316,#1004,#1005);
#804=AXIS2_PLACEMENT_3D('',#1317,#1006,#1007);
#805=AXIS2_PLACEMENT_3D('',#1318,#1008,#1009);
#806=AXIS2_PLACEMENT_3D('',#1319,#1010,#1011);
#807=AXIS2_PLACEMENT_3D('',#1320,#1012,#1013);
#808=AXIS2_PLACEMENT_3D('',#1321,#1014,#1015);
#809=AXIS2_PLACEMENT_3D('',#1322,#1016,#1017);
#810=AXIS2_PLACEMENT_3D('',#1323,#1018,#1019);
#811=AXIS2_PLACEMENT_3D('',#1324,#1020,#1021);
#812=AXIS2_PLACEMENT_3D('',#1325,#1022,#1023);
#813=AXIS2_PLACEMENT_3D('',#1326,#1024,#1025);
#814=AXIS2_PLACEMENT_3D('',#1327,#1026,#1027);
#815=AXIS2_PLACEMENT_3D('',#1328,#1028,#1029);
#816=AXIS2_PLACEMENT_3D('',#1329,#1030,#1031);
#817=AXIS2_PLACEMENT_3D('',#1330,#1032,#1033);
#818=AXIS2_PLACEMENT_3D('',#1331,#1034,#1035);
#819=AXIS2_PLACEMENT_3D('',#1332,#1036,#1037);
#820=AXIS2_PLACEMENT_3D('',#1333,#1038,#1039);
#821=AXIS2_PLACEMENT_3D('',#1334,#1040,#1041);
#822=AXIS2_PLACEMENT_3D('',#1337,#1042,#1043);
#823=AXIS2_PLACEMENT_3D('',#1341,#1045,#1046);
#824=AXIS2_PLACEMENT_3D('',#1343,#1048,#1049);
#825=AXIS2_PLACEMENT_3D('',#1361,#1050,#1051);
#826=AXIS2_PLACEMENT_3D('',#1400,#1052,#1053);
#827=AXIS2_PLACEMENT_3D('',#1401,#1054,#1055);
#828=AXIS2_PLACEMENT_3D('',#1423,#1056,#1057);
#829=AXIS2_PLACEMENT_3D('',#1424,#1058,#1059);
#830=DIRECTION('axis',(0.,0.,1.));
#831=DIRECTION('refdir',(1.,0.,0.));
#832=DIRECTION('center_axis',(0.,1.,0.));
#833=DIRECTION('ref_axis',(0.,0.,1.));
#834=DIRECTION('center_axis',(0.,1.,0.));
#835=DIRECTION('ref_axis',(0.,0.,1.));
#836=DIRECTION('',(-0.186356256860774,0.,0.982482236749775));
#837=DIRECTION('center_axis',(0.,1.,0.));
#838=DIRECTION('ref_axis',(0.,0.,1.));
#839=DIRECTION('center_axis',(0.,1.,0.));
#840=DIRECTION('ref_axis',(0.,0.,1.));
#841=DIRECTION('center_axis',(0.,1.,0.));
#842=DIRECTION('ref_axis',(0.,0.,1.));
#843=DIRECTION('',(-0.198961673715449,0.,-0.980007271601771));
#844=DIRECTION('center_axis',(0.,1.,0.));
#845=DIRECTION('ref_axis',(0.,0.,1.));
#846=DIRECTION('center_axis',(0.,-1.,0.));
#847=DIRECTION('ref_axis',(0.,0.,-1.));
#848=DIRECTION('center_axis',(0.,1.,0.));
#849=DIRECTION('ref_axis',(0.,0.,1.));
#850=DIRECTION('',(0.,-1.,0.));
#851=DIRECTION('center_axis',(0.,-1.,0.));
#852=DIRECTION('ref_axis',(0.,0.,-1.));
#853=DIRECTION('center_axis',(0.,1.,0.));
#854=DIRECTION('ref_axis',(0.,0.,1.));
#855=DIRECTION('',(0.,-1.,0.));
#856=DIRECTION('center_axis',(0.,1.,0.));
#857=DIRECTION('ref_axis',(5.20660583828602E-15,0.,-1.));
#858=DIRECTION('',(0.,1.,0.));
#859=DIRECTION('center_axis',(0.,-1.,0.));
#860=DIRECTION('ref_axis',(0.,0.,-1.));
#861=DIRECTION('',(0.,1.,0.));
#862=DIRECTION('center_axis',(0.,-1.,0.));
#863=DIRECTION('ref_axis',(0.,0.,1.));
#864=DIRECTION('center_axis',(-1.,0.,0.));
#865=DIRECTION('ref_axis',(0.,0.,1.));
#866=DIRECTION('',(0.,0.,1.));
#867=DIRECTION('',(0.,1.,0.));
#868=DIRECTION('',(0.,0.,1.));
#869=DIRECTION('center_axis',(0.,1.,0.));
#870=DIRECTION('ref_axis',(0.,0.,1.));
#871=DIRECTION('center_axis',(0.,-1.,0.));
#872=DIRECTION('ref_axis',(0.,0.,-1.));
#873=DIRECTION('',(0.,1.,0.));
#874=DIRECTION('center_axis',(0.,-1.,0.));
#875=DIRECTION('ref_axis',(0.,0.,1.));
#876=DIRECTION('center_axis',(1.,0.,-8.67361737988397E-17));
#877=DIRECTION('ref_axis',(-8.67361737988397E-17,0.,-1.));
#878=DIRECTION('',(-1.11022302462515E-16,0.,-1.));
#879=DIRECTION('',(-1.11022302462515E-16,0.,-1.));
#880=DIRECTION('center_axis',(0.,1.,0.));
#881=DIRECTION('ref_axis',(0.,0.,1.));
#882=DIRECTION('center_axis',(0.,1.,0.));
#883=DIRECTION('ref_axis',(0.,0.,1.));
#884=DIRECTION('center_axis',(0.,1.,0.));
#885=DIRECTION('ref_axis',(0.,0.,1.));
#886=DIRECTION('center_axis',(0.,-1.,0.));
#887=DIRECTION('ref_axis',(0.,0.,-1.));
#888=DIRECTION('',(0.,-1.,0.));
#889=DIRECTION('center_axis',(0.,1.,0.));
#890=DIRECTION('ref_axis',(0.,0.,1.));
#891=DIRECTION('',(0.,-1.,0.));
#892=DIRECTION('center_axis',(0.,1.,0.));
#893=DIRECTION('ref_axis',(0.,0.,1.));
#894=DIRECTION('center_axis',(1.,0.,0.));
#895=DIRECTION('ref_axis',(0.,0.,-1.));
#896=DIRECTION('',(0.,-1.,0.));
#897=DIRECTION('',(0.,0.,1.));
#898=DIRECTION('',(0.,-1.,0.));
#899=DIRECTION('',(0.,0.,1.));
#900=DIRECTION('center_axis',(0.,-1.,0.));
#901=DIRECTION('ref_axis',(1.22464679914735E-16,0.,1.));
#902=DIRECTION('',(0.,-1.,0.));
#903=DIRECTION('center_axis',(0.,1.,0.));
#904=DIRECTION('ref_axis',(0.,0.,1.));
#905=DIRECTION('center_axis',(0.,1.,0.));
#906=DIRECTION('ref_axis',(0.,0.,1.));
#907=DIRECTION('center_axis',(-1.,0.,0.));
#908=DIRECTION('ref_axis',(0.,0.,1.));
#909=DIRECTION('',(0.,0.,-1.));
#910=DIRECTION('',(0.,-1.,0.));
#911=DIRECTION('',(-1.11022302462516E-16,0.,-1.));
#912=DIRECTION('center_axis',(0.,-1.,0.));
#913=DIRECTION('ref_axis',(0.,0.,-1.));
#914=DIRECTION('center_axis',(0.,1.,0.));
#915=DIRECTION('ref_axis',(0.,0.,1.));
#916=DIRECTION('center_axis',(0.,1.,0.));
#917=DIRECTION('ref_axis',(0.,0.,1.));
#918=DIRECTION('center_axis',(0.,1.,0.));
#919=DIRECTION('ref_axis',(0.,0.,1.));
#920=DIRECTION('center_axis',(0.,1.,0.));
#921=DIRECTION('ref_axis',(0.,0.,1.));
#922=DIRECTION('center_axis',(0.,-1.,0.));
#923=DIRECTION('ref_axis',(0.,0.,-1.));
#924=DIRECTION('',(0.,1.,0.));
#925=DIRECTION('center_axis',(0.,1.,0.));
#926=DIRECTION('ref_axis',(0.,0.,1.));
#927=DIRECTION('center_axis',(0.,1.,0.));
#928=DIRECTION('ref_axis',(0.,0.,1.));
#929=DIRECTION('center_axis',(0.,1.,0.));
#930=DIRECTION('ref_axis',(0.,0.,1.));
#931=DIRECTION('center_axis',(0.,-1.,0.));
#932=DIRECTION('ref_axis',(0.,0.,-1.));
#933=DIRECTION('',(0.,-1.,0.));
#934=DIRECTION('center_axis',(0.,1.,0.));
#935=DIRECTION('ref_axis',(0.,0.,1.));
#936=DIRECTION('center_axis',(0.,1.,0.));
#937=DIRECTION('ref_axis',(0.,0.,1.));
#938=DIRECTION('center_axis',(0.,0.,1.));
#939=DIRECTION('ref_axis',(1.,0.,0.));
#940=DIRECTION('center_axis',(0.,0.,-1.));
#941=DIRECTION('ref_axis',(-1.,0.,0.));
#942=DIRECTION('',(0.,0.,1.));
#943=DIRECTION('center_axis',(0.,0.,1.));
#944=DIRECTION('ref_axis',(1.,0.,0.));
#945=DIRECTION('center_axis',(0.,1.,0.));
#946=DIRECTION('ref_axis',(0.,0.,1.));
#947=DIRECTION('center_axis',(0.,1.,0.));
#948=DIRECTION('ref_axis',(0.,0.,1.));
#949=DIRECTION('center_axis',(0.,0.,-1.));
#950=DIRECTION('ref_axis',(-1.,0.,0.));
#951=DIRECTION('center_axis',(0.,1.,0.));
#952=DIRECTION('ref_axis',(-1.22464679914735E-16,0.,-1.));
#953=DIRECTION('center_axis',(0.,0.,1.));
#954=DIRECTION('ref_axis',(1.,0.,0.));
#955=DIRECTION('center_axis',(0.,1.,0.));
#956=DIRECTION('ref_axis',(0.,0.,1.));
#957=DIRECTION('center_axis',(0.,0.,-1.));
#958=DIRECTION('ref_axis',(-1.,0.,0.));
#959=DIRECTION('',(0.,0.,-1.));
#960=DIRECTION('center_axis',(0.,-1.,0.));
#961=DIRECTION('ref_axis',(0.,0.,-1.));
#962=DIRECTION('center_axis',(0.,-1.,0.));
#963=DIRECTION('ref_axis',(0.,0.,-1.));
#964=DIRECTION('',(2.2204460492503E-16,0.,-1.));
#965=DIRECTION('center_axis',(0.,-1.,0.));
#966=DIRECTION('ref_axis',(0.,0.,-1.));
#967=DIRECTION('',(1.11022302462516E-16,0.,1.));
#968=DIRECTION('center_axis',(0.,-1.,0.));
#969=DIRECTION('ref_axis',(0.,0.,-1.));
#970=DIRECTION('center_axis',(0.,-1.,0.));
#971=DIRECTION('ref_axis',(0.,0.,-1.));
#972=DIRECTION('',(1.11022302462516E-16,0.,1.));
#973=DIRECTION('center_axis',(0.,-1.,0.));
#974=DIRECTION('ref_axis',(0.,0.,-1.));
#975=DIRECTION('',(1.11022302462515E-16,0.,-1.));
#976=DIRECTION('',(0.,0.,1.));
#977=DIRECTION('center_axis',(0.,-1.,0.));
#978=DIRECTION('ref_axis',(0.,0.,-1.));
#979=DIRECTION('',(-1.11022302462515E-16,0.,-1.));
#980=DIRECTION('center_axis',(0.,-1.,0.));
#981=DIRECTION('ref_axis',(0.,0.,-1.));
#982=DIRECTION('center_axis',(0.,1.,0.));
#983=DIRECTION('ref_axis',(3.67517835871524E-15,0.,-1.));
#984=DIRECTION('',(0.,1.,0.));
#985=DIRECTION('center_axis',(0.,-1.,0.));
#986=DIRECTION('ref_axis',(0.,0.,-1.));
#987=DIRECTION('',(0.,1.,0.));
#988=DIRECTION('center_axis',(-1.,0.,1.73472347597681E-16));
#989=DIRECTION('ref_axis',(1.73472347597681E-16,0.,1.));
#990=DIRECTION('',(0.,1.,0.));
#991=DIRECTION('',(1.11022302462516E-16,0.,1.));
#992=DIRECTION('center_axis',(0.,1.,0.));
#993=DIRECTION('ref_axis',(0.,0.,1.));
#994=DIRECTION('',(0.,1.,0.));
#995=DIRECTION('center_axis',(0.,-1.,0.));
#996=DIRECTION('ref_axis',(0.,0.,-1.));
#997=DIRECTION('center_axis',(1.,0.,1.73472347597679E-16));
#998=DIRECTION('ref_axis',(1.73472347597679E-16,0.,-1.));
#999=DIRECTION('',(2.2204460492503E-16,0.,-1.));
#1000=DIRECTION('center_axis',(0.,1.,0.));
#1001=DIRECTION('ref_axis',(0.,0.,1.));
#1002=DIRECTION('center_axis',(-1.73472347597679E-16,0.,1.));
#1003=DIRECTION('ref_axis',(1.,0.,1.73472347597679E-16));
#1004=DIRECTION('center_axis',(0.,0.,1.));
#1005=DIRECTION('ref_axis',(1.,0.,0.));
#1006=DIRECTION('center_axis',(4.33680868994201E-15,0.,-1.));
#1007=DIRECTION('ref_axis',(-1.,0.,-4.33680868994201E-15));
#1008=DIRECTION('center_axis',(0.,-1.,0.));
#1009=DIRECTION('ref_axis',(0.,0.,-1.));
#1010=DIRECTION('center_axis',(0.,0.,1.));
#1011=DIRECTION('ref_axis',(1.,0.,0.));
#1012=DIRECTION('center_axis',(0.,-1.,0.));
#1013=DIRECTION('ref_axis',(-1.22464679914735E-16,0.,1.));
#1014=DIRECTION('center_axis',(0.,0.,-1.));
#1015=DIRECTION('ref_axis',(-1.,0.,0.));
#1016=DIRECTION('center_axis',(-1.73472347597681E-16,0.,-1.));
#1017=DIRECTION('ref_axis',(-1.,0.,1.73472347597681E-16));
#1018=DIRECTION('center_axis',(0.,-1.,0.));
#1019=DIRECTION('ref_axis',(1.22464679914735E-16,0.,1.));
#1020=DIRECTION('center_axis',(0.,0.,-1.));
#1021=DIRECTION('ref_axis',(-1.,0.,0.));
#1022=DIRECTION('center_axis',(0.,0.,-1.));
#1023=DIRECTION('ref_axis',(-1.,0.,0.));
#1024=DIRECTION('center_axis',(-8.67361737988397E-17,0.,-1.));
#1025=DIRECTION('ref_axis',(-1.,0.,8.67361737988397E-17));
#1026=DIRECTION('center_axis',(0.,4.33680868994202E-15,-1.));
#1027=DIRECTION('ref_axis',(0.,1.,4.33680868994202E-15));
#1028=DIRECTION('center_axis',(0.,0.,1.));
#1029=DIRECTION('ref_axis',(1.,0.,0.));
#1030=DIRECTION('center_axis',(4.33680868994202E-15,0.,-1.));
#1031=DIRECTION('ref_axis',(-1.,0.,-4.33680868994202E-15));
#1032=DIRECTION('center_axis',(0.,-1.,0.));
#1033=DIRECTION('ref_axis',(0.,0.,-1.));
#1034=DIRECTION('center_axis',(0.,1.,0.));
#1035=DIRECTION('ref_axis',(1.22464679914735E-16,0.,-1.));
#1036=DIRECTION('center_axis',(0.,1.,0.));
#1037=DIRECTION('ref_axis',(0.,0.,1.));
#1038=DIRECTION('center_axis',(0.,1.,0.));
#1039=DIRECTION('ref_axis',(0.,0.,1.));
#1040=DIRECTION('center_axis',(0.,1.,0.));
#1041=DIRECTION('ref_axis',(0.,0.,1.));
#1042=DIRECTION('center_axis',(0.,1.,0.));
#1043=DIRECTION('ref_axis',(0.,0.,1.));
#1044=DIRECTION('',(0.198961673715426,0.,0.980007271601776));
#1045=DIRECTION('center_axis',(0.,1.,0.));
#1046=DIRECTION('ref_axis',(0.,0.,1.));
#1047=DIRECTION('',(0.186356256860794,0.,-0.982482236749771));
#1048=DIRECTION('center_axis',(0.,1.,0.));
#1049=DIRECTION('ref_axis',(0.,0.,1.));
#1050=DIRECTION('center_axis',(0.,-1.,0.));
#1051=DIRECTION('ref_axis',(-0.0141846412552617,0.,0.999899392915337));
#1052=DIRECTION('center_axis',(-0.198961673715379,-2.66283539518158E-14,
-0.980007271601785));
#1053=DIRECTION('ref_axis',(-0.980007271601785,0.,0.198961673715379));
#1054=DIRECTION('center_axis',(-0.198961673715449,0.,-0.980007271601771));
#1055=DIRECTION('ref_axis',(-0.980007271601771,0.,0.198961673715449));
#1056=DIRECTION('center_axis',(-0.186356256788103,0.,0.982482236763559));
#1057=DIRECTION('ref_axis',(0.982482236763559,0.,0.186356256788103));
#1058=DIRECTION('center_axis',(-0.186356256860774,0.,0.982482236749775));
#1059=DIRECTION('ref_axis',(0.982482236749775,0.,0.186356256860774));
#1060=CARTESIAN_POINT('',(0.,0.,0.));
#1061=CARTESIAN_POINT('Origin',(1.73472347597681E-15,2.94,-5.));
#1062=CARTESIAN_POINT('',(-9.79199591503183,2.94,5.396));
#1063=CARTESIAN_POINT('',(-4.51112894492011,2.94,13.6999836575883));
#1064=CARTESIAN_POINT('Origin',(1.73472347597681E-15,2.94,5.));
#1065=CARTESIAN_POINT('',(-4.20864792457169,2.94,12.1052841586158));
#1066=CARTESIAN_POINT('',(-4.20864792457169,2.94,12.1052841586158));
#1067=CARTESIAN_POINT('',(-3.56646234374155,2.93999999871591,10.5962420877175));
#1068=CARTESIAN_POINT('Ctrl Pts',(-4.20864792457169,2.94,12.1052841586158));
#1069=CARTESIAN_POINT('Ctrl Pts',(-4.19154117651392,2.94,12.0150962766609));
#1070=CARTESIAN_POINT('Ctrl Pts',(-4.18135826044924,2.93999999999163,11.9614112846977));
#1071=CARTESIAN_POINT('Ctrl Pts',(-4.16064914265398,2.93999999999163,11.8531673943375));
#1072=CARTESIAN_POINT('Ctrl Pts',(-4.14764410301465,2.9400000000063,11.7859323208961));
#1073=CARTESIAN_POINT('Ctrl Pts',(-4.10287976368487,2.9400000000063,11.5649763868824));
#1074=CARTESIAN_POINT('Ctrl Pts',(-4.06956761684427,2.94000000000292,11.4187485016034));
#1075=CARTESIAN_POINT('Ctrl Pts',(-3.98298011106746,2.94000000000292,11.1412892453002));
#1076=CARTESIAN_POINT('Ctrl Pts',(-3.92155223469462,2.94,10.9873486247569));
#1077=CARTESIAN_POINT('Ctrl Pts',(-3.79432019918164,2.94,10.800440674474));
#1078=CARTESIAN_POINT('Ctrl Pts',(-3.75465623525665,2.93999999997841,10.751533681063));
#1079=CARTESIAN_POINT('Ctrl Pts',(-3.66677349387725,2.93999999997841,10.6649011323233));
#1080=CARTESIAN_POINT('Ctrl Pts',(-3.61887506141373,2.94,10.626969219937));
#1081=CARTESIAN_POINT('Ctrl Pts',(-3.56646234239132,2.94,10.5962420900206));
#1082=CARTESIAN_POINT('Origin',(0.,2.94,0.));
#1083=CARTESIAN_POINT('Origin',(1.73472347597681E-15,2.94,-5.));
#1084=CARTESIAN_POINT('',(3.9,2.94,10.4780723418003));
#1085=CARTESIAN_POINT('',(9.79199591503183,2.94,5.396));
#1086=CARTESIAN_POINT('Origin',(0.,2.94,0.));
#1087=CARTESIAN_POINT('',(4.23034766649926,2.94,12.1052355500721));
#1088=CARTESIAN_POINT('',(4.23034766649926,2.94,12.1052355500721));
#1089=CARTESIAN_POINT('',(3.99819341778229,2.9399999871749,13.9473146015825));
#1090=CARTESIAN_POINT('Ctrl Pts',(4.23034766649927,2.94,12.1052355500721));
#1091=CARTESIAN_POINT('Ctrl Pts',(4.24124299705732,2.94,12.1589016807092));
#1092=CARTESIAN_POINT('Ctrl Pts',(4.24773998384496,2.94,12.1909032927609));
#1093=CARTESIAN_POINT('Ctrl Pts',(4.26071473627508,2.94,12.2549095336515));
#1094=CARTESIAN_POINT('Ctrl Pts',(4.26888492104512,2.94,12.2952912406116));
#1095=CARTESIAN_POINT('Ctrl Pts',(4.29074050985284,2.94,12.4042785525998));
#1096=CARTESIAN_POINT('Ctrl Pts',(4.30638158656026,2.94,12.4835411241142));
#1097=CARTESIAN_POINT('Ctrl Pts',(4.35442235233439,2.94,12.7450235897927));
#1098=CARTESIAN_POINT('Ctrl Pts',(4.38021307956906,2.94000000003843,12.9202489957476));
#1099=CARTESIAN_POINT('Ctrl Pts',(4.38929692087153,2.94000000003843,13.2285114479197));
#1100=CARTESIAN_POINT('Ctrl Pts',(4.37978534237036,2.94,13.4070864589566));
#1101=CARTESIAN_POINT('Ctrl Pts',(4.28400000569888,2.94,13.6690171230544));
#1102=CARTESIAN_POINT('Ctrl Pts',(4.23767035881773,2.94,13.746379170193));
#1103=CARTESIAN_POINT('Ctrl Pts',(4.15754080382767,2.94,13.8380949443422));
#1104=CARTESIAN_POINT('Ctrl Pts',(4.12784985013764,2.94000000000185,13.8659506320432));
#1105=CARTESIAN_POINT('Ctrl Pts',(4.06501904717652,2.94000000000185,13.9127374795862));
#1106=CARTESIAN_POINT('Ctrl Pts',(4.03259024375135,2.94,13.9319421063231));
#1107=CARTESIAN_POINT('Ctrl Pts',(3.99819322054055,2.94,13.9473140192323));
#1108=CARTESIAN_POINT('Origin',(1.73472347597681E-15,2.94,5.));
#1109=CARTESIAN_POINT('Origin',(0.,3.1,0.));
#1110=CARTESIAN_POINT('',(-3.18779961248704,3.1,10.7162462472));
#1111=CARTESIAN_POINT('Ctrl Pts',(-3.56646234193378,2.93999999708478,10.5962420868706));
#1112=CARTESIAN_POINT('Ctrl Pts',(-3.5144821598191,2.98852547260381,10.6137374744353));
#1113=CARTESIAN_POINT('Ctrl Pts',(-3.45590290612292,3.02857275002731,10.6330282891188));
#1114=CARTESIAN_POINT('Ctrl Pts',(-3.32689929302112,3.08474833997136,10.6740971499384));
#1115=CARTESIAN_POINT('Ctrl Pts',(-3.25814574795976,3.09993715453677,10.6953201338492));
#1116=CARTESIAN_POINT('Ctrl Pts',(-3.18779961592649,3.09993422065105,10.7162462461768));
#1117=CARTESIAN_POINT('',(-10.,3.1,5.));
#1118=CARTESIAN_POINT('Origin',(0.,3.1,0.));
#1119=CARTESIAN_POINT('',(-10.,2.74,5.));
#1120=CARTESIAN_POINT('',(-10.,3.1,5.));
#1121=CARTESIAN_POINT('Ctrl Pts',(-10.,2.74,5.));
#1122=CARTESIAN_POINT('Ctrl Pts',(-10.,2.75183823451318,5.));
#1123=CARTESIAN_POINT('Ctrl Pts',(-9.99894874065501,2.76343782439558,5.00210391272812));
#1124=CARTESIAN_POINT('Ctrl Pts',(-9.9945683703693,2.78830548354929,5.01085141764727));
#1125=CARTESIAN_POINT('Ctrl Pts',(-9.99088360557297,2.80087271087998,5.01820091686305));
#1126=CARTESIAN_POINT('Ctrl Pts',(-9.97943010179285,2.83031279578772,5.04095438481082));
#1127=CARTESIAN_POINT('Ctrl Pts',(-9.97032550519101,2.84576029595357,5.05895711257446));
#1128=CARTESIAN_POINT('Ctrl Pts',(-9.9441449352779,2.88081792000016,5.11031605625747));
#1129=CARTESIAN_POINT('Ctrl Pts',(-9.92267535567277,2.89968207590196,5.1520432968688));
#1130=CARTESIAN_POINT('Ctrl Pts',(-9.86565340926946,2.93093958277476,5.2605547383491));
#1131=CARTESIAN_POINT('Ctrl Pts',(-9.82954223669197,2.94,5.32786556183829));
#1132=CARTESIAN_POINT('Ctrl Pts',(-9.79199591503182,2.94,5.396));
#1133=CARTESIAN_POINT('Origin',(0.,3.1,0.));
#1134=CARTESIAN_POINT('',(3.88241627243991,3.1,10.4846003208274));
#1135=CARTESIAN_POINT('',(10.,3.1,5.));
#1136=CARTESIAN_POINT('Origin',(0.,3.1,0.));
#1137=CARTESIAN_POINT('Ctrl Pts',(3.88241627243991,3.1,10.4846003208274));
#1138=CARTESIAN_POINT('Ctrl Pts',(3.89433198543405,3.04652438411871,10.4801879677943));
#1139=CARTESIAN_POINT('Ctrl Pts',(3.9,2.99221653284381,10.4780723418003));
#1140=CARTESIAN_POINT('Ctrl Pts',(3.9,2.94,10.4780723418003));
#1141=CARTESIAN_POINT('',(10.,2.74,5.));
#1142=CARTESIAN_POINT('Ctrl Pts',(9.79199591503183,2.94,5.396));
#1143=CARTESIAN_POINT('Ctrl Pts',(9.79697660806703,2.94,5.38696165199134));
#1144=CARTESIAN_POINT('Ctrl Pts',(9.80196233066778,2.93984054350493,5.37788454131148));
#1145=CARTESIAN_POINT('Ctrl Pts',(9.85809157194564,2.93620745538148,5.27535545446161));
#1146=CARTESIAN_POINT('Ctrl Pts',(9.90523652813994,2.9159298690625,5.18576721518601));
#1147=CARTESIAN_POINT('Ctrl Pts',(9.95897263540603,2.86369374877478,5.0813891226733));
#1148=CARTESIAN_POINT('Ctrl Pts',(9.97382090843242,2.84211520025679,5.05207043937201));
#1149=CARTESIAN_POINT('Ctrl Pts',(9.98885698118599,2.80688389786135,5.0222354640118));
#1150=CARTESIAN_POINT('Ctrl Pts',(9.99307952687008,2.7941268379638,5.01382127009477));
#1151=CARTESIAN_POINT('Ctrl Pts',(9.9972746383144,2.77352380118314,5.00544783787685));
#1152=CARTESIAN_POINT('Ctrl Pts',(9.99830137112835,2.7669137059108,5.00339605628499));
#1153=CARTESIAN_POINT('Ctrl Pts',(9.99965815452556,2.75343450160911,5.00068385218099));
#1154=CARTESIAN_POINT('Ctrl Pts',(10.,2.74675213071602,5.));
#1155=CARTESIAN_POINT('Ctrl Pts',(10.,2.74,5.));
#1156=CARTESIAN_POINT('',(10.,3.1,5.));
#1157=CARTESIAN_POINT('Origin',(8.67361737988404E-16,-0.8,-5.00000000000004));
#1158=CARTESIAN_POINT('',(-7.24,-0.6,-5.00000000000007));
#1159=CARTESIAN_POINT('',(-7.24,-0.01,-5.00000000000007));
#1160=CARTESIAN_POINT('',(-7.24,-0.6,-5.00000000000007));
#1161=CARTESIAN_POINT('',(7.24,-0.6,-5.));
#1162=CARTESIAN_POINT('Origin',(8.67361737988404E-16,-0.6,-5.00000000000004));
#1163=CARTESIAN_POINT('',(7.24,-0.01,-5.00000000000004));
#1164=CARTESIAN_POINT('',(7.24,-0.6,-5.));
#1165=CARTESIAN_POINT('Origin',(4.33680868994202E-16,-0.01,-5.00000000000005));
#1166=CARTESIAN_POINT('Origin',(7.24,-0.8,-5.));
#1167=CARTESIAN_POINT('',(7.24,-0.6,5.));
#1168=CARTESIAN_POINT('',(7.24,-0.6,-5.));
#1169=CARTESIAN_POINT('',(7.24,-0.01,5.));
#1170=CARTESIAN_POINT('',(7.24,-0.6,5.));
#1171=CARTESIAN_POINT('',(7.24,-0.01,-5.00000000000004));
#1172=CARTESIAN_POINT('Origin',(8.67361737988404E-16,-0.8,5.));
#1173=CARTESIAN_POINT('',(-7.24,-0.6,5.));
#1174=CARTESIAN_POINT('Origin',(8.67361737988404E-16,-0.6,5.));
#1175=CARTESIAN_POINT('',(-7.24,-0.01,5.));
#1176=CARTESIAN_POINT('',(-7.24,-0.6,5.));
#1177=CARTESIAN_POINT('Origin',(4.33680868994202E-16,-0.01,5.));
#1178=CARTESIAN_POINT('Origin',(-7.24,-0.8,5.));
#1179=CARTESIAN_POINT('',(-7.24,-0.6,5.));
#1180=CARTESIAN_POINT('',(-7.24,-0.01,5.));
#1181=CARTESIAN_POINT('Origin',(1.73472347597681E-15,2.94,-5.));
#1182=CARTESIAN_POINT('',(9.79199591503183,2.94,-5.396));
#1183=CARTESIAN_POINT('',(-9.79199591503183,2.94,-5.396));
#1184=CARTESIAN_POINT('Origin',(0.,2.94,0.));
#1185=CARTESIAN_POINT('Origin',(1.73472347597681E-15,2.94,-5.));
#1186=CARTESIAN_POINT('Origin',(1.73472347597681E-15,2.94,-5.));
#1187=CARTESIAN_POINT('',(-10.,2.74,-5.));
#1188=CARTESIAN_POINT('',(-10.,0.36,-5.));
#1189=CARTESIAN_POINT('',(-10.,2.74,-5.));
#1190=CARTESIAN_POINT('',(10.,2.74,-5.));
#1191=CARTESIAN_POINT('Origin',(1.73472347597681E-15,2.74,-5.));
#1192=CARTESIAN_POINT('',(10.,0.36,-5.));
#1193=CARTESIAN_POINT('',(10.,2.74,-5.));
#1194=CARTESIAN_POINT('Origin',(1.73472347597681E-15,0.36,-5.));
#1195=CARTESIAN_POINT('Origin',(-10.,2.94,-5.));
#1196=CARTESIAN_POINT('',(-10.,3.1,-5.));
#1197=CARTESIAN_POINT('',(-10.,3.1,-5.));
#1198=CARTESIAN_POINT('',(-10.,0.36,5.));
#1199=CARTESIAN_POINT('',(-10.,0.36,-5.));
#1200=CARTESIAN_POINT('',(-10.,2.74,5.));
#1201=CARTESIAN_POINT('',(-10.,3.1,-5.));
#1202=CARTESIAN_POINT('Origin',(1.73472347597681E-15,2.94,5.));
#1203=CARTESIAN_POINT('',(10.,0.36,5.));
#1204=CARTESIAN_POINT('',(10.,2.74,5.));
#1205=CARTESIAN_POINT('Origin',(1.73472347597681E-15,2.74,5.));
#1206=CARTESIAN_POINT('Origin',(1.73472347597681E-15,0.36,5.));
#1207=CARTESIAN_POINT('Origin',(10.,2.94,-5.));
#1208=CARTESIAN_POINT('',(10.,0.36,5.));
#1209=CARTESIAN_POINT('',(10.,3.1,-5.));
#1210=CARTESIAN_POINT('',(10.,3.1,-5.));
#1211=CARTESIAN_POINT('',(10.,3.1,5.));
#1212=CARTESIAN_POINT('Origin',(0.,3.1,0.));
#1213=CARTESIAN_POINT('Ctrl Pts',(10.,2.74,-4.99999999999999));
#1214=CARTESIAN_POINT('Ctrl Pts',(10.,2.75183823451317,-4.99999999999999));
#1215=CARTESIAN_POINT('Ctrl Pts',(9.99894874065502,2.76343782439555,-5.00210391272809));
#1216=CARTESIAN_POINT('Ctrl Pts',(9.9945683703693,2.78830548354933,-5.01085141764727));
#1217=CARTESIAN_POINT('Ctrl Pts',(9.99088360557295,2.80087271088004,-5.01820091686309));
#1218=CARTESIAN_POINT('Ctrl Pts',(9.97943010179285,2.83031279578772,-5.04095438481082));
#1219=CARTESIAN_POINT('Ctrl Pts',(9.97032550519103,2.84576029595356,-5.05895711257442));
#1220=CARTESIAN_POINT('Ctrl Pts',(9.94414493527784,2.88081792000025,-5.11031605625758));
#1221=CARTESIAN_POINT('Ctrl Pts',(9.92267535567267,2.89968207590202,-5.15204329686899));
#1222=CARTESIAN_POINT('Ctrl Pts',(9.86565340926944,2.93093958277478,-5.26055473834914));
#1223=CARTESIAN_POINT('Ctrl Pts',(9.82954223669194,2.94,-5.32786556183834));
#1224=CARTESIAN_POINT('Ctrl Pts',(9.79199591503183,2.94,-5.396));
#1225=CARTESIAN_POINT('Ctrl Pts',(-9.79199591503182,2.94,-5.396));
#1226=CARTESIAN_POINT('Ctrl Pts',(-9.79697660806702,2.94,-5.38696165199135));
#1227=CARTESIAN_POINT('Ctrl Pts',(-9.80196233066778,2.93984054350493,-5.37788454131149));
#1228=CARTESIAN_POINT('Ctrl Pts',(-9.8580915719456,2.93620745538148,-5.27535545446169));
#1229=CARTESIAN_POINT('Ctrl Pts',(-9.90523652813991,2.91592986906252,-5.18576721518607));
#1230=CARTESIAN_POINT('Ctrl Pts',(-9.95897263540604,2.86369374877476,-5.08138912267329));
#1231=CARTESIAN_POINT('Ctrl Pts',(-9.97382090843242,2.84211520025678,-5.05207043937201));
#1232=CARTESIAN_POINT('Ctrl Pts',(-9.98885698118598,2.80688389786138,-5.02223546401183));
#1233=CARTESIAN_POINT('Ctrl Pts',(-9.99307952687007,2.79412683796382,-5.01382127009478));
#1234=CARTESIAN_POINT('Ctrl Pts',(-9.99727463831439,2.77352380118316,-5.00544783787686));
#1235=CARTESIAN_POINT('Ctrl Pts',(-9.99830137112835,2.76691370591081,-5.00339605628499));
#1236=CARTESIAN_POINT('Ctrl Pts',(-9.99965815452556,2.75343450160906,-5.00068385218098));
#1237=CARTESIAN_POINT('Ctrl Pts',(-10.,2.746752130716,-5.));
#1238=CARTESIAN_POINT('Ctrl Pts',(-10.,2.74,-5.));
#1239=CARTESIAN_POINT('Origin',(0.,3.1,0.));
#1240=CARTESIAN_POINT('Origin',(0.,3.1,0.));
#1241=CARTESIAN_POINT('Origin',(0.,3.1,0.));
#1242=CARTESIAN_POINT('',(0.,3.1,7.65));
#1243=CARTESIAN_POINT('Origin',(0.,3.1,0.));
#1244=CARTESIAN_POINT('Origin',(0.,4.,0.));
#1245=CARTESIAN_POINT('',(0.,4.,7.65));
#1246=CARTESIAN_POINT('',(-9.36854801347725E-16,4.,7.65));
#1247=CARTESIAN_POINT('Origin',(0.,4.,0.));
#1248=CARTESIAN_POINT('Origin',(0.,4.,0.));
#1249=CARTESIAN_POINT('',(0.,4.,6.95));
#1250=CARTESIAN_POINT('Origin',(0.,4.,0.));
#1251=CARTESIAN_POINT('Origin',(0.,4.,0.));
#1252=CARTESIAN_POINT('',(0.,3.1,6.95));
#1253=CARTESIAN_POINT('',(-8.51129525407411E-16,4.,6.95));
#1254=CARTESIAN_POINT('Origin',(0.,3.1,0.));
#1255=CARTESIAN_POINT('Origin',(0.,3.1,0.));
#1256=CARTESIAN_POINT('Origin',(-9.64,0.36,-5.));
#1257=CARTESIAN_POINT('',(-9.64,0.,-5.));
#1258=CARTESIAN_POINT('Origin',(-9.64,0.36,-5.));
#1259=CARTESIAN_POINT('',(-9.64,0.,5.));
#1260=CARTESIAN_POINT('',(-9.64,0.,-5.));
#1261=CARTESIAN_POINT('Origin',(-9.64,0.36,5.));
#1262=CARTESIAN_POINT('Origin',(1.73472347597681E-15,0.36,5.));
#1263=CARTESIAN_POINT('',(9.64,5.42101086242752E-17,5.));
#1264=CARTESIAN_POINT('Origin',(1.73472347597681E-15,0.,5.));
#1265=CARTESIAN_POINT('Origin',(9.64,0.36,5.));
#1266=CARTESIAN_POINT('Origin',(1.73472347597681E-15,0.36,-5.));
#1267=CARTESIAN_POINT('',(9.64,0.,-5.));
#1268=CARTESIAN_POINT('Origin',(9.64,0.36,-5.));
#1269=CARTESIAN_POINT('Origin',(1.73472347597681E-15,0.,-5.));
#1270=CARTESIAN_POINT('Origin',(9.64,0.36,-5.));
#1271=CARTESIAN_POINT('',(9.64,0.,5.));
#1272=CARTESIAN_POINT('Origin',(8.67361737988404E-16,0.,-5.00000000000004));
#1273=CARTESIAN_POINT('',(-10.,0.,-5.00000000000007));
#1274=CARTESIAN_POINT('',(10.,0.,-5.));
#1275=CARTESIAN_POINT('Origin',(8.67361737988404E-16,0.,-5.00000000000004));
#1276=CARTESIAN_POINT('',(-10.,0.,5.));
#1277=CARTESIAN_POINT('',(-10.,0.,5.));
#1278=CARTESIAN_POINT('',(10.,0.,5.));
#1279=CARTESIAN_POINT('Origin',(8.67361737988404E-16,0.,5.));
#1280=CARTESIAN_POINT('',(10.,0.,-5.));
#1281=CARTESIAN_POINT('Origin',(8.67361737988404E-16,-0.8,-5.00000000000004));
#1282=CARTESIAN_POINT('',(-9.8,-0.8,-5.00000000000007));
#1283=CARTESIAN_POINT('',(9.8,-0.8,-5.));
#1284=CARTESIAN_POINT('Origin',(8.67361737988404E-16,-0.8,-5.00000000000004));
#1285=CARTESIAN_POINT('',(9.8,-0.8,5.));
#1286=CARTESIAN_POINT('',(9.8,-0.8,-5.));
#1287=CARTESIAN_POINT('',(-9.8,-0.8,5.));
#1288=CARTESIAN_POINT('Origin',(8.67361737988404E-16,-0.8,5.));
#1289=CARTESIAN_POINT('',(-9.8,-0.8,5.));
#1290=CARTESIAN_POINT('',(7.44,-0.8,5.));
#1291=CARTESIAN_POINT('',(7.44,-0.8,-5.));
#1292=CARTESIAN_POINT('',(7.44,-0.8,-5.));
#1293=CARTESIAN_POINT('',(-7.44,-0.8,-5.00000000000007));
#1294=CARTESIAN_POINT('Origin',(8.67361737988404E-16,-0.8,-5.00000000000004));
#1295=CARTESIAN_POINT('',(-7.44,-0.8,5.));
#1296=CARTESIAN_POINT('',(-7.44,-0.8,5.));
#1297=CARTESIAN_POINT('Origin',(8.67361737988404E-16,-0.8,5.));
#1298=CARTESIAN_POINT('Origin',(8.67361737988404E-16,-0.8,-5.00000000000004));
#1299=CARTESIAN_POINT('',(10.,-0.6,-5.));
#1300=CARTESIAN_POINT('',(10.,-0.6,-5.));
#1301=CARTESIAN_POINT('',(-10.,-0.6,-5.00000000000007));
#1302=CARTESIAN_POINT('Origin',(8.67361737988404E-16,-0.6,-5.00000000000004));
#1303=CARTESIAN_POINT('',(-10.,-0.6,-5.00000000000007));
#1304=CARTESIAN_POINT('Origin',(10.,-0.8,-5.));
#1305=CARTESIAN_POINT('',(10.,-0.6,5.));
#1306=CARTESIAN_POINT('',(10.,-0.6,5.));
#1307=CARTESIAN_POINT('',(10.,-0.6,-5.));
#1308=CARTESIAN_POINT('Origin',(8.67361737988404E-16,-0.8,5.));
#1309=CARTESIAN_POINT('',(-10.,-0.6,5.));
#1310=CARTESIAN_POINT('',(-10.,-0.6,5.));
#1311=CARTESIAN_POINT('Origin',(8.67361737988404E-16,-0.6,5.));
#1312=CARTESIAN_POINT('Origin',(-10.,-0.8,5.));
#1313=CARTESIAN_POINT('',(-10.,-0.6,5.));
#1314=CARTESIAN_POINT('Origin',(4.33680868994202E-16,-0.01,5.));
#1315=CARTESIAN_POINT('Origin',(-9.8,-0.6,-5.00000000000004));
#1316=CARTESIAN_POINT('Origin',(-9.8,-0.6,5.));
#1317=CARTESIAN_POINT('Origin',(-9.8,-0.6,-5.00000000000007));
#1318=CARTESIAN_POINT('Origin',(8.67361737988404E-16,-0.6,-5.00000000000004));
#1319=CARTESIAN_POINT('Origin',(9.8,-0.6,-5.));
#1320=CARTESIAN_POINT('Origin',(8.67361737988404E-16,-0.6,5.));
#1321=CARTESIAN_POINT('Origin',(9.8,-0.6,5.));
#1322=CARTESIAN_POINT('Origin',(9.8,-0.6,-5.00000000000004));
#1323=CARTESIAN_POINT('Origin',(8.67361737988404E-16,-0.6,5.));
#1324=CARTESIAN_POINT('Origin',(7.44,-0.6,5.));
#1325=CARTESIAN_POINT('Origin',(-7.44,-0.6,5.));
#1326=CARTESIAN_POINT('Origin',(-7.44,-0.6,5.));
#1327=CARTESIAN_POINT('Origin',(-7.44,-0.6,-5.00000000000007));
#1328=CARTESIAN_POINT('Origin',(7.44,-0.6,-5.));
#1329=CARTESIAN_POINT('Origin',(7.44,-0.6,-5.));
#1330=CARTESIAN_POINT('Origin',(8.67361737988404E-16,-0.6,-5.00000000000004));
#1331=CARTESIAN_POINT('Origin',(1.73472347597681E-15,2.74,-5.));
#1332=CARTESIAN_POINT('Origin',(1.73472347597681E-15,2.74,5.));
#1333=CARTESIAN_POINT('Origin',(1.73472347597681E-15,2.94,5.));
#1334=CARTESIAN_POINT('Origin',(0.,3.64,0.));
#1335=CARTESIAN_POINT('',(-3.52441743861273,3.64,12.2542230897267));
#1336=CARTESIAN_POINT('',(3.54434257637805,3.64,12.2445087216729));
#1337=CARTESIAN_POINT('Origin',(1.73472347597681E-15,3.64,5.));
#1338=CARTESIAN_POINT('',(3.54136245290414,3.64,12.2298298007524));
#1339=CARTESIAN_POINT('',(3.54136245290414,3.64,12.2298298007524));
#1340=CARTESIAN_POINT('',(-3.52091035884684,3.64,12.2357335384184));
#1341=CARTESIAN_POINT('Origin',(0.,3.64,0.));
#1342=CARTESIAN_POINT('',(-3.52441743861273,3.64,12.2542230897267));
#1343=CARTESIAN_POINT('Origin',(0.,1.14,0.));
#1344=CARTESIAN_POINT('Ctrl Pts',(3.88241627243991,3.1,10.4846003208274));
#1345=CARTESIAN_POINT('Ctrl Pts',(3.88503420301805,3.18316249143009,10.5956320328372));
#1346=CARTESIAN_POINT('Ctrl Pts',(3.87574382964479,3.26182921521287,10.7233600590365));
#1347=CARTESIAN_POINT('Ctrl Pts',(3.81396486055627,3.48450966585735,11.1763753004349));
#1348=CARTESIAN_POINT('Ctrl Pts',(3.72627951437389,3.58981354621362,11.5415693691847));
#1349=CARTESIAN_POINT('Ctrl Pts',(3.59658855389903,3.63510489057575,12.0279089485794));
#1350=CARTESIAN_POINT('Ctrl Pts',(3.57012659346988,3.63974951275458,12.1249743822946));
#1351=CARTESIAN_POINT('Ctrl Pts',(3.54281511932198,3.63999671291993,12.2245355599897));
#1352=CARTESIAN_POINT('Ctrl Pts',(3.54208883867255,3.64,12.2271826960581));
#1353=CARTESIAN_POINT('Ctrl Pts',(3.54136245290414,3.64,12.2298298007524));
#1354=CARTESIAN_POINT('Ctrl Pts',(-3.18779961248704,3.1,10.7162462472));
#1355=CARTESIAN_POINT('Ctrl Pts',(-3.21180663523472,3.18745837152863,10.8243453826803));
#1356=CARTESIAN_POINT('Ctrl Pts',(-3.26213029559725,3.34124248157292,11.0515936829999));
#1357=CARTESIAN_POINT('Ctrl Pts',(-3.34459226997045,3.5119317229672,11.426322779232));
#1358=CARTESIAN_POINT('Ctrl Pts',(-3.43206975044181,3.61663392626109,11.82642821494));
#1359=CARTESIAN_POINT('Ctrl Pts',(-3.49103740196392,3.64,12.0978296255829));
#1360=CARTESIAN_POINT('Ctrl Pts',(-3.52091035884684,3.64,12.2357335384184));
#1361=CARTESIAN_POINT('Origin',(1.73472347597681E-15,1.14,5.));
#1362=CARTESIAN_POINT('Ctrl Pts',(3.99819345385929,2.94000027619612,13.9473148759308));
#1363=CARTESIAN_POINT('Ctrl Pts',(3.96862969585182,3.05246995017993,13.8327176843735));
#1364=CARTESIAN_POINT('Ctrl Pts',(3.90368357340844,3.25370755307246,13.582327985161));
#1365=CARTESIAN_POINT('Ctrl Pts',(3.79464046566807,3.47257765028921,13.1678820350906));
#1366=CARTESIAN_POINT('Ctrl Pts',(3.67245691298389,3.60986290133042,12.7115284137036));
#1367=CARTESIAN_POINT('Ctrl Pts',(3.58783280118517,3.64,12.4018364595722));
#1368=CARTESIAN_POINT('Ctrl Pts',(3.54434257637801,3.64,12.2445087216728));
#1369=CARTESIAN_POINT('Ctrl Pts',(-4.51112894492011,2.94,13.6999836575883));
#1370=CARTESIAN_POINT('Ctrl Pts',(-4.48841291813166,3.05255324160867,13.5802232954458));
#1371=CARTESIAN_POINT('Ctrl Pts',(-4.43661627067749,3.16297250453431,13.4523268286444));
#1372=CARTESIAN_POINT('Ctrl Pts',(-4.26478379145923,3.37951824290103,13.1495657670043));
#1373=CARTESIAN_POINT('Ctrl Pts',(-4.13828562747446,3.47644915907923,12.9771907504993));
#1374=CARTESIAN_POINT('Ctrl Pts',(-3.84419602065736,3.60714369912111,12.6161593089095));
#1375=CARTESIAN_POINT('Ctrl Pts',(-3.68662313185882,3.63934157711178,12.4381994136086));
#1376=CARTESIAN_POINT('Ctrl Pts',(-3.52765148257246,3.63999666850361,12.257891352258));
#1377=CARTESIAN_POINT('Ctrl Pts',(-3.52603444475818,3.64,12.2560572347053));
#1378=CARTESIAN_POINT('Ctrl Pts',(-3.52441743861273,3.64,12.2542230897267));
#1379=CARTESIAN_POINT('Ctrl Pts',(4.48723509274675,2.43018035037207,13.370562389178));
#1380=CARTESIAN_POINT('Ctrl Pts',(4.56950726900798,2.8657021323537,13.7758029034985));
#1381=CARTESIAN_POINT('Ctrl Pts',(4.00030803656492,2.93191715329454,13.9555127051288));
#1382=CARTESIAN_POINT('Ctrl Pts',(4.47015620853453,2.51168150446116,13.2864384953332));
#1383=CARTESIAN_POINT('Ctrl Pts',(4.54744328278348,2.97846469605009,13.667124349803));
#1384=CARTESIAN_POINT('Ctrl Pts',(3.97083679917189,3.04511319923355,13.8412426626988));
#1385=CARTESIAN_POINT('Ctrl Pts',(4.43229883921489,2.65947498334484,13.0999679227645));
#1386=CARTESIAN_POINT('Ctrl Pts',(4.49825792164375,3.1860519762124,13.424856526691));
#1387=CARTESIAN_POINT('Ctrl Pts',(3.905204221724,3.25038192178336,13.5881291646784));
#1388=CARTESIAN_POINT('Ctrl Pts',(4.36968149322803,2.81891165510852,12.791539403595));
#1389=CARTESIAN_POINT('Ctrl Pts',(4.41638397474824,3.41928208741121,13.0215775342412));
#1390=CARTESIAN_POINT('Ctrl Pts',(3.79528400702589,3.4718217436679,13.1702882970231));
#1391=CARTESIAN_POINT('Ctrl Pts',(4.30068180131033,2.9184655287676,12.4516739483298));
#1392=CARTESIAN_POINT('Ctrl Pts',(4.32490365188431,3.57942017394165,12.5709812965778));
#1393=CARTESIAN_POINT('Ctrl Pts',(3.67231657013773,3.61009100985953,12.7109970563163));
#1394=CARTESIAN_POINT('Ctrl Pts',(4.25401967598366,2.93999999632785,12.221834596486));
#1395=CARTESIAN_POINT('Ctrl Pts',(4.26238286537782,3.62880818876703,12.2630283915891));
#1396=CARTESIAN_POINT('Ctrl Pts',(3.58769237415512,3.64,12.4013284606354));
#1397=CARTESIAN_POINT('Ctrl Pts',(4.23034766649927,2.94,12.1052355500721));
#1398=CARTESIAN_POINT('Ctrl Pts',(4.23034766649927,3.64,12.1052355500721));
#1399=CARTESIAN_POINT('Ctrl Pts',(3.54434257637803,3.64,12.2445087216729));
#1400=CARTESIAN_POINT('Origin',(3.54434257637802,2.94,12.2445087216729));
#1401=CARTESIAN_POINT('Origin',(3.21399490987876,2.94,10.6173455134011));
#1402=CARTESIAN_POINT('Ctrl Pts',(-3.98373406858064,2.48058869591336,10.9195237659546));
#1403=CARTESIAN_POINT('Ctrl Pts',(-3.89079764909591,3.04010569051238,10.4295569527712));
#1404=CARTESIAN_POINT('Ctrl Pts',(-3.16247563004449,3.00192874432411,10.6023385509739));
#1405=CARTESIAN_POINT('Ctrl Pts',(-3.9990506897601,2.55384545386521,11.0002739832499));
#1406=CARTESIAN_POINT('Ctrl Pts',(-3.91288382942394,3.14058153465996,10.5459967236454));
#1407=CARTESIAN_POINT('Ctrl Pts',(-3.18720672178434,3.10367423805948,10.7134601761891));
#1408=CARTESIAN_POINT('Ctrl Pts',(-4.03244955512734,2.68606813961626,11.1763549611772));
#1409=CARTESIAN_POINT('Ctrl Pts',(-3.96076252912002,3.32005800575756,10.7984163244821));
#1410=CARTESIAN_POINT('Ctrl Pts',(-3.24098462424856,3.2873168619116,10.9558211519713));
#1411=CARTESIAN_POINT('Ctrl Pts',(-4.08745800108344,2.8303023344218,11.4663630453353));
#1412=CARTESIAN_POINT('Ctrl Pts',(-4.0389690793416,3.51118862110946,11.2107263144145));
#1413=CARTESIAN_POINT('Ctrl Pts',(-3.32899681290531,3.48764213160422,11.3551905163158));
#1414=CARTESIAN_POINT('Ctrl Pts',(-4.14741821638956,2.92022088655623,11.7824771777091));
#1415=CARTESIAN_POINT('Ctrl Pts',(-4.12329590684408,3.62444007119321,11.6553028019356));
#1416=CARTESIAN_POINT('Ctrl Pts',(-3.42430503715264,3.61252900592107,11.7907279909038));
#1417=CARTESIAN_POINT('Ctrl Pts',(-4.18800806994165,2.93999999487169,11.9964695103464));
#1418=CARTESIAN_POINT('Ctrl Pts',(-4.17996893568627,3.64398262637334,11.954086674707));
#1419=CARTESIAN_POINT('Ctrl Pts',(-3.48841095462795,3.64,12.0857050352593));
#1420=CARTESIAN_POINT('Ctrl Pts',(-4.20864792457169,2.94,12.1052841586158));
#1421=CARTESIAN_POINT('Ctrl Pts',(-4.20864792457169,3.64,12.1052841586158));
#1422=CARTESIAN_POINT('Ctrl Pts',(-3.52091035884684,3.64,12.2357335384184));
#1423=CARTESIAN_POINT('Origin',(-3.52091035884684,2.94,12.2357335384184));
#1424=CARTESIAN_POINT('Origin',(-3.21226243427516,2.94,10.6085217216028));
#1425=UNCERTAINTY_MEASURE_WITH_UNIT(LENGTH_MEASURE(0.01),#1429,
'DISTANCE_ACCURACY_VALUE',
'Maximum model space distance between geometric entities at asserted c
onnectivities');
#1426=UNCERTAINTY_MEASURE_WITH_UNIT(LENGTH_MEASURE(0.01),#1429,
'DISTANCE_ACCURACY_VALUE',
'Maximum model space distance between geometric entities at asserted c
onnectivities');
#1427=(
GEOMETRIC_REPRESENTATION_CONTEXT(3)
GLOBAL_UNCERTAINTY_ASSIGNED_CONTEXT((#1425))
GLOBAL_UNIT_ASSIGNED_CONTEXT((#1429,#1431,#1432))
REPRESENTATION_CONTEXT('','3D')
);
#1428=(
GEOMETRIC_REPRESENTATION_CONTEXT(3)
GLOBAL_UNCERTAINTY_ASSIGNED_CONTEXT((#1426))
GLOBAL_UNIT_ASSIGNED_CONTEXT((#1429,#1431,#1432))
REPRESENTATION_CONTEXT('','3D')
);
#1429=(
LENGTH_UNIT()
NAMED_UNIT(*)
SI_UNIT(.MILLI.,.METRE.)
);
#1430=(
LENGTH_UNIT()
NAMED_UNIT(*)
SI_UNIT($,.METRE.)
);
#1431=(
NAMED_UNIT(*)
PLANE_ANGLE_UNIT()
SI_UNIT($,.RADIAN.)
);
#1432=(
NAMED_UNIT(*)
SI_UNIT($,.STERADIAN.)
SOLID_ANGLE_UNIT()
);
#1433=SHAPE_DEFINITION_REPRESENTATION(#1434,#1435);
#1434=PRODUCT_DEFINITION_SHAPE('',$,#1437);
#1435=SHAPE_REPRESENTATION('',(#735),#1427);
#1436=PRODUCT_DEFINITION_CONTEXT('part definition',#1441,'design');
#1437=PRODUCT_DEFINITION('Speaker (1)','Speaker (1) v1',#1438,#1436);
#1438=PRODUCT_DEFINITION_FORMATION('',$,#1443);
#1439=PRODUCT_RELATED_PRODUCT_CATEGORY('Speaker (1) v1',
'Speaker (1) v1',(#1443));
#1440=APPLICATION_PROTOCOL_DEFINITION('international standard',
'automotive_design',2009,#1441);
#1441=APPLICATION_CONTEXT(
'Core Data for Automotive Mechanical Design Process');
#1442=PRODUCT_CONTEXT('part definition',#1441,'mechanical');
#1443=PRODUCT('Speaker (1)','Speaker (1) v1',$,(#1442));
#1444=PRESENTATION_STYLE_ASSIGNMENT((#1446));
#1445=PRESENTATION_STYLE_ASSIGNMENT((#1447));
#1446=SURFACE_STYLE_USAGE(.BOTH.,#1448);
#1447=SURFACE_STYLE_USAGE(.BOTH.,#1449);
#1448=SURFACE_SIDE_STYLE('',(#1450));
#1449=SURFACE_SIDE_STYLE('',(#1451));
#1450=SURFACE_STYLE_FILL_AREA(#1452);
#1451=SURFACE_STYLE_FILL_AREA(#1453);
#1452=FILL_AREA_STYLE('Stahl - satiniert',(#1454));
#1453=FILL_AREA_STYLE('Opaque(30,30,30)',(#1455));
#1454=FILL_AREA_STYLE_COLOUR('Stahl - satiniert',#1456);
#1455=FILL_AREA_STYLE_COLOUR('Opaque(30,30,30)',#1457);
#1456=COLOUR_RGB('Stahl - satiniert',0.627450980392157,0.627450980392157,
0.627450980392157);
#1457=COLOUR_RGB('Opaque(30,30,30)',0.117647058823529,0.117647058823529,
0.117647058823529);
ENDSEC;
END-ISO-10303-21;
