ISO-10303-21;
HEADER;
/* Generated by software containing ST-Developer
 * from STEP Tools, Inc. (www.steptools.com) 
 */

FILE_DESCRIPTION(
/* description */ (''),
/* implementation_level */ '2;1');

FILE_NAME(
/* name */ 'Top Case.step',
/* time_stamp */ '2026-06-20T13:37:28+02:00',
/* author */ (''),
/* organization */ (''),
/* preprocessor_version */ 'ST-DEVELOPER v20.1',
/* originating_system */ 'Autodesk Translation Framework v15.8.0.0',
/* authorisation */ '');

FILE_SCHEMA (('AUTOMOTIVE_DESIGN { 1 0 10303 214 3 1 1 }'));
ENDSEC;

DATA;
#10=MECHANICAL_DESIGN_GEOMETRIC_PRESENTATION_REPRESENTATION('',(#13),#1440);
#11=SHAPE_REPRESENTATION_RELATIONSHIP('SRR','None',#1447,#12);
#12=ADVANCED_BREP_SHAPE_REPRESENTATION('',(#14),#1439);
#13=STYLED_ITEM('',(#1457),#14);
#14=MANIFOLD_SOLID_BREP('K\X\F6rper1',#856);
#15=FACE_BOUND('',#124,.T.);
#16=FACE_BOUND('',#130,.T.);
#17=FACE_BOUND('',#131,.T.);
#18=FACE_BOUND('',#132,.T.);
#19=FACE_BOUND('',#133,.T.);
#20=FACE_BOUND('',#134,.T.);
#21=FACE_BOUND('',#135,.T.);
#22=FACE_BOUND('',#137,.T.);
#23=FACE_BOUND('',#147,.T.);
#24=FACE_BOUND('',#148,.T.);
#25=FACE_BOUND('',#149,.T.);
#26=FACE_BOUND('',#150,.T.);
#27=FACE_BOUND('',#151,.T.);
#28=FACE_BOUND('',#152,.T.);
#29=FACE_BOUND('',#153,.T.);
#30=FACE_BOUND('',#154,.T.);
#31=FACE_BOUND('',#155,.T.);
#32=FACE_BOUND('',#156,.T.);
#33=FACE_BOUND('',#157,.T.);
#34=FACE_BOUND('',#190,.T.);
#35=FACE_BOUND('',#191,.T.);
#36=FACE_BOUND('',#192,.T.);
#37=FACE_BOUND('',#193,.T.);
#38=PLANE('',#873);
#39=PLANE('',#874);
#40=PLANE('',#880);
#41=PLANE('',#885);
#42=PLANE('',#891);
#43=PLANE('',#892);
#44=PLANE('',#893);
#45=PLANE('',#894);
#46=PLANE('',#895);
#47=PLANE('',#896);
#48=PLANE('',#897);
#49=PLANE('',#898);
#50=PLANE('',#899);
#51=PLANE('',#900);
#52=PLANE('',#912);
#53=PLANE('',#915);
#54=PLANE('',#918);
#55=PLANE('',#921);
#56=PLANE('',#924);
#57=PLANE('',#927);
#58=PLANE('',#930);
#59=PLANE('',#933);
#60=PLANE('',#934);
#61=PLANE('',#935);
#62=PLANE('',#936);
#63=PLANE('',#937);
#64=PLANE('',#938);
#65=PLANE('',#939);
#66=PLANE('',#940);
#67=PLANE('',#941);
#68=PLANE('',#942);
#69=PLANE('',#943);
#70=PLANE('',#953);
#71=FACE_OUTER_BOUND('',#121,.T.);
#72=FACE_OUTER_BOUND('',#122,.T.);
#73=FACE_OUTER_BOUND('',#123,.T.);
#74=FACE_OUTER_BOUND('',#125,.T.);
#75=FACE_OUTER_BOUND('',#126,.T.);
#76=FACE_OUTER_BOUND('',#127,.T.);
#77=FACE_OUTER_BOUND('',#128,.T.);
#78=FACE_OUTER_BOUND('',#129,.T.);
#79=FACE_OUTER_BOUND('',#136,.T.);
#80=FACE_OUTER_BOUND('',#138,.T.);
#81=FACE_OUTER_BOUND('',#139,.T.);
#82=FACE_OUTER_BOUND('',#140,.T.);
#83=FACE_OUTER_BOUND('',#141,.T.);
#84=FACE_OUTER_BOUND('',#142,.T.);
#85=FACE_OUTER_BOUND('',#143,.T.);
#86=FACE_OUTER_BOUND('',#144,.T.);
#87=FACE_OUTER_BOUND('',#145,.T.);
#88=FACE_OUTER_BOUND('',#146,.T.);
#89=FACE_OUTER_BOUND('',#158,.T.);
#90=FACE_OUTER_BOUND('',#159,.T.);
#91=FACE_OUTER_BOUND('',#160,.T.);
#92=FACE_OUTER_BOUND('',#161,.T.);
#93=FACE_OUTER_BOUND('',#162,.T.);
#94=FACE_OUTER_BOUND('',#163,.T.);
#95=FACE_OUTER_BOUND('',#164,.T.);
#96=FACE_OUTER_BOUND('',#165,.T.);
#97=FACE_OUTER_BOUND('',#166,.T.);
#98=FACE_OUTER_BOUND('',#167,.T.);
#99=FACE_OUTER_BOUND('',#168,.T.);
#100=FACE_OUTER_BOUND('',#169,.T.);
#101=FACE_OUTER_BOUND('',#170,.T.);
#102=FACE_OUTER_BOUND('',#171,.T.);
#103=FACE_OUTER_BOUND('',#172,.T.);
#104=FACE_OUTER_BOUND('',#173,.T.);
#105=FACE_OUTER_BOUND('',#174,.T.);
#106=FACE_OUTER_BOUND('',#175,.T.);
#107=FACE_OUTER_BOUND('',#176,.T.);
#108=FACE_OUTER_BOUND('',#177,.T.);
#109=FACE_OUTER_BOUND('',#178,.T.);
#110=FACE_OUTER_BOUND('',#179,.T.);
#111=FACE_OUTER_BOUND('',#180,.T.);
#112=FACE_OUTER_BOUND('',#181,.T.);
#113=FACE_OUTER_BOUND('',#182,.T.);
#114=FACE_OUTER_BOUND('',#183,.T.);
#115=FACE_OUTER_BOUND('',#184,.T.);
#116=FACE_OUTER_BOUND('',#185,.T.);
#117=FACE_OUTER_BOUND('',#186,.T.);
#118=FACE_OUTER_BOUND('',#187,.T.);
#119=FACE_OUTER_BOUND('',#188,.T.);
#120=FACE_OUTER_BOUND('',#189,.T.);
#121=EDGE_LOOP('',(#567,#568,#569,#570));
#122=EDGE_LOOP('',(#571,#572,#573,#574));
#123=EDGE_LOOP('',(#575,#576,#577,#578,#579,#580,#581,#582));
#124=EDGE_LOOP('',(#583,#584,#585,#586));
#125=EDGE_LOOP('',(#587,#588,#589,#590));
#126=EDGE_LOOP('',(#591,#592,#593,#594));
#127=EDGE_LOOP('',(#595,#596,#597,#598));
#128=EDGE_LOOP('',(#599,#600,#601,#602));
#129=EDGE_LOOP('',(#603,#604,#605,#606,#607,#608,#609,#610));
#130=EDGE_LOOP('',(#611,#612,#613,#614));
#131=EDGE_LOOP('',(#615));
#132=EDGE_LOOP('',(#616));
#133=EDGE_LOOP('',(#617));
#134=EDGE_LOOP('',(#618));
#135=EDGE_LOOP('',(#619));
#136=EDGE_LOOP('',(#620,#621,#622,#623));
#137=EDGE_LOOP('',(#624,#625,#626,#627));
#138=EDGE_LOOP('',(#628,#629,#630,#631));
#139=EDGE_LOOP('',(#632,#633,#634,#635));
#140=EDGE_LOOP('',(#636,#637,#638,#639));
#141=EDGE_LOOP('',(#640,#641,#642,#643));
#142=EDGE_LOOP('',(#644,#645,#646,#647));
#143=EDGE_LOOP('',(#648,#649,#650,#651));
#144=EDGE_LOOP('',(#652,#653,#654,#655));
#145=EDGE_LOOP('',(#656,#657,#658,#659));
#146=EDGE_LOOP('',(#660,#661,#662,#663));
#147=EDGE_LOOP('',(#664));
#148=EDGE_LOOP('',(#665));
#149=EDGE_LOOP('',(#666));
#150=EDGE_LOOP('',(#667));
#151=EDGE_LOOP('',(#668,#669,#670,#671));
#152=EDGE_LOOP('',(#672));
#153=EDGE_LOOP('',(#673,#674,#675,#676));
#154=EDGE_LOOP('',(#677));
#155=EDGE_LOOP('',(#678));
#156=EDGE_LOOP('',(#679));
#157=EDGE_LOOP('',(#680));
#158=EDGE_LOOP('',(#681,#682,#683,#684));
#159=EDGE_LOOP('',(#685));
#160=EDGE_LOOP('',(#686,#687,#688,#689));
#161=EDGE_LOOP('',(#690));
#162=EDGE_LOOP('',(#691,#692,#693,#694));
#163=EDGE_LOOP('',(#695));
#164=EDGE_LOOP('',(#696,#697,#698,#699));
#165=EDGE_LOOP('',(#700));
#166=EDGE_LOOP('',(#701,#702,#703,#704));
#167=EDGE_LOOP('',(#705));
#168=EDGE_LOOP('',(#706,#707,#708,#709));
#169=EDGE_LOOP('',(#710));
#170=EDGE_LOOP('',(#711,#712,#713,#714));
#171=EDGE_LOOP('',(#715));
#172=EDGE_LOOP('',(#716,#717,#718,#719));
#173=EDGE_LOOP('',(#720));
#174=EDGE_LOOP('',(#721,#722,#723,#724));
#175=EDGE_LOOP('',(#725,#726,#727,#728));
#176=EDGE_LOOP('',(#729,#730,#731,#732));
#177=EDGE_LOOP('',(#733,#734,#735,#736));
#178=EDGE_LOOP('',(#737,#738,#739,#740));
#179=EDGE_LOOP('',(#741,#742,#743,#744));
#180=EDGE_LOOP('',(#745,#746,#747,#748));
#181=EDGE_LOOP('',(#749,#750,#751,#752));
#182=EDGE_LOOP('',(#753,#754,#755,#756));
#183=EDGE_LOOP('',(#757,#758,#759,#760));
#184=EDGE_LOOP('',(#761,#762,#763,#764));
#185=EDGE_LOOP('',(#765,#766,#767,#768));
#186=EDGE_LOOP('',(#769,#770,#771,#772));
#187=EDGE_LOOP('',(#773,#774,#775,#776));
#188=EDGE_LOOP('',(#777,#778,#779,#780));
#189=EDGE_LOOP('',(#781,#782,#783,#784));
#190=EDGE_LOOP('',(#785));
#191=EDGE_LOOP('',(#786));
#192=EDGE_LOOP('',(#787));
#193=EDGE_LOOP('',(#788));
#194=LINE('',#1207,#271);
#195=LINE('',#1210,#272);
#196=LINE('',#1213,#273);
#197=LINE('',#1215,#274);
#198=LINE('',#1216,#275);
#199=LINE('',#1219,#276);
#200=LINE('',#1223,#277);
#201=LINE('',#1227,#278);
#202=LINE('',#1231,#279);
#203=LINE('',#1233,#280);
#204=LINE('',#1235,#281);
#205=LINE('',#1236,#282);
#206=LINE('',#1241,#283);
#207=LINE('',#1242,#284);
#208=LINE('',#1245,#285);
#209=LINE('',#1246,#286);
#210=LINE('',#1250,#287);
#211=LINE('',#1253,#288);
#212=LINE('',#1256,#289);
#213=LINE('',#1257,#290);
#214=LINE('',#1260,#291);
#215=LINE('',#1262,#292);
#216=LINE('',#1264,#293);
#217=LINE('',#1265,#294);
#218=LINE('',#1279,#295);
#219=LINE('',#1281,#296);
#220=LINE('',#1283,#297);
#221=LINE('',#1284,#298);
#222=LINE('',#1287,#299);
#223=LINE('',#1289,#300);
#224=LINE('',#1291,#301);
#225=LINE('',#1292,#302);
#226=LINE('',#1295,#303);
#227=LINE('',#1297,#304);
#228=LINE('',#1298,#305);
#229=LINE('',#1301,#306);
#230=LINE('',#1302,#307);
#231=LINE('',#1304,#308);
#232=LINE('',#1305,#309);
#233=LINE('',#1307,#310);
#234=LINE('',#1310,#311);
#235=LINE('',#1311,#312);
#236=LINE('',#1313,#313);
#237=LINE('',#1315,#314);
#238=LINE('',#1328,#315);
#239=LINE('',#1330,#316);
#240=LINE('',#1332,#317);
#241=LINE('',#1333,#318);
#242=LINE('',#1338,#319);
#243=LINE('',#1340,#320);
#244=LINE('',#1342,#321);
#245=LINE('',#1343,#322);
#246=LINE('',#1354,#323);
#247=LINE('',#1359,#324);
#248=LINE('',#1364,#325);
#249=LINE('',#1369,#326);
#250=LINE('',#1374,#327);
#251=LINE('',#1379,#328);
#252=LINE('',#1384,#329);
#253=LINE('',#1389,#330);
#254=LINE('',#1393,#331);
#255=LINE('',#1394,#332);
#256=LINE('',#1396,#333);
#257=LINE('',#1400,#334);
#258=LINE('',#1401,#335);
#259=LINE('',#1402,#336);
#260=LINE('',#1405,#337);
#261=LINE('',#1406,#338);
#262=LINE('',#1409,#339);
#263=LINE('',#1410,#340);
#264=LINE('',#1412,#341);
#265=LINE('',#1415,#342);
#266=LINE('',#1419,#343);
#267=LINE('',#1422,#344);
#268=LINE('',#1426,#345);
#269=LINE('',#1430,#346);
#270=LINE('',#1434,#347);
#271=VECTOR('',#960,10.);
#272=VECTOR('',#963,10.);
#273=VECTOR('',#966,10.);
#274=VECTOR('',#967,10.);
#275=VECTOR('',#968,10.);
#276=VECTOR('',#971,10.);
#277=VECTOR('',#974,10.);
#278=VECTOR('',#977,10.);
#279=VECTOR('',#980,10.);
#280=VECTOR('',#981,10.);
#281=VECTOR('',#982,10.);
#282=VECTOR('',#983,10.);
#283=VECTOR('',#988,10.);
#284=VECTOR('',#989,10.);
#285=VECTOR('',#992,10.);
#286=VECTOR('',#993,10.);
#287=VECTOR('',#998,10.);
#288=VECTOR('',#1001,10.);
#289=VECTOR('',#1006,10.);
#290=VECTOR('',#1007,10.);
#291=VECTOR('',#1008,10.);
#292=VECTOR('',#1009,10.);
#293=VECTOR('',#1010,10.);
#294=VECTOR('',#1011,10.);
#295=VECTOR('',#1024,10.);
#296=VECTOR('',#1025,10.);
#297=VECTOR('',#1026,10.);
#298=VECTOR('',#1027,10.);
#299=VECTOR('',#1028,10.);
#300=VECTOR('',#1029,10.);
#301=VECTOR('',#1030,10.);
#302=VECTOR('',#1031,10.);
#303=VECTOR('',#1034,10.);
#304=VECTOR('',#1035,10.);
#305=VECTOR('',#1036,10.);
#306=VECTOR('',#1039,10.);
#307=VECTOR('',#1040,10.);
#308=VECTOR('',#1043,10.);
#309=VECTOR('',#1044,10.);
#310=VECTOR('',#1047,10.);
#311=VECTOR('',#1050,10.);
#312=VECTOR('',#1051,10.);
#313=VECTOR('',#1054,10.);
#314=VECTOR('',#1057,10.);
#315=VECTOR('',#1070,10.);
#316=VECTOR('',#1071,10.);
#317=VECTOR('',#1072,10.);
#318=VECTOR('',#1073,10.);
#319=VECTOR('',#1076,10.);
#320=VECTOR('',#1077,10.);
#321=VECTOR('',#1078,10.);
#322=VECTOR('',#1079,10.);
#323=VECTOR('',#1090,3.35000000000001);
#324=VECTOR('',#1097,3.35);
#325=VECTOR('',#1104,3.35);
#326=VECTOR('',#1111,3.35000000000001);
#327=VECTOR('',#1118,1.9);
#328=VECTOR('',#1125,1.9);
#329=VECTOR('',#1132,1.9);
#330=VECTOR('',#1139,1.90000000000001);
#331=VECTOR('',#1146,10.);
#332=VECTOR('',#1147,10.);
#333=VECTOR('',#1150,10.);
#334=VECTOR('',#1153,10.);
#335=VECTOR('',#1154,10.);
#336=VECTOR('',#1155,10.);
#337=VECTOR('',#1158,10.);
#338=VECTOR('',#1159,10.);
#339=VECTOR('',#1162,10.);
#340=VECTOR('',#1163,10.);
#341=VECTOR('',#1166,10.);
#342=VECTOR('',#1171,10.);
#343=VECTOR('',#1178,20.);
#344=VECTOR('',#1181,15.);
#345=VECTOR('',#1186,15.);
#346=VECTOR('',#1191,15.);
#347=VECTOR('',#1196,15.);
#348=CIRCLE('',#871,6.);
#349=CIRCLE('',#872,6.);
#350=CIRCLE('',#875,6.);
#351=CIRCLE('',#876,6.);
#352=CIRCLE('',#877,6.);
#353=CIRCLE('',#879,6.);
#354=CIRCLE('',#882,6.);
#355=CIRCLE('',#884,6.);
#356=CIRCLE('',#886,20.);
#357=CIRCLE('',#887,15.);
#358=CIRCLE('',#888,15.);
#359=CIRCLE('',#889,15.);
#360=CIRCLE('',#890,15.);
#361=CIRCLE('',#901,3.35000000000001);
#362=CIRCLE('',#902,3.35);
#363=CIRCLE('',#903,3.35);
#364=CIRCLE('',#904,3.35000000000001);
#365=CIRCLE('',#905,20.);
#366=CIRCLE('',#906,1.90000000000001);
#367=CIRCLE('',#907,1.9);
#368=CIRCLE('',#908,1.9);
#369=CIRCLE('',#909,1.9);
#370=CIRCLE('',#911,3.35000000000001);
#371=CIRCLE('',#914,3.35);
#372=CIRCLE('',#917,3.35);
#373=CIRCLE('',#920,3.35000000000001);
#374=CIRCLE('',#923,1.9);
#375=CIRCLE('',#926,1.9);
#376=CIRCLE('',#929,1.9);
#377=CIRCLE('',#932,1.90000000000001);
#378=CIRCLE('',#946,15.);
#379=CIRCLE('',#948,15.);
#380=CIRCLE('',#950,15.);
#381=CIRCLE('',#952,15.);
#382=VERTEX_POINT('',#1203);
#383=VERTEX_POINT('',#1204);
#384=VERTEX_POINT('',#1206);
#385=VERTEX_POINT('',#1208);
#386=VERTEX_POINT('',#1212);
#387=VERTEX_POINT('',#1214);
#388=VERTEX_POINT('',#1218);
#389=VERTEX_POINT('',#1220);
#390=VERTEX_POINT('',#1222);
#391=VERTEX_POINT('',#1224);
#392=VERTEX_POINT('',#1226);
#393=VERTEX_POINT('',#1229);
#394=VERTEX_POINT('',#1230);
#395=VERTEX_POINT('',#1232);
#396=VERTEX_POINT('',#1234);
#397=VERTEX_POINT('',#1238);
#398=VERTEX_POINT('',#1239);
#399=VERTEX_POINT('',#1244);
#400=VERTEX_POINT('',#1248);
#401=VERTEX_POINT('',#1252);
#402=VERTEX_POINT('',#1258);
#403=VERTEX_POINT('',#1259);
#404=VERTEX_POINT('',#1261);
#405=VERTEX_POINT('',#1263);
#406=VERTEX_POINT('',#1266);
#407=VERTEX_POINT('',#1268);
#408=VERTEX_POINT('',#1270);
#409=VERTEX_POINT('',#1272);
#410=VERTEX_POINT('',#1274);
#411=VERTEX_POINT('',#1277);
#412=VERTEX_POINT('',#1278);
#413=VERTEX_POINT('',#1280);
#414=VERTEX_POINT('',#1282);
#415=VERTEX_POINT('',#1285);
#416=VERTEX_POINT('',#1286);
#417=VERTEX_POINT('',#1288);
#418=VERTEX_POINT('',#1290);
#419=VERTEX_POINT('',#1294);
#420=VERTEX_POINT('',#1296);
#421=VERTEX_POINT('',#1300);
#422=VERTEX_POINT('',#1309);
#423=VERTEX_POINT('',#1318);
#424=VERTEX_POINT('',#1320);
#425=VERTEX_POINT('',#1322);
#426=VERTEX_POINT('',#1324);
#427=VERTEX_POINT('',#1326);
#428=VERTEX_POINT('',#1327);
#429=VERTEX_POINT('',#1329);
#430=VERTEX_POINT('',#1331);
#431=VERTEX_POINT('',#1334);
#432=VERTEX_POINT('',#1336);
#433=VERTEX_POINT('',#1337);
#434=VERTEX_POINT('',#1339);
#435=VERTEX_POINT('',#1341);
#436=VERTEX_POINT('',#1344);
#437=VERTEX_POINT('',#1346);
#438=VERTEX_POINT('',#1348);
#439=VERTEX_POINT('',#1350);
#440=VERTEX_POINT('',#1353);
#441=VERTEX_POINT('',#1358);
#442=VERTEX_POINT('',#1363);
#443=VERTEX_POINT('',#1368);
#444=VERTEX_POINT('',#1373);
#445=VERTEX_POINT('',#1378);
#446=VERTEX_POINT('',#1383);
#447=VERTEX_POINT('',#1388);
#448=VERTEX_POINT('',#1398);
#449=VERTEX_POINT('',#1399);
#450=VERTEX_POINT('',#1404);
#451=VERTEX_POINT('',#1408);
#452=VERTEX_POINT('',#1421);
#453=VERTEX_POINT('',#1425);
#454=VERTEX_POINT('',#1429);
#455=VERTEX_POINT('',#1433);
#456=EDGE_CURVE('',#382,#383,#348,.T.);
#457=EDGE_CURVE('',#383,#384,#194,.T.);
#458=EDGE_CURVE('',#384,#385,#349,.T.);
#459=EDGE_CURVE('',#385,#382,#195,.T.);
#460=EDGE_CURVE('',#386,#385,#196,.T.);
#461=EDGE_CURVE('',#387,#386,#197,.T.);
#462=EDGE_CURVE('',#387,#382,#198,.T.);
#463=EDGE_CURVE('',#384,#388,#199,.T.);
#464=EDGE_CURVE('',#389,#388,#350,.T.);
#465=EDGE_CURVE('',#389,#390,#200,.T.);
#466=EDGE_CURVE('',#391,#390,#351,.T.);
#467=EDGE_CURVE('',#391,#392,#201,.T.);
#468=EDGE_CURVE('',#386,#392,#352,.T.);
#469=EDGE_CURVE('',#393,#394,#202,.T.);
#470=EDGE_CURVE('',#394,#395,#203,.T.);
#471=EDGE_CURVE('',#395,#396,#204,.T.);
#472=EDGE_CURVE('',#396,#393,#205,.T.);
#473=EDGE_CURVE('',#397,#398,#353,.T.);
#474=EDGE_CURVE('',#398,#389,#206,.T.);
#475=EDGE_CURVE('',#388,#397,#207,.T.);
#476=EDGE_CURVE('',#398,#399,#208,.T.);
#477=EDGE_CURVE('',#390,#399,#209,.T.);
#478=EDGE_CURVE('',#399,#400,#354,.T.);
#479=EDGE_CURVE('',#400,#391,#210,.T.);
#480=EDGE_CURVE('',#392,#401,#211,.T.);
#481=EDGE_CURVE('',#401,#387,#355,.T.);
#482=EDGE_CURVE('',#400,#401,#212,.T.);
#483=EDGE_CURVE('',#383,#397,#213,.T.);
#484=EDGE_CURVE('',#402,#403,#214,.T.);
#485=EDGE_CURVE('',#404,#402,#215,.T.);
#486=EDGE_CURVE('',#405,#404,#216,.T.);
#487=EDGE_CURVE('',#403,#405,#217,.T.);
#488=EDGE_CURVE('',#406,#406,#356,.T.);
#489=EDGE_CURVE('',#407,#407,#357,.T.);
#490=EDGE_CURVE('',#408,#408,#358,.T.);
#491=EDGE_CURVE('',#409,#409,#359,.T.);
#492=EDGE_CURVE('',#410,#410,#360,.T.);
#493=EDGE_CURVE('',#411,#412,#218,.T.);
#494=EDGE_CURVE('',#413,#411,#219,.T.);
#495=EDGE_CURVE('',#414,#413,#220,.T.);
#496=EDGE_CURVE('',#412,#414,#221,.T.);
#497=EDGE_CURVE('',#415,#416,#222,.T.);
#498=EDGE_CURVE('',#417,#415,#223,.T.);
#499=EDGE_CURVE('',#418,#417,#224,.T.);
#500=EDGE_CURVE('',#416,#418,#225,.T.);
#501=EDGE_CURVE('',#419,#415,#226,.T.);
#502=EDGE_CURVE('',#420,#419,#227,.T.);
#503=EDGE_CURVE('',#420,#417,#228,.T.);
#504=EDGE_CURVE('',#421,#416,#229,.T.);
#505=EDGE_CURVE('',#419,#421,#230,.T.);
#506=EDGE_CURVE('',#396,#411,#231,.T.);
#507=EDGE_CURVE('',#395,#413,#232,.T.);
#508=EDGE_CURVE('',#393,#412,#233,.T.);
#509=EDGE_CURVE('',#422,#418,#234,.T.);
#510=EDGE_CURVE('',#421,#422,#235,.T.);
#511=EDGE_CURVE('',#422,#420,#236,.T.);
#512=EDGE_CURVE('',#394,#414,#237,.T.);
#513=EDGE_CURVE('',#423,#423,#361,.T.);
#514=EDGE_CURVE('',#424,#424,#362,.T.);
#515=EDGE_CURVE('',#425,#425,#363,.T.);
#516=EDGE_CURVE('',#426,#426,#364,.T.);
#517=EDGE_CURVE('',#427,#428,#238,.T.);
#518=EDGE_CURVE('',#428,#429,#239,.T.);
#519=EDGE_CURVE('',#429,#430,#240,.T.);
#520=EDGE_CURVE('',#427,#430,#241,.T.);
#521=EDGE_CURVE('',#431,#431,#365,.T.);
#522=EDGE_CURVE('',#432,#433,#242,.T.);
#523=EDGE_CURVE('',#433,#434,#243,.T.);
#524=EDGE_CURVE('',#434,#435,#244,.T.);
#525=EDGE_CURVE('',#435,#432,#245,.T.);
#526=EDGE_CURVE('',#436,#436,#366,.T.);
#527=EDGE_CURVE('',#437,#437,#367,.T.);
#528=EDGE_CURVE('',#438,#438,#368,.T.);
#529=EDGE_CURVE('',#439,#439,#369,.T.);
#530=EDGE_CURVE('',#423,#440,#246,.T.);
#531=EDGE_CURVE('',#440,#440,#370,.T.);
#532=EDGE_CURVE('',#424,#441,#247,.T.);
#533=EDGE_CURVE('',#441,#441,#371,.T.);
#534=EDGE_CURVE('',#425,#442,#248,.T.);
#535=EDGE_CURVE('',#442,#442,#372,.T.);
#536=EDGE_CURVE('',#426,#443,#249,.T.);
#537=EDGE_CURVE('',#443,#443,#373,.T.);
#538=EDGE_CURVE('',#439,#444,#250,.T.);
#539=EDGE_CURVE('',#444,#444,#374,.T.);
#540=EDGE_CURVE('',#438,#445,#251,.T.);
#541=EDGE_CURVE('',#445,#445,#375,.T.);
#542=EDGE_CURVE('',#437,#446,#252,.T.);
#543=EDGE_CURVE('',#446,#446,#376,.T.);
#544=EDGE_CURVE('',#436,#447,#253,.T.);
#545=EDGE_CURVE('',#447,#447,#377,.T.);
#546=EDGE_CURVE('',#427,#405,#254,.T.);
#547=EDGE_CURVE('',#403,#430,#255,.T.);
#548=EDGE_CURVE('',#404,#428,#256,.T.);
#549=EDGE_CURVE('',#448,#449,#257,.T.);
#550=EDGE_CURVE('',#448,#432,#258,.T.);
#551=EDGE_CURVE('',#449,#435,#259,.T.);
#552=EDGE_CURVE('',#449,#450,#260,.T.);
#553=EDGE_CURVE('',#450,#434,#261,.T.);
#554=EDGE_CURVE('',#450,#451,#262,.T.);
#555=EDGE_CURVE('',#451,#433,#263,.T.);
#556=EDGE_CURVE('',#451,#448,#264,.T.);
#557=EDGE_CURVE('',#402,#429,#265,.T.);
#558=EDGE_CURVE('',#406,#431,#266,.T.);
#559=EDGE_CURVE('',#407,#452,#267,.T.);
#560=EDGE_CURVE('',#452,#452,#378,.T.);
#561=EDGE_CURVE('',#408,#453,#268,.T.);
#562=EDGE_CURVE('',#453,#453,#379,.T.);
#563=EDGE_CURVE('',#409,#454,#269,.T.);
#564=EDGE_CURVE('',#454,#454,#380,.T.);
#565=EDGE_CURVE('',#410,#455,#270,.T.);
#566=EDGE_CURVE('',#455,#455,#381,.T.);
#567=ORIENTED_EDGE('',*,*,#456,.T.);
#568=ORIENTED_EDGE('',*,*,#457,.T.);
#569=ORIENTED_EDGE('',*,*,#458,.T.);
#570=ORIENTED_EDGE('',*,*,#459,.T.);
#571=ORIENTED_EDGE('',*,*,#459,.F.);
#572=ORIENTED_EDGE('',*,*,#460,.F.);
#573=ORIENTED_EDGE('',*,*,#461,.F.);
#574=ORIENTED_EDGE('',*,*,#462,.T.);
#575=ORIENTED_EDGE('',*,*,#458,.F.);
#576=ORIENTED_EDGE('',*,*,#463,.T.);
#577=ORIENTED_EDGE('',*,*,#464,.F.);
#578=ORIENTED_EDGE('',*,*,#465,.T.);
#579=ORIENTED_EDGE('',*,*,#466,.F.);
#580=ORIENTED_EDGE('',*,*,#467,.T.);
#581=ORIENTED_EDGE('',*,*,#468,.F.);
#582=ORIENTED_EDGE('',*,*,#460,.T.);
#583=ORIENTED_EDGE('',*,*,#469,.T.);
#584=ORIENTED_EDGE('',*,*,#470,.T.);
#585=ORIENTED_EDGE('',*,*,#471,.T.);
#586=ORIENTED_EDGE('',*,*,#472,.T.);
#587=ORIENTED_EDGE('',*,*,#473,.T.);
#588=ORIENTED_EDGE('',*,*,#474,.T.);
#589=ORIENTED_EDGE('',*,*,#464,.T.);
#590=ORIENTED_EDGE('',*,*,#475,.T.);
#591=ORIENTED_EDGE('',*,*,#474,.F.);
#592=ORIENTED_EDGE('',*,*,#476,.T.);
#593=ORIENTED_EDGE('',*,*,#477,.F.);
#594=ORIENTED_EDGE('',*,*,#465,.F.);
#595=ORIENTED_EDGE('',*,*,#478,.T.);
#596=ORIENTED_EDGE('',*,*,#479,.T.);
#597=ORIENTED_EDGE('',*,*,#466,.T.);
#598=ORIENTED_EDGE('',*,*,#477,.T.);
#599=ORIENTED_EDGE('',*,*,#468,.T.);
#600=ORIENTED_EDGE('',*,*,#480,.T.);
#601=ORIENTED_EDGE('',*,*,#481,.T.);
#602=ORIENTED_EDGE('',*,*,#461,.T.);
#603=ORIENTED_EDGE('',*,*,#456,.F.);
#604=ORIENTED_EDGE('',*,*,#462,.F.);
#605=ORIENTED_EDGE('',*,*,#481,.F.);
#606=ORIENTED_EDGE('',*,*,#482,.F.);
#607=ORIENTED_EDGE('',*,*,#478,.F.);
#608=ORIENTED_EDGE('',*,*,#476,.F.);
#609=ORIENTED_EDGE('',*,*,#473,.F.);
#610=ORIENTED_EDGE('',*,*,#483,.F.);
#611=ORIENTED_EDGE('',*,*,#484,.F.);
#612=ORIENTED_EDGE('',*,*,#485,.F.);
#613=ORIENTED_EDGE('',*,*,#486,.F.);
#614=ORIENTED_EDGE('',*,*,#487,.F.);
#615=ORIENTED_EDGE('',*,*,#488,.F.);
#616=ORIENTED_EDGE('',*,*,#489,.F.);
#617=ORIENTED_EDGE('',*,*,#490,.F.);
#618=ORIENTED_EDGE('',*,*,#491,.F.);
#619=ORIENTED_EDGE('',*,*,#492,.F.);
#620=ORIENTED_EDGE('',*,*,#493,.F.);
#621=ORIENTED_EDGE('',*,*,#494,.F.);
#622=ORIENTED_EDGE('',*,*,#495,.F.);
#623=ORIENTED_EDGE('',*,*,#496,.F.);
#624=ORIENTED_EDGE('',*,*,#497,.F.);
#625=ORIENTED_EDGE('',*,*,#498,.F.);
#626=ORIENTED_EDGE('',*,*,#499,.F.);
#627=ORIENTED_EDGE('',*,*,#500,.F.);
#628=ORIENTED_EDGE('',*,*,#498,.T.);
#629=ORIENTED_EDGE('',*,*,#501,.F.);
#630=ORIENTED_EDGE('',*,*,#502,.F.);
#631=ORIENTED_EDGE('',*,*,#503,.T.);
#632=ORIENTED_EDGE('',*,*,#497,.T.);
#633=ORIENTED_EDGE('',*,*,#504,.F.);
#634=ORIENTED_EDGE('',*,*,#505,.F.);
#635=ORIENTED_EDGE('',*,*,#501,.T.);
#636=ORIENTED_EDGE('',*,*,#494,.T.);
#637=ORIENTED_EDGE('',*,*,#506,.F.);
#638=ORIENTED_EDGE('',*,*,#471,.F.);
#639=ORIENTED_EDGE('',*,*,#507,.T.);
#640=ORIENTED_EDGE('',*,*,#493,.T.);
#641=ORIENTED_EDGE('',*,*,#508,.F.);
#642=ORIENTED_EDGE('',*,*,#472,.F.);
#643=ORIENTED_EDGE('',*,*,#506,.T.);
#644=ORIENTED_EDGE('',*,*,#500,.T.);
#645=ORIENTED_EDGE('',*,*,#509,.F.);
#646=ORIENTED_EDGE('',*,*,#510,.F.);
#647=ORIENTED_EDGE('',*,*,#504,.T.);
#648=ORIENTED_EDGE('',*,*,#499,.T.);
#649=ORIENTED_EDGE('',*,*,#503,.F.);
#650=ORIENTED_EDGE('',*,*,#511,.F.);
#651=ORIENTED_EDGE('',*,*,#509,.T.);
#652=ORIENTED_EDGE('',*,*,#496,.T.);
#653=ORIENTED_EDGE('',*,*,#512,.F.);
#654=ORIENTED_EDGE('',*,*,#469,.F.);
#655=ORIENTED_EDGE('',*,*,#508,.T.);
#656=ORIENTED_EDGE('',*,*,#495,.T.);
#657=ORIENTED_EDGE('',*,*,#507,.F.);
#658=ORIENTED_EDGE('',*,*,#470,.F.);
#659=ORIENTED_EDGE('',*,*,#512,.T.);
#660=ORIENTED_EDGE('',*,*,#510,.T.);
#661=ORIENTED_EDGE('',*,*,#511,.T.);
#662=ORIENTED_EDGE('',*,*,#502,.T.);
#663=ORIENTED_EDGE('',*,*,#505,.T.);
#664=ORIENTED_EDGE('',*,*,#513,.T.);
#665=ORIENTED_EDGE('',*,*,#514,.T.);
#666=ORIENTED_EDGE('',*,*,#515,.T.);
#667=ORIENTED_EDGE('',*,*,#516,.T.);
#668=ORIENTED_EDGE('',*,*,#517,.T.);
#669=ORIENTED_EDGE('',*,*,#518,.T.);
#670=ORIENTED_EDGE('',*,*,#519,.T.);
#671=ORIENTED_EDGE('',*,*,#520,.F.);
#672=ORIENTED_EDGE('',*,*,#521,.T.);
#673=ORIENTED_EDGE('',*,*,#522,.T.);
#674=ORIENTED_EDGE('',*,*,#523,.T.);
#675=ORIENTED_EDGE('',*,*,#524,.T.);
#676=ORIENTED_EDGE('',*,*,#525,.T.);
#677=ORIENTED_EDGE('',*,*,#526,.T.);
#678=ORIENTED_EDGE('',*,*,#527,.T.);
#679=ORIENTED_EDGE('',*,*,#528,.T.);
#680=ORIENTED_EDGE('',*,*,#529,.T.);
#681=ORIENTED_EDGE('',*,*,#513,.F.);
#682=ORIENTED_EDGE('',*,*,#530,.T.);
#683=ORIENTED_EDGE('',*,*,#531,.T.);
#684=ORIENTED_EDGE('',*,*,#530,.F.);
#685=ORIENTED_EDGE('',*,*,#531,.F.);
#686=ORIENTED_EDGE('',*,*,#514,.F.);
#687=ORIENTED_EDGE('',*,*,#532,.T.);
#688=ORIENTED_EDGE('',*,*,#533,.T.);
#689=ORIENTED_EDGE('',*,*,#532,.F.);
#690=ORIENTED_EDGE('',*,*,#533,.F.);
#691=ORIENTED_EDGE('',*,*,#515,.F.);
#692=ORIENTED_EDGE('',*,*,#534,.T.);
#693=ORIENTED_EDGE('',*,*,#535,.T.);
#694=ORIENTED_EDGE('',*,*,#534,.F.);
#695=ORIENTED_EDGE('',*,*,#535,.F.);
#696=ORIENTED_EDGE('',*,*,#516,.F.);
#697=ORIENTED_EDGE('',*,*,#536,.T.);
#698=ORIENTED_EDGE('',*,*,#537,.T.);
#699=ORIENTED_EDGE('',*,*,#536,.F.);
#700=ORIENTED_EDGE('',*,*,#537,.F.);
#701=ORIENTED_EDGE('',*,*,#529,.F.);
#702=ORIENTED_EDGE('',*,*,#538,.T.);
#703=ORIENTED_EDGE('',*,*,#539,.T.);
#704=ORIENTED_EDGE('',*,*,#538,.F.);
#705=ORIENTED_EDGE('',*,*,#539,.F.);
#706=ORIENTED_EDGE('',*,*,#528,.F.);
#707=ORIENTED_EDGE('',*,*,#540,.T.);
#708=ORIENTED_EDGE('',*,*,#541,.T.);
#709=ORIENTED_EDGE('',*,*,#540,.F.);
#710=ORIENTED_EDGE('',*,*,#541,.F.);
#711=ORIENTED_EDGE('',*,*,#527,.F.);
#712=ORIENTED_EDGE('',*,*,#542,.T.);
#713=ORIENTED_EDGE('',*,*,#543,.T.);
#714=ORIENTED_EDGE('',*,*,#542,.F.);
#715=ORIENTED_EDGE('',*,*,#543,.F.);
#716=ORIENTED_EDGE('',*,*,#526,.F.);
#717=ORIENTED_EDGE('',*,*,#544,.T.);
#718=ORIENTED_EDGE('',*,*,#545,.T.);
#719=ORIENTED_EDGE('',*,*,#544,.F.);
#720=ORIENTED_EDGE('',*,*,#545,.F.);
#721=ORIENTED_EDGE('',*,*,#487,.T.);
#722=ORIENTED_EDGE('',*,*,#546,.F.);
#723=ORIENTED_EDGE('',*,*,#520,.T.);
#724=ORIENTED_EDGE('',*,*,#547,.F.);
#725=ORIENTED_EDGE('',*,*,#546,.T.);
#726=ORIENTED_EDGE('',*,*,#486,.T.);
#727=ORIENTED_EDGE('',*,*,#548,.T.);
#728=ORIENTED_EDGE('',*,*,#517,.F.);
#729=ORIENTED_EDGE('',*,*,#549,.F.);
#730=ORIENTED_EDGE('',*,*,#550,.T.);
#731=ORIENTED_EDGE('',*,*,#525,.F.);
#732=ORIENTED_EDGE('',*,*,#551,.F.);
#733=ORIENTED_EDGE('',*,*,#552,.F.);
#734=ORIENTED_EDGE('',*,*,#551,.T.);
#735=ORIENTED_EDGE('',*,*,#524,.F.);
#736=ORIENTED_EDGE('',*,*,#553,.F.);
#737=ORIENTED_EDGE('',*,*,#554,.F.);
#738=ORIENTED_EDGE('',*,*,#553,.T.);
#739=ORIENTED_EDGE('',*,*,#523,.F.);
#740=ORIENTED_EDGE('',*,*,#555,.F.);
#741=ORIENTED_EDGE('',*,*,#556,.F.);
#742=ORIENTED_EDGE('',*,*,#555,.T.);
#743=ORIENTED_EDGE('',*,*,#522,.F.);
#744=ORIENTED_EDGE('',*,*,#550,.F.);
#745=ORIENTED_EDGE('',*,*,#457,.F.);
#746=ORIENTED_EDGE('',*,*,#483,.T.);
#747=ORIENTED_EDGE('',*,*,#475,.F.);
#748=ORIENTED_EDGE('',*,*,#463,.F.);
#749=ORIENTED_EDGE('',*,*,#485,.T.);
#750=ORIENTED_EDGE('',*,*,#557,.T.);
#751=ORIENTED_EDGE('',*,*,#518,.F.);
#752=ORIENTED_EDGE('',*,*,#548,.F.);
#753=ORIENTED_EDGE('',*,*,#547,.T.);
#754=ORIENTED_EDGE('',*,*,#519,.F.);
#755=ORIENTED_EDGE('',*,*,#557,.F.);
#756=ORIENTED_EDGE('',*,*,#484,.T.);
#757=ORIENTED_EDGE('',*,*,#479,.F.);
#758=ORIENTED_EDGE('',*,*,#482,.T.);
#759=ORIENTED_EDGE('',*,*,#480,.F.);
#760=ORIENTED_EDGE('',*,*,#467,.F.);
#761=ORIENTED_EDGE('',*,*,#488,.T.);
#762=ORIENTED_EDGE('',*,*,#558,.T.);
#763=ORIENTED_EDGE('',*,*,#521,.F.);
#764=ORIENTED_EDGE('',*,*,#558,.F.);
#765=ORIENTED_EDGE('',*,*,#489,.T.);
#766=ORIENTED_EDGE('',*,*,#559,.T.);
#767=ORIENTED_EDGE('',*,*,#560,.F.);
#768=ORIENTED_EDGE('',*,*,#559,.F.);
#769=ORIENTED_EDGE('',*,*,#490,.T.);
#770=ORIENTED_EDGE('',*,*,#561,.T.);
#771=ORIENTED_EDGE('',*,*,#562,.F.);
#772=ORIENTED_EDGE('',*,*,#561,.F.);
#773=ORIENTED_EDGE('',*,*,#491,.T.);
#774=ORIENTED_EDGE('',*,*,#563,.T.);
#775=ORIENTED_EDGE('',*,*,#564,.F.);
#776=ORIENTED_EDGE('',*,*,#563,.F.);
#777=ORIENTED_EDGE('',*,*,#492,.T.);
#778=ORIENTED_EDGE('',*,*,#565,.T.);
#779=ORIENTED_EDGE('',*,*,#566,.F.);
#780=ORIENTED_EDGE('',*,*,#565,.F.);
#781=ORIENTED_EDGE('',*,*,#549,.T.);
#782=ORIENTED_EDGE('',*,*,#552,.T.);
#783=ORIENTED_EDGE('',*,*,#554,.T.);
#784=ORIENTED_EDGE('',*,*,#556,.T.);
#785=ORIENTED_EDGE('',*,*,#566,.T.);
#786=ORIENTED_EDGE('',*,*,#564,.T.);
#787=ORIENTED_EDGE('',*,*,#562,.T.);
#788=ORIENTED_EDGE('',*,*,#560,.T.);
#789=CYLINDRICAL_SURFACE('',#870,6.);
#790=CYLINDRICAL_SURFACE('',#878,6.);
#791=CYLINDRICAL_SURFACE('',#881,6.);
#792=CYLINDRICAL_SURFACE('',#883,6.);
#793=CYLINDRICAL_SURFACE('',#910,3.35000000000001);
#794=CYLINDRICAL_SURFACE('',#913,3.35);
#795=CYLINDRICAL_SURFACE('',#916,3.35);
#796=CYLINDRICAL_SURFACE('',#919,3.35000000000001);
#797=CYLINDRICAL_SURFACE('',#922,1.9);
#798=CYLINDRICAL_SURFACE('',#925,1.9);
#799=CYLINDRICAL_SURFACE('',#928,1.9);
#800=CYLINDRICAL_SURFACE('',#931,1.90000000000001);
#801=CYLINDRICAL_SURFACE('',#944,20.);
#802=CYLINDRICAL_SURFACE('',#945,15.);
#803=CYLINDRICAL_SURFACE('',#947,15.);
#804=CYLINDRICAL_SURFACE('',#949,15.);
#805=CYLINDRICAL_SURFACE('',#951,15.);
#806=ADVANCED_FACE('',(#71),#789,.T.);
#807=ADVANCED_FACE('',(#72),#38,.T.);
#808=ADVANCED_FACE('',(#73,#15),#39,.T.);
#809=ADVANCED_FACE('',(#74),#790,.T.);
#810=ADVANCED_FACE('',(#75),#40,.T.);
#811=ADVANCED_FACE('',(#76),#791,.T.);
#812=ADVANCED_FACE('',(#77),#792,.T.);
#813=ADVANCED_FACE('',(#78,#16,#17,#18,#19,#20,#21),#41,.T.);
#814=ADVANCED_FACE('',(#79,#22),#42,.F.);
#815=ADVANCED_FACE('',(#80),#43,.T.);
#816=ADVANCED_FACE('',(#81),#44,.T.);
#817=ADVANCED_FACE('',(#82),#45,.T.);
#818=ADVANCED_FACE('',(#83),#46,.T.);
#819=ADVANCED_FACE('',(#84),#47,.T.);
#820=ADVANCED_FACE('',(#85),#48,.T.);
#821=ADVANCED_FACE('',(#86),#49,.T.);
#822=ADVANCED_FACE('',(#87),#50,.T.);
#823=ADVANCED_FACE('',(#88,#23,#24,#25,#26,#27,#28,#29,#30,#31,#32,#33),
#51,.T.);
#824=ADVANCED_FACE('',(#89),#793,.F.);
#825=ADVANCED_FACE('',(#90),#52,.T.);
#826=ADVANCED_FACE('',(#91),#794,.F.);
#827=ADVANCED_FACE('',(#92),#53,.T.);
#828=ADVANCED_FACE('',(#93),#795,.F.);
#829=ADVANCED_FACE('',(#94),#54,.T.);
#830=ADVANCED_FACE('',(#95),#796,.F.);
#831=ADVANCED_FACE('',(#96),#55,.T.);
#832=ADVANCED_FACE('',(#97),#797,.F.);
#833=ADVANCED_FACE('',(#98),#56,.T.);
#834=ADVANCED_FACE('',(#99),#798,.F.);
#835=ADVANCED_FACE('',(#100),#57,.T.);
#836=ADVANCED_FACE('',(#101),#799,.F.);
#837=ADVANCED_FACE('',(#102),#58,.T.);
#838=ADVANCED_FACE('',(#103),#800,.F.);
#839=ADVANCED_FACE('',(#104),#59,.T.);
#840=ADVANCED_FACE('',(#105),#60,.T.);
#841=ADVANCED_FACE('',(#106),#61,.F.);
#842=ADVANCED_FACE('',(#107),#62,.T.);
#843=ADVANCED_FACE('',(#108),#63,.T.);
#844=ADVANCED_FACE('',(#109),#64,.T.);
#845=ADVANCED_FACE('',(#110),#65,.T.);
#846=ADVANCED_FACE('',(#111),#66,.T.);
#847=ADVANCED_FACE('',(#112),#67,.F.);
#848=ADVANCED_FACE('',(#113),#68,.F.);
#849=ADVANCED_FACE('',(#114),#69,.T.);
#850=ADVANCED_FACE('',(#115),#801,.F.);
#851=ADVANCED_FACE('',(#116),#802,.F.);
#852=ADVANCED_FACE('',(#117),#803,.F.);
#853=ADVANCED_FACE('',(#118),#804,.F.);
#854=ADVANCED_FACE('',(#119),#805,.F.);
#855=ADVANCED_FACE('',(#120,#34,#35,#36,#37),#70,.F.);
#856=CLOSED_SHELL('',(#806,#807,#808,#809,#810,#811,#812,#813,#814,#815,
#816,#817,#818,#819,#820,#821,#822,#823,#824,#825,#826,#827,#828,#829,#830,
#831,#832,#833,#834,#835,#836,#837,#838,#839,#840,#841,#842,#843,#844,#845,
#846,#847,#848,#849,#850,#851,#852,#853,#854,#855));
#857=DERIVED_UNIT_ELEMENT(#859,1.);
#858=DERIVED_UNIT_ELEMENT(#1442,-3.);
#859=(
MASS_UNIT()
NAMED_UNIT(*)
SI_UNIT(.KILO.,.GRAM.)
);
#860=DERIVED_UNIT((#857,#858));
#861=MEASURE_REPRESENTATION_ITEM('density measure',
POSITIVE_RATIO_MEASURE(7850.),#860);
#862=PROPERTY_DEFINITION_REPRESENTATION(#867,#864);
#863=PROPERTY_DEFINITION_REPRESENTATION(#868,#865);
#864=REPRESENTATION('material name',(#866),#1439);
#865=REPRESENTATION('density',(#861),#1439);
#866=DESCRIPTIVE_REPRESENTATION_ITEM('Stahl','Stahl');
#867=PROPERTY_DEFINITION('material property','material name',#1449);
#868=PROPERTY_DEFINITION('material property','density of part',#1449);
#869=AXIS2_PLACEMENT_3D('',#1201,#954,#955);
#870=AXIS2_PLACEMENT_3D('',#1202,#956,#957);
#871=AXIS2_PLACEMENT_3D('',#1205,#958,#959);
#872=AXIS2_PLACEMENT_3D('',#1209,#961,#962);
#873=AXIS2_PLACEMENT_3D('',#1211,#964,#965);
#874=AXIS2_PLACEMENT_3D('',#1217,#969,#970);
#875=AXIS2_PLACEMENT_3D('',#1221,#972,#973);
#876=AXIS2_PLACEMENT_3D('',#1225,#975,#976);
#877=AXIS2_PLACEMENT_3D('',#1228,#978,#979);
#878=AXIS2_PLACEMENT_3D('',#1237,#984,#985);
#879=AXIS2_PLACEMENT_3D('',#1240,#986,#987);
#880=AXIS2_PLACEMENT_3D('',#1243,#990,#991);
#881=AXIS2_PLACEMENT_3D('',#1247,#994,#995);
#882=AXIS2_PLACEMENT_3D('',#1249,#996,#997);
#883=AXIS2_PLACEMENT_3D('',#1251,#999,#1000);
#884=AXIS2_PLACEMENT_3D('',#1254,#1002,#1003);
#885=AXIS2_PLACEMENT_3D('',#1255,#1004,#1005);
#886=AXIS2_PLACEMENT_3D('',#1267,#1012,#1013);
#887=AXIS2_PLACEMENT_3D('',#1269,#1014,#1015);
#888=AXIS2_PLACEMENT_3D('',#1271,#1016,#1017);
#889=AXIS2_PLACEMENT_3D('',#1273,#1018,#1019);
#890=AXIS2_PLACEMENT_3D('',#1275,#1020,#1021);
#891=AXIS2_PLACEMENT_3D('',#1276,#1022,#1023);
#892=AXIS2_PLACEMENT_3D('',#1293,#1032,#1033);
#893=AXIS2_PLACEMENT_3D('',#1299,#1037,#1038);
#894=AXIS2_PLACEMENT_3D('',#1303,#1041,#1042);
#895=AXIS2_PLACEMENT_3D('',#1306,#1045,#1046);
#896=AXIS2_PLACEMENT_3D('',#1308,#1048,#1049);
#897=AXIS2_PLACEMENT_3D('',#1312,#1052,#1053);
#898=AXIS2_PLACEMENT_3D('',#1314,#1055,#1056);
#899=AXIS2_PLACEMENT_3D('',#1316,#1058,#1059);
#900=AXIS2_PLACEMENT_3D('',#1317,#1060,#1061);
#901=AXIS2_PLACEMENT_3D('',#1319,#1062,#1063);
#902=AXIS2_PLACEMENT_3D('',#1321,#1064,#1065);
#903=AXIS2_PLACEMENT_3D('',#1323,#1066,#1067);
#904=AXIS2_PLACEMENT_3D('',#1325,#1068,#1069);
#905=AXIS2_PLACEMENT_3D('',#1335,#1074,#1075);
#906=AXIS2_PLACEMENT_3D('',#1345,#1080,#1081);
#907=AXIS2_PLACEMENT_3D('',#1347,#1082,#1083);
#908=AXIS2_PLACEMENT_3D('',#1349,#1084,#1085);
#909=AXIS2_PLACEMENT_3D('',#1351,#1086,#1087);
#910=AXIS2_PLACEMENT_3D('',#1352,#1088,#1089);
#911=AXIS2_PLACEMENT_3D('',#1355,#1091,#1092);
#912=AXIS2_PLACEMENT_3D('',#1356,#1093,#1094);
#913=AXIS2_PLACEMENT_3D('',#1357,#1095,#1096);
#914=AXIS2_PLACEMENT_3D('',#1360,#1098,#1099);
#915=AXIS2_PLACEMENT_3D('',#1361,#1100,#1101);
#916=AXIS2_PLACEMENT_3D('',#1362,#1102,#1103);
#917=AXIS2_PLACEMENT_3D('',#1365,#1105,#1106);
#918=AXIS2_PLACEMENT_3D('',#1366,#1107,#1108);
#919=AXIS2_PLACEMENT_3D('',#1367,#1109,#1110);
#920=AXIS2_PLACEMENT_3D('',#1370,#1112,#1113);
#921=AXIS2_PLACEMENT_3D('',#1371,#1114,#1115);
#922=AXIS2_PLACEMENT_3D('',#1372,#1116,#1117);
#923=AXIS2_PLACEMENT_3D('',#1375,#1119,#1120);
#924=AXIS2_PLACEMENT_3D('',#1376,#1121,#1122);
#925=AXIS2_PLACEMENT_3D('',#1377,#1123,#1124);
#926=AXIS2_PLACEMENT_3D('',#1380,#1126,#1127);
#927=AXIS2_PLACEMENT_3D('',#1381,#1128,#1129);
#928=AXIS2_PLACEMENT_3D('',#1382,#1130,#1131);
#929=AXIS2_PLACEMENT_3D('',#1385,#1133,#1134);
#930=AXIS2_PLACEMENT_3D('',#1386,#1135,#1136);
#931=AXIS2_PLACEMENT_3D('',#1387,#1137,#1138);
#932=AXIS2_PLACEMENT_3D('',#1390,#1140,#1141);
#933=AXIS2_PLACEMENT_3D('',#1391,#1142,#1143);
#934=AXIS2_PLACEMENT_3D('',#1392,#1144,#1145);
#935=AXIS2_PLACEMENT_3D('',#1395,#1148,#1149);
#936=AXIS2_PLACEMENT_3D('',#1397,#1151,#1152);
#937=AXIS2_PLACEMENT_3D('',#1403,#1156,#1157);
#938=AXIS2_PLACEMENT_3D('',#1407,#1160,#1161);
#939=AXIS2_PLACEMENT_3D('',#1411,#1164,#1165);
#940=AXIS2_PLACEMENT_3D('',#1413,#1167,#1168);
#941=AXIS2_PLACEMENT_3D('',#1414,#1169,#1170);
#942=AXIS2_PLACEMENT_3D('',#1416,#1172,#1173);
#943=AXIS2_PLACEMENT_3D('',#1417,#1174,#1175);
#944=AXIS2_PLACEMENT_3D('',#1418,#1176,#1177);
#945=AXIS2_PLACEMENT_3D('',#1420,#1179,#1180);
#946=AXIS2_PLACEMENT_3D('',#1423,#1182,#1183);
#947=AXIS2_PLACEMENT_3D('',#1424,#1184,#1185);
#948=AXIS2_PLACEMENT_3D('',#1427,#1187,#1188);
#949=AXIS2_PLACEMENT_3D('',#1428,#1189,#1190);
#950=AXIS2_PLACEMENT_3D('',#1431,#1192,#1193);
#951=AXIS2_PLACEMENT_3D('',#1432,#1194,#1195);
#952=AXIS2_PLACEMENT_3D('',#1435,#1197,#1198);
#953=AXIS2_PLACEMENT_3D('',#1436,#1199,#1200);
#954=DIRECTION('axis',(0.,0.,1.));
#955=DIRECTION('refdir',(1.,0.,0.));
#956=DIRECTION('center_axis',(0.,-0.0871557427476582,0.996194698091746));
#957=DIRECTION('ref_axis',(-0.707106781186548,0.704416026402758,0.0616284167162194));
#958=DIRECTION('center_axis',(0.,0.0871557427476581,-0.996194698091746));
#959=DIRECTION('ref_axis',(-0.707106781186548,0.704416026402758,0.0616284167162194));
#960=DIRECTION('',(0.,0.0871557427476582,-0.996194698091746));
#961=DIRECTION('center_axis',(0.,-0.0871557427476582,0.996194698091746));
#962=DIRECTION('ref_axis',(-0.707106781186548,0.704416026402758,0.0616284167162194));
#963=DIRECTION('',(0.,-0.0871557427476582,0.996194698091746));
#964=DIRECTION('center_axis',(-1.,0.,0.));
#965=DIRECTION('ref_axis',(0.,-0.996194698091746,-0.0871557427476582));
#966=DIRECTION('',(1.30614473485313E-16,0.996194698091746,0.0871557427476577));
#967=DIRECTION('',(0.,0.0871557427476582,-0.996194698091746));
#968=DIRECTION('',(0.,0.996194698091746,0.0871557427476581));
#969=DIRECTION('center_axis',(0.,0.0871557427476582,-0.996194698091746));
#970=DIRECTION('ref_axis',(-1.,0.,0.));
#971=DIRECTION('',(1.,-1.96548446913724E-17,2.24655902825039E-16));
#972=DIRECTION('center_axis',(0.,-0.0871557427476582,0.996194698091746));
#973=DIRECTION('ref_axis',(0.707106781186548,0.704416026402758,0.0616284167162194));
#974=DIRECTION('',(0.,-0.996194698091746,-0.0871557427476582));
#975=DIRECTION('center_axis',(0.,-0.0871557427476582,0.996194698091746));
#976=DIRECTION('ref_axis',(0.707106781186546,-0.70441602640276,-0.0616284167162196));
#977=DIRECTION('',(-1.,3.45624465884676E-17,3.02382226021113E-18));
#978=DIRECTION('center_axis',(0.,-0.0871557427476582,0.996194698091746));
#979=DIRECTION('ref_axis',(-0.707106781186549,-0.704416026402757,-0.0616284167162195));
#980=DIRECTION('',(0.,0.996194698091746,0.0871557427476582));
#981=DIRECTION('',(-1.,0.,0.));
#982=DIRECTION('',(0.,-0.996194698091746,-0.0871557427476582));
#983=DIRECTION('',(1.,-7.43528262743504E-17,-6.50502940011813E-18));
#984=DIRECTION('center_axis',(0.,-0.0871557427476582,0.996194698091746));
#985=DIRECTION('ref_axis',(0.707106781186548,0.704416026402758,0.0616284167162194));
#986=DIRECTION('center_axis',(0.,0.0871557427476581,-0.996194698091746));
#987=DIRECTION('ref_axis',(0.707106781186548,0.704416026402758,0.0616284167162194));
#988=DIRECTION('',(0.,0.0871557427476582,-0.996194698091746));
#989=DIRECTION('',(0.,-0.0871557427476582,0.996194698091746));
#990=DIRECTION('center_axis',(1.,-1.30117445980113E-16,-1.13838014502067E-17));
#991=DIRECTION('ref_axis',(1.30614473485313E-16,0.996194698091746,0.0871557427476577));
#992=DIRECTION('',(-1.30614473485313E-16,-0.996194698091746,-0.0871557427476581));
#993=DIRECTION('',(0.,-0.0871557427476582,0.996194698091746));
#994=DIRECTION('center_axis',(0.,-0.0871557427476582,0.996194698091746));
#995=DIRECTION('ref_axis',(0.707106781186546,-0.70441602640276,-0.0616284167162196));
#996=DIRECTION('center_axis',(0.,0.0871557427476581,-0.996194698091746));
#997=DIRECTION('ref_axis',(0.707106781186546,-0.70441602640276,-0.0616284167162196));
#998=DIRECTION('',(0.,0.0871557427476582,-0.996194698091746));
#999=DIRECTION('center_axis',(0.,0.0871557427476582,-0.996194698091746));
#1000=DIRECTION('ref_axis',(-0.707106781186549,-0.704416026402757,-0.0616284167162195));
#1001=DIRECTION('',(0.,-0.0871557427476582,0.996194698091746));
#1002=DIRECTION('center_axis',(0.,0.0871557427476581,-0.996194698091746));
#1003=DIRECTION('ref_axis',(-0.707106781186549,-0.704416026402757,-0.0616284167162195));
#1004=DIRECTION('center_axis',(0.,-0.0871557427476581,0.996194698091746));
#1005=DIRECTION('ref_axis',(1.,0.,0.));
#1006=DIRECTION('',(-1.,0.,0.));
#1007=DIRECTION('',(1.,-1.0130214333332E-31,-8.86278913254374E-33));
#1008=DIRECTION('',(0.,0.996194698091746,0.0871557427476581));
#1009=DIRECTION('',(1.,0.,0.));
#1010=DIRECTION('',(0.,-0.996194698091746,-0.0871557427476581));
#1011=DIRECTION('',(-1.,0.,0.));
#1012=DIRECTION('center_axis',(0.,-0.0871557427476581,0.996194698091746));
#1013=DIRECTION('ref_axis',(1.,0.,0.));
#1014=DIRECTION('center_axis',(0.,-0.0871557427476581,0.996194698091746));
#1015=DIRECTION('ref_axis',(1.,0.,0.));
#1016=DIRECTION('center_axis',(0.,-0.0871557427476581,0.996194698091746));
#1017=DIRECTION('ref_axis',(1.,0.,0.));
#1018=DIRECTION('center_axis',(0.,-0.0871557427476581,0.996194698091746));
#1019=DIRECTION('ref_axis',(1.,0.,0.));
#1020=DIRECTION('center_axis',(0.,-0.0871557427476581,0.996194698091746));
#1021=DIRECTION('ref_axis',(1.,0.,0.));
#1022=DIRECTION('center_axis',(0.,-0.0871557427476599,0.996194698091745));
#1023=DIRECTION('ref_axis',(1.,0.,0.));
#1024=DIRECTION('',(1.,-7.43528262743504E-17,-6.50502940011825E-18));
#1025=DIRECTION('',(0.,-0.996194698091745,-0.0871557427476599));
#1026=DIRECTION('',(-1.,0.,0.));
#1027=DIRECTION('',(0.,0.996194698091745,0.0871557427476599));
#1028=DIRECTION('',(-1.,0.,0.));
#1029=DIRECTION('',(0.,-0.996194698091745,-0.0871557427476599));
#1030=DIRECTION('',(1.,0.,0.));
#1031=DIRECTION('',(-1.61486985400023E-16,0.996194698091745,0.0871557427476599));
#1032=DIRECTION('center_axis',(-1.,0.,0.));
#1033=DIRECTION('ref_axis',(0.,0.996194698091746,0.0871557427476577));
#1034=DIRECTION('',(0.,0.0871557427476581,-0.996194698091746));
#1035=DIRECTION('',(0.,-0.996194698091746,-0.0871557427476582));
#1036=DIRECTION('',(0.,0.0871557427476581,-0.996194698091746));
#1037=DIRECTION('center_axis',(0.,0.996194698091746,0.0871557427476581));
#1038=DIRECTION('ref_axis',(1.,0.,0.));
#1039=DIRECTION('',(0.,0.0871557427476581,-0.996194698091746));
#1040=DIRECTION('',(-1.,0.,0.));
#1041=DIRECTION('center_axis',(-1.,0.,0.));
#1042=DIRECTION('ref_axis',(0.,0.996194698091746,0.0871557427476577));
#1043=DIRECTION('',(0.,0.0871557427476581,-0.996194698091746));
#1044=DIRECTION('',(0.,0.0871557427476581,-0.996194698091746));
#1045=DIRECTION('center_axis',(-7.46368419916072E-17,-0.996194698091746,
-0.0871557427476581));
#1046=DIRECTION('ref_axis',(-1.,7.43528262743504E-17,6.50502940011809E-18));
#1047=DIRECTION('',(0.,0.0871557427476581,-0.996194698091746));
#1048=DIRECTION('center_axis',(1.,1.60872478666322E-16,1.40745181566192E-17));
#1049=DIRECTION('ref_axis',(1.61486985400023E-16,-0.996194698091746,-0.0871557427476577));
#1050=DIRECTION('',(0.,0.0871557427476581,-0.996194698091746));
#1051=DIRECTION('',(-1.61486985400023E-16,0.996194698091746,0.0871557427476582));
#1052=DIRECTION('center_axis',(0.,-0.996194698091746,-0.0871557427476581));
#1053=DIRECTION('ref_axis',(-1.,0.,0.));
#1054=DIRECTION('',(1.,0.,0.));
#1055=DIRECTION('center_axis',(1.,0.,0.));
#1056=DIRECTION('ref_axis',(0.,-0.996194698091746,-0.0871557427476577));
#1057=DIRECTION('',(0.,0.0871557427476581,-0.996194698091746));
#1058=DIRECTION('center_axis',(0.,0.996194698091746,0.0871557427476581));
#1059=DIRECTION('ref_axis',(1.,0.,0.));
#1060=DIRECTION('center_axis',(0.,0.0871557427476582,-0.996194698091746));
#1061=DIRECTION('ref_axis',(-1.,0.,0.));
#1062=DIRECTION('center_axis',(0.,-0.0871557427476582,0.996194698091746));
#1063=DIRECTION('ref_axis',(-1.,0.,0.));
#1064=DIRECTION('center_axis',(0.,-0.0871557427476582,0.996194698091746));
#1065=DIRECTION('ref_axis',(-1.,0.,0.));
#1066=DIRECTION('center_axis',(0.,-0.0871557427476582,0.996194698091746));
#1067=DIRECTION('ref_axis',(-1.,0.,0.));
#1068=DIRECTION('center_axis',(0.,-0.0871557427476582,0.996194698091746));
#1069=DIRECTION('ref_axis',(-1.,0.,0.));
#1070=DIRECTION('',(0.,-0.996194698091746,-0.0871557427476582));
#1071=DIRECTION('',(1.,9.61606855777132E-17,3.31788342252886E-17));
#1072=DIRECTION('',(0.,0.996194698091746,0.0871557427476582));
#1073=DIRECTION('',(1.,9.61606855777132E-17,3.31788342252886E-17));
#1074=DIRECTION('center_axis',(0.,-0.0871557427476582,0.996194698091746));
#1075=DIRECTION('ref_axis',(-1.,0.,0.));
#1076=DIRECTION('',(1.,0.,0.));
#1077=DIRECTION('',(0.,0.996194698091746,0.0871557427476577));
#1078=DIRECTION('',(-1.,0.,0.));
#1079=DIRECTION('',(0.,-0.996194698091746,-0.0871557427476577));
#1080=DIRECTION('center_axis',(0.,-0.0871557427476582,0.996194698091746));
#1081=DIRECTION('ref_axis',(-1.,0.,0.));
#1082=DIRECTION('center_axis',(0.,-0.0871557427476582,0.996194698091746));
#1083=DIRECTION('ref_axis',(-1.,0.,0.));
#1084=DIRECTION('center_axis',(0.,-0.0871557427476582,0.996194698091746));
#1085=DIRECTION('ref_axis',(-1.,0.,0.));
#1086=DIRECTION('center_axis',(0.,-0.0871557427476582,0.996194698091746));
#1087=DIRECTION('ref_axis',(-1.,0.,0.));
#1088=DIRECTION('center_axis',(0.,-0.0871557427476579,0.996194698091746));
#1089=DIRECTION('ref_axis',(-1.,0.,0.));
#1090=DIRECTION('',(0.,-0.0871557427476579,0.996194698091746));
#1091=DIRECTION('center_axis',(0.,-0.0871557427476577,0.996194698091746));
#1092=DIRECTION('ref_axis',(-1.,0.,0.));
#1093=DIRECTION('center_axis',(0.,0.0871557427476577,-0.996194698091746));
#1094=DIRECTION('ref_axis',(-1.,0.,0.));
#1095=DIRECTION('center_axis',(0.,-0.087155742747657,0.996194698091746));
#1096=DIRECTION('ref_axis',(-1.,0.,0.));
#1097=DIRECTION('',(0.,-0.087155742747657,0.996194698091746));
#1098=DIRECTION('center_axis',(0.,-0.0871557427476577,0.996194698091746));
#1099=DIRECTION('ref_axis',(-1.,0.,0.));
#1100=DIRECTION('center_axis',(0.,0.0871557427476577,-0.996194698091746));
#1101=DIRECTION('ref_axis',(-1.,0.,0.));
#1102=DIRECTION('center_axis',(0.,-0.0871557427476579,0.996194698091746));
#1103=DIRECTION('ref_axis',(-1.,0.,0.));
#1104=DIRECTION('',(0.,-0.0871557427476579,0.996194698091746));
#1105=DIRECTION('center_axis',(0.,-0.0871557427476577,0.996194698091746));
#1106=DIRECTION('ref_axis',(-1.,0.,0.));
#1107=DIRECTION('center_axis',(0.,0.0871557427476577,-0.996194698091746));
#1108=DIRECTION('ref_axis',(-1.,0.,0.));
#1109=DIRECTION('center_axis',(0.,-0.087155742747657,0.996194698091746));
#1110=DIRECTION('ref_axis',(-1.,0.,0.));
#1111=DIRECTION('',(0.,-0.087155742747657,0.996194698091746));
#1112=DIRECTION('center_axis',(0.,-0.0871557427476577,0.996194698091746));
#1113=DIRECTION('ref_axis',(-1.,0.,0.));
#1114=DIRECTION('center_axis',(0.,0.0871557427476577,-0.996194698091746));
#1115=DIRECTION('ref_axis',(-1.,0.,0.));
#1116=DIRECTION('center_axis',(0.,-0.0871557427476579,0.996194698091746));
#1117=DIRECTION('ref_axis',(-1.,0.,0.));
#1118=DIRECTION('',(0.,-0.0871557427476579,0.996194698091746));
#1119=DIRECTION('center_axis',(0.,-0.0871557427476577,0.996194698091746));
#1120=DIRECTION('ref_axis',(-1.,0.,0.));
#1121=DIRECTION('center_axis',(0.,0.0871557427476577,-0.996194698091746));
#1122=DIRECTION('ref_axis',(-1.,0.,0.));
#1123=DIRECTION('center_axis',(0.,-0.0871557427476579,0.996194698091746));
#1124=DIRECTION('ref_axis',(-1.,0.,0.));
#1125=DIRECTION('',(0.,-0.0871557427476579,0.996194698091746));
#1126=DIRECTION('center_axis',(0.,-0.0871557427476577,0.996194698091746));
#1127=DIRECTION('ref_axis',(-1.,0.,0.));
#1128=DIRECTION('center_axis',(0.,0.0871557427476577,-0.996194698091746));
#1129=DIRECTION('ref_axis',(-1.,0.,0.));
#1130=DIRECTION('center_axis',(0.,-0.0871557427476579,0.996194698091746));
#1131=DIRECTION('ref_axis',(-1.,0.,0.));
#1132=DIRECTION('',(0.,-0.0871557427476579,0.996194698091746));
#1133=DIRECTION('center_axis',(0.,-0.0871557427476577,0.996194698091746));
#1134=DIRECTION('ref_axis',(-1.,0.,0.));
#1135=DIRECTION('center_axis',(0.,0.0871557427476577,-0.996194698091746));
#1136=DIRECTION('ref_axis',(-1.,0.,0.));
#1137=DIRECTION('center_axis',(0.,-0.0871557427476579,0.996194698091746));
#1138=DIRECTION('ref_axis',(-1.,0.,0.));
#1139=DIRECTION('',(0.,-0.087155742747658,0.996194698091745));
#1140=DIRECTION('center_axis',(0.,-0.0871557427476577,0.996194698091746));
#1141=DIRECTION('ref_axis',(-1.,0.,0.));
#1142=DIRECTION('center_axis',(0.,0.0871557427476577,-0.996194698091746));
#1143=DIRECTION('ref_axis',(-1.,0.,0.));
#1144=DIRECTION('center_axis',(0.,-0.996194698091745,-0.0871557427476601));
#1145=DIRECTION('ref_axis',(0.,0.0871557427476601,-0.996194698091745));
#1146=DIRECTION('',(0.,-0.0871557427476601,0.996194698091745));
#1147=DIRECTION('',(0.,0.0871557427476601,-0.996194698091745));
#1148=DIRECTION('center_axis',(-1.,0.,0.));
#1149=DIRECTION('ref_axis',(0.,0.996194698091746,0.0871557427476578));
#1150=DIRECTION('',(0.,0.0871557427476569,-0.996194698091746));
#1151=DIRECTION('center_axis',(1.,0.,0.));
#1152=DIRECTION('ref_axis',(0.,-0.996194698091746,-0.0871557427476577));
#1153=DIRECTION('',(0.,0.996194698091746,0.0871557427476582));
#1154=DIRECTION('',(0.,0.0871557427476569,-0.996194698091746));
#1155=DIRECTION('',(0.,0.0871557427476569,-0.996194698091746));
#1156=DIRECTION('center_axis',(0.,-0.996194698091746,-0.0871557427476569));
#1157=DIRECTION('ref_axis',(-1.,0.,0.));
#1158=DIRECTION('',(1.,0.,0.));
#1159=DIRECTION('',(0.,0.0871557427476569,-0.996194698091746));
#1160=DIRECTION('center_axis',(-1.,0.,0.));
#1161=DIRECTION('ref_axis',(0.,0.996194698091746,0.0871557427476577));
#1162=DIRECTION('',(0.,-0.996194698091746,-0.0871557427476582));
#1163=DIRECTION('',(0.,0.0871557427476569,-0.996194698091746));
#1164=DIRECTION('center_axis',(0.,0.996194698091746,0.0871557427476569));
#1165=DIRECTION('ref_axis',(1.,0.,0.));
#1166=DIRECTION('',(-1.,0.,0.));
#1167=DIRECTION('center_axis',(1.01689101063646E-31,0.996194698091746,0.0871557427476582));
#1168=DIRECTION('ref_axis',(-1.,-2.1166755821478E-17,2.41937126119273E-16));
#1169=DIRECTION('center_axis',(0.,-0.996194698091746,-0.0871557427476582));
#1170=DIRECTION('ref_axis',(-1.,0.,0.));
#1171=DIRECTION('',(0.,0.0871557427476582,-0.996194698091746));
#1172=DIRECTION('center_axis',(1.,0.,0.));
#1173=DIRECTION('ref_axis',(0.,-0.996194698091746,-0.0871557427476578));
#1174=DIRECTION('center_axis',(0.,-0.996194698091746,-0.0871557427476582));
#1175=DIRECTION('ref_axis',(1.,0.,0.));
#1176=DIRECTION('center_axis',(0.,0.0871557427476578,-0.996194698091746));
#1177=DIRECTION('ref_axis',(1.,0.,0.));
#1178=DIRECTION('',(0.,0.0871557427476578,-0.996194698091746));
#1179=DIRECTION('center_axis',(0.,0.0871557427476582,-0.996194698091746));
#1180=DIRECTION('ref_axis',(1.,0.,0.));
#1181=DIRECTION('',(0.,0.0871557427476582,-0.996194698091746));
#1182=DIRECTION('center_axis',(0.,-0.0871557427476582,0.996194698091746));
#1183=DIRECTION('ref_axis',(1.,0.,0.));
#1184=DIRECTION('center_axis',(0.,0.0871557427476582,-0.996194698091746));
#1185=DIRECTION('ref_axis',(1.,0.,0.));
#1186=DIRECTION('',(0.,0.0871557427476582,-0.996194698091746));
#1187=DIRECTION('center_axis',(0.,-0.0871557427476582,0.996194698091746));
#1188=DIRECTION('ref_axis',(1.,0.,0.));
#1189=DIRECTION('center_axis',(0.,0.0871557427476582,-0.996194698091746));
#1190=DIRECTION('ref_axis',(1.,0.,0.));
#1191=DIRECTION('',(0.,0.0871557427476582,-0.996194698091746));
#1192=DIRECTION('center_axis',(0.,-0.0871557427476582,0.996194698091746));
#1193=DIRECTION('ref_axis',(1.,0.,0.));
#1194=DIRECTION('center_axis',(0.,0.0871557427476582,-0.996194698091746));
#1195=DIRECTION('ref_axis',(1.,0.,0.));
#1196=DIRECTION('',(0.,0.0871557427476582,-0.996194698091746));
#1197=DIRECTION('center_axis',(0.,-0.0871557427476582,0.996194698091746));
#1198=DIRECTION('ref_axis',(1.,0.,0.));
#1199=DIRECTION('center_axis',(0.,-0.0871557427476582,0.996194698091746));
#1200=DIRECTION('ref_axis',(1.,0.,0.));
#1201=CARTESIAN_POINT('',(0.,0.,0.));
#1202=CARTESIAN_POINT('Origin',(-122.,58.0190810420206,31.1780344808654));
#1203=CARTESIAN_POINT('',(-128.,57.8447695565253,33.1704238770489));
#1204=CARTESIAN_POINT('',(-122.,63.8219377450758,33.6933583335348));
#1205=CARTESIAN_POINT('Origin',(-122.,57.8447695565253,33.1704238770489));
#1206=CARTESIAN_POINT('',(-122.,64.257716458814,28.712384843076));
#1207=CARTESIAN_POINT('',(-122.,63.9962492305711,31.7009689373513));
#1208=CARTESIAN_POINT('',(-128.,58.2805482702636,28.1894503865901));
#1209=CARTESIAN_POINT('Origin',(-122.,58.2805482702636,28.1894503865902));
#1210=CARTESIAN_POINT('',(-128.,58.0190810420206,31.1780344808654));
#1211=CARTESIAN_POINT('Origin',(-128.,63.9962492305711,31.7009689373513));
#1212=CARTESIAN_POINT('',(-128.,-65.2475942931129,17.3821382858805));
#1213=CARTESIAN_POINT('',(-128.,64.257716458814,28.712384843076));
#1214=CARTESIAN_POINT('',(-128.,-65.6833730068512,22.3631117763393));
#1215=CARTESIAN_POINT('',(-128.,-65.5090615213559,20.3707223801558));
#1216=CARTESIAN_POINT('',(-128.,29.9513180099564,30.7300630801145));
#1217=CARTESIAN_POINT('Origin',(-1.77635683940025E-14,-3.48352301142468,
22.7857943362353));
#1218=CARTESIAN_POINT('',(122.,64.257716458814,28.7123848430761));
#1219=CARTESIAN_POINT('',(128.,64.257716458814,28.7123848430761));
#1220=CARTESIAN_POINT('',(128.,58.2805482702636,28.1894503865901));
#1221=CARTESIAN_POINT('Origin',(122.,58.2805482702636,28.1894503865902));
#1222=CARTESIAN_POINT('',(128.,-65.2475942931129,17.3821382858805));
#1223=CARTESIAN_POINT('',(128.,-71.2247624816634,16.8592038293946));
#1224=CARTESIAN_POINT('',(122.,-71.2247624816634,16.8592038293946));
#1225=CARTESIAN_POINT('Origin',(122.,-65.2475942931129,17.3821382858805));
#1226=CARTESIAN_POINT('',(-122.,-71.2247624816634,16.8592038293946));
#1227=CARTESIAN_POINT('',(-128.,-71.2247624816634,16.8592038293946));
#1228=CARTESIAN_POINT('Origin',(-122.,-65.2475942931129,17.3821382858805));
#1229=CARTESIAN_POINT('',(119.,-62.2590101988377,17.6436055141235));
#1230=CARTESIAN_POINT('',(119.,55.2919641759883,27.9279831583471));
#1231=CARTESIAN_POINT('',(119.,25.9042205822818,25.3568887472913));
#1232=CARTESIAN_POINT('',(-119.,55.2919641759883,27.9279831583471));
#1233=CARTESIAN_POINT('',(-59.5,55.2919641759883,27.9279831583472));
#1234=CARTESIAN_POINT('',(-119.,-62.2590101988376,17.6436055141235));
#1235=CARTESIAN_POINT('',(-119.,-32.8712666051312,20.2146999251794));
#1236=CARTESIAN_POINT('',(59.5,-62.2590101988377,17.6436055141235));
#1237=CARTESIAN_POINT('Origin',(122.,58.0190810420206,31.1780344808654));
#1238=CARTESIAN_POINT('',(122.,63.8219377450758,33.6933583335348));
#1239=CARTESIAN_POINT('',(128.,57.8447695565253,33.1704238770489));
#1240=CARTESIAN_POINT('Origin',(122.,57.8447695565253,33.1704238770489));
#1241=CARTESIAN_POINT('',(128.,58.0190810420206,31.1780344808654));
#1242=CARTESIAN_POINT('',(122.,63.9962492305711,31.7009689373513));
#1243=CARTESIAN_POINT('Origin',(128.,-71.4862297099063,19.8477879236698));
#1244=CARTESIAN_POINT('',(128.,-65.6833730068512,22.3631117763393));
#1245=CARTESIAN_POINT('',(128.,-37.7899214602823,24.8034725732737));
#1246=CARTESIAN_POINT('',(128.,-65.5090615213558,20.3707223801558));
#1247=CARTESIAN_POINT('Origin',(122.,-65.5090615213558,20.3707223801558));
#1248=CARTESIAN_POINT('',(122.,-71.6605411954016,21.8401773198533));
#1249=CARTESIAN_POINT('Origin',(122.,-65.6833730068512,22.3631117763393));
#1250=CARTESIAN_POINT('',(122.,-71.4862297099063,19.8477879236698));
#1251=CARTESIAN_POINT('Origin',(-122.,-65.5090615213559,20.3707223801558));
#1252=CARTESIAN_POINT('',(-122.,-71.6605411954016,21.8401773198533));
#1253=CARTESIAN_POINT('',(-122.,-71.4862297099063,19.8477879236698));
#1254=CARTESIAN_POINT('Origin',(-122.,-65.6833730068512,22.3631117763393));
#1255=CARTESIAN_POINT('Origin',(-3.5527136788005E-14,-3.91930172516293,
27.7667678266941));
#1256=CARTESIAN_POINT('',(-64.,-71.6605411954016,21.8401773198533));
#1257=CARTESIAN_POINT('',(64.,63.8219377450758,33.6933583335348));
#1258=CARTESIAN_POINT('',(109.,-31.3146559226859,25.3699849011335));
#1259=CARTESIAN_POINT('',(109.,29.4532206609105,30.6864852087406));
#1260=CARTESIAN_POINT('',(109.,13.2650568169197,29.2702043890912));
#1261=CARTESIAN_POINT('',(64.,-31.3146559226859,25.3699849011335));
#1262=CARTESIAN_POINT('',(54.5,-31.3146559226859,25.3699849011335));
#1263=CARTESIAN_POINT('',(64.,29.4532206609105,30.6864852087406));
#1264=CARTESIAN_POINT('',(64.,-17.6169788239244,26.5683763639138));
#1265=CARTESIAN_POINT('',(32.,29.4532206609105,30.6864852087406));
#1266=CARTESIAN_POINT('',(-95.,-2.92310702707117,27.8539235694417));
#1267=CARTESIAN_POINT('Origin',(-75.,-2.9231070270712,27.8539235694417));
#1268=CARTESIAN_POINT('',(25.,27.958928613773,30.5557515946191));
#1269=CARTESIAN_POINT('Origin',(40.,27.9589286137729,30.5557515946191));
#1270=CARTESIAN_POINT('',(25.,-31.8127532717318,25.3264070297597));
#1271=CARTESIAN_POINT('Origin',(40.,-31.8127532717318,25.3264070297596));
#1272=CARTESIAN_POINT('',(-25.,-31.8127532717318,25.3264070297597));
#1273=CARTESIAN_POINT('Origin',(-10.,-31.8127532717318,25.3264070297596));
#1274=CARTESIAN_POINT('',(-25.,27.958928613773,30.5557515946191));
#1275=CARTESIAN_POINT('Origin',(-10.,27.9589286137729,30.5557515946191));
#1276=CARTESIAN_POINT('Origin',(-1.77635683940025E-14,-2.78627706944341,
14.8162367515015));
#1277=CARTESIAN_POINT('',(-119.,-61.5617642568564,9.67404792938957));
#1278=CARTESIAN_POINT('',(119.,-61.5617642568564,9.67404792938957));
#1279=CARTESIAN_POINT('',(59.5,-61.5617642568564,9.67404792938956));
#1280=CARTESIAN_POINT('',(-119.,55.9892101179696,19.9584255736132));
#1281=CARTESIAN_POINT('',(-119.,-32.1740206631499,12.2451423404455));
#1282=CARTESIAN_POINT('',(119.,55.9892101179696,19.9584255736132));
#1283=CARTESIAN_POINT('',(-59.5,55.9892101179696,19.9584255736134));
#1284=CARTESIAN_POINT('',(119.,26.6014665242631,17.3873311625575));
#1285=CARTESIAN_POINT('',(115.,-57.5769854644894,10.0226709003802));
#1286=CARTESIAN_POINT('',(-115.,-57.5769854644894,10.0226709003802));
#1287=CARTESIAN_POINT('',(-57.5,-57.5769854644894,10.0226709003802));
#1288=CARTESIAN_POINT('',(115.,52.0044313256026,19.6098026026226));
#1289=CARTESIAN_POINT('',(115.,-30.1816312669664,12.4194538259408));
#1290=CARTESIAN_POINT('',(-115.,52.0044313256026,19.6098026026226));
#1291=CARTESIAN_POINT('',(57.5,52.0044313256026,19.6098026026228));
#1292=CARTESIAN_POINT('',(-115.,24.6090771280796,17.2130196770621));
#1293=CARTESIAN_POINT('Origin',(115.,-58.2742314064706,17.9922284851142));
#1294=CARTESIAN_POINT('',(115.,-58.2742314064706,17.9922284851142));
#1295=CARTESIAN_POINT('',(115.,-58.2742314064706,17.9922284851142));
#1296=CARTESIAN_POINT('',(115.,51.3071853836214,27.5793601873565));
#1297=CARTESIAN_POINT('',(115.,-30.8788772089477,20.3890114106748));
#1298=CARTESIAN_POINT('',(115.,51.3071853836214,27.5793601873565));
#1299=CARTESIAN_POINT('Origin',(-115.,-58.2742314064706,17.9922284851142));
#1300=CARTESIAN_POINT('',(-115.,-58.2742314064706,17.9922284851142));
#1301=CARTESIAN_POINT('',(-115.,-58.2742314064706,17.9922284851142));
#1302=CARTESIAN_POINT('',(-57.5,-58.2742314064706,17.9922284851142));
#1303=CARTESIAN_POINT('Origin',(-119.,-62.2590101988376,17.6436055141235));
#1304=CARTESIAN_POINT('',(-119.,-62.2590101988376,17.6436055141235));
#1305=CARTESIAN_POINT('',(-119.,55.2919641759883,27.9279831583471));
#1306=CARTESIAN_POINT('Origin',(119.,-62.2590101988377,17.6436055141235));
#1307=CARTESIAN_POINT('',(119.,-62.2590101988377,17.6436055141235));
#1308=CARTESIAN_POINT('Origin',(-115.,51.3071853836213,27.5793601873565));
#1309=CARTESIAN_POINT('',(-115.,51.3071853836213,27.5793601873565));
#1310=CARTESIAN_POINT('',(-115.,51.3071853836213,27.5793601873565));
#1311=CARTESIAN_POINT('',(-115.,23.9118311860983,25.1825772617959));
#1312=CARTESIAN_POINT('Origin',(115.,51.3071853836213,27.5793601873565));
#1313=CARTESIAN_POINT('',(57.5,51.3071853836213,27.5793601873566));
#1314=CARTESIAN_POINT('Origin',(119.,55.2919641759883,27.9279831583471));
#1315=CARTESIAN_POINT('',(119.,55.2919641759883,27.9279831583471));
#1316=CARTESIAN_POINT('Origin',(-119.,55.2919641759883,27.9279831583471));
#1317=CARTESIAN_POINT('Origin',(-1.77635683940025E-14,-3.48352301142468,
22.7857943362353));
#1318=CARTESIAN_POINT('',(-91.65,39.3528490065204,26.5334912743846));
#1319=CARTESIAN_POINT('Origin',(-95.,39.3528490065204,26.5334912743846));
#1320=CARTESIAN_POINT('',(-51.6500008195639,-44.3275056331862,19.2124088835814));
#1321=CARTESIAN_POINT('Origin',(-55.0000008195639,-44.3275056331862,19.2124088835814));
#1322=CARTESIAN_POINT('',(-51.65,39.3528490065204,26.5334912743846));
#1323=CARTESIAN_POINT('Origin',(-55.,39.3528490065204,26.5334912743846));
#1324=CARTESIAN_POINT('',(-91.65,-44.3275056331862,19.2124088835814));
#1325=CARTESIAN_POINT('Origin',(-95.,-44.3275056331862,19.2124088835814));
#1326=CARTESIAN_POINT('',(64.,29.8889993746488,25.7055117182819));
#1327=CARTESIAN_POINT('',(64.,-30.8788772089476,20.3890114106748));
#1328=CARTESIAN_POINT('',(64.,30.8851940727406,25.7926674610296));
#1329=CARTESIAN_POINT('',(109.,-30.8788772089476,20.3890114106748));
#1330=CARTESIAN_POINT('',(64.,-30.8788772089477,20.3890114106747));
#1331=CARTESIAN_POINT('',(109.,29.8889993746488,25.7055117182819));
#1332=CARTESIAN_POINT('',(109.,-30.8788772089477,20.3890114106748));
#1333=CARTESIAN_POINT('',(109.,29.8889993746488,25.7055117182819));
#1334=CARTESIAN_POINT('',(-95.,-2.4873283133329,22.872950078983));
#1335=CARTESIAN_POINT('Origin',(-75.,-2.48732831333292,22.872950078983));
#1336=CARTESIAN_POINT('',(-28.,-56.2818420102872,18.1665399706095));
#1337=CARTESIAN_POINT('',(58.,-56.2818420102872,18.1665399706095));
#1338=CARTESIAN_POINT('',(-28.,-56.2818420102872,18.1665399706095));
#1339=CARTESIAN_POINT('',(58.,49.3147959874379,27.4050487018612));
#1340=CARTESIAN_POINT('',(58.,-56.2818420102872,18.1665399706095));
#1341=CARTESIAN_POINT('',(-28.,49.3147959874379,27.4050487018612));
#1342=CARTESIAN_POINT('',(58.,49.3147959874378,27.4050487018612));
#1343=CARTESIAN_POINT('',(-28.,49.3147959874378,27.4050487018612));
#1344=CARTESIAN_POINT('',(106.900001564622,32.8775834689241,25.9669789465249));
#1345=CARTESIAN_POINT('Origin',(105.000001564622,32.8775834689241,25.9669789465249));
#1346=CARTESIAN_POINT('',(70.15,-34.1165099777459,20.1057552467449));
#1347=CARTESIAN_POINT('Origin',(68.25,-34.1165099777459,20.1057552467449));
#1348=CARTESIAN_POINT('',(70.15,32.8775834689241,25.9669789465249));
#1349=CARTESIAN_POINT('Origin',(68.25,32.8775834689241,25.9669789465249));
#1350=CARTESIAN_POINT('',(106.9,-34.1165099777459,20.1057552467449));
#1351=CARTESIAN_POINT('Origin',(105.,-34.1165099777459,20.1057552467449));
#1352=CARTESIAN_POINT('Origin',(-95.,39.3528490065204,26.5334912743846));
#1353=CARTESIAN_POINT('',(-91.65,38.9606481641559,31.0163674157975));
#1354=CARTESIAN_POINT('',(-91.65,39.3528490065204,26.5334912743846));
#1355=CARTESIAN_POINT('Origin',(-95.,38.9606481641559,31.0163674157975));
#1356=CARTESIAN_POINT('Origin',(-95.,38.9606481641559,31.0163674157975));
#1357=CARTESIAN_POINT('Origin',(-55.0000008195639,-44.3275056331862,19.2124088835814));
#1358=CARTESIAN_POINT('',(-51.6500008195639,-44.7197064755507,23.6952850249942));
#1359=CARTESIAN_POINT('',(-51.6500008195639,-44.3275056331862,19.2124088835814));
#1360=CARTESIAN_POINT('Origin',(-55.0000008195639,-44.7197064755507,23.6952850249942));
#1361=CARTESIAN_POINT('Origin',(-55.0000008195639,-44.7197064755507,23.6952850249942));
#1362=CARTESIAN_POINT('Origin',(-55.,39.3528490065204,26.5334912743846));
#1363=CARTESIAN_POINT('',(-51.65,38.9606481641559,31.0163674157975));
#1364=CARTESIAN_POINT('',(-51.65,39.3528490065204,26.5334912743846));
#1365=CARTESIAN_POINT('Origin',(-55.,38.9606481641559,31.0163674157975));
#1366=CARTESIAN_POINT('Origin',(-55.,38.9606481641559,31.0163674157975));
#1367=CARTESIAN_POINT('Origin',(-95.,-44.3275056331862,19.2124088835814));
#1368=CARTESIAN_POINT('',(-91.65,-44.7197064755507,23.6952850249942));
#1369=CARTESIAN_POINT('',(-91.65,-44.3275056331862,19.2124088835814));
#1370=CARTESIAN_POINT('Origin',(-95.,-44.7197064755507,23.6952850249942));
#1371=CARTESIAN_POINT('Origin',(-95.,-44.7197064755507,23.6952850249942));
#1372=CARTESIAN_POINT('Origin',(105.,-34.1165099777459,20.1057552467449));
#1373=CARTESIAN_POINT('',(106.9,-34.5087108201103,24.5886313881577));
#1374=CARTESIAN_POINT('',(106.9,-34.1165099777459,20.1057552467449));
#1375=CARTESIAN_POINT('Origin',(105.,-34.5087108201103,24.5886313881577));
#1376=CARTESIAN_POINT('Origin',(105.,-34.5087108201103,24.5886313881577));
#1377=CARTESIAN_POINT('Origin',(68.25,32.8775834689241,25.9669789465249));
#1378=CARTESIAN_POINT('',(70.15,32.4853826265596,30.4498550879377));
#1379=CARTESIAN_POINT('',(70.15,32.8775834689241,25.9669789465249));
#1380=CARTESIAN_POINT('Origin',(68.25,32.4853826265596,30.4498550879377));
#1381=CARTESIAN_POINT('Origin',(68.25,32.4853826265596,30.4498550879377));
#1382=CARTESIAN_POINT('Origin',(68.25,-34.1165099777459,20.1057552467449));
#1383=CARTESIAN_POINT('',(70.15,-34.5087108201103,24.5886313881577));
#1384=CARTESIAN_POINT('',(70.15,-34.1165099777459,20.1057552467449));
#1385=CARTESIAN_POINT('Origin',(68.25,-34.5087108201103,24.5886313881577));
#1386=CARTESIAN_POINT('Origin',(68.25,-34.5087108201103,24.5886313881577));
#1387=CARTESIAN_POINT('Origin',(105.000001564622,32.8775834689241,25.9669789465249));
#1388=CARTESIAN_POINT('',(106.900001564622,32.4853826265596,30.4498550879377));
#1389=CARTESIAN_POINT('',(106.900001564622,32.8775834689241,25.9669789465249));
#1390=CARTESIAN_POINT('Origin',(105.000001564622,32.4853826265596,30.4498550879377));
#1391=CARTESIAN_POINT('Origin',(105.000001564622,32.4853826265596,30.4498550879377));
#1392=CARTESIAN_POINT('Origin',(64.,29.1917534326676,33.6750693030158));
#1393=CARTESIAN_POINT('',(64.,29.1917534326676,33.6750693030159));
#1394=CARTESIAN_POINT('',(109.,29.1917534326676,33.6750693030158));
#1395=CARTESIAN_POINT('Origin',(64.,-31.5761231509289,28.3585689954087));
#1396=CARTESIAN_POINT('',(64.,-31.1403444371906,23.37759550495));
#1397=CARTESIAN_POINT('Origin',(-28.,49.0533287591949,30.3936327961364));
#1398=CARTESIAN_POINT('',(-28.,-56.5433092385302,21.1551240648847));
#1399=CARTESIAN_POINT('',(-28.,49.0533287591949,30.3936327961364));
#1400=CARTESIAN_POINT('',(-28.,22.6541692597636,28.0840056133235));
#1401=CARTESIAN_POINT('',(-28.,-56.5433092385302,21.1551240648847));
#1402=CARTESIAN_POINT('',(-28.,49.0533287591949,30.3936327961364));
#1403=CARTESIAN_POINT('Origin',(58.,49.0533287591949,30.3936327961364));
#1404=CARTESIAN_POINT('',(58.,49.0533287591949,30.3936327961364));
#1405=CARTESIAN_POINT('',(29.,49.0533287591949,30.3936327961365));
#1406=CARTESIAN_POINT('',(58.,49.0533287591949,30.3936327961364));
#1407=CARTESIAN_POINT('Origin',(58.,-56.5433092385302,21.1551240648847));
#1408=CARTESIAN_POINT('',(58.,-56.5433092385302,21.1551240648847));
#1409=CARTESIAN_POINT('',(58.,-30.1441497390989,23.4647512476976));
#1410=CARTESIAN_POINT('',(58.,-56.5433092385302,21.1551240648847));
#1411=CARTESIAN_POINT('Origin',(-28.,-56.5433092385302,21.1551240648847));
#1412=CARTESIAN_POINT('',(-14.,-56.5433092385302,21.1551240648847));
#1413=CARTESIAN_POINT('Origin',(128.,63.9962492305711,31.7009689373513));
#1414=CARTESIAN_POINT('Origin',(109.,-31.5761231509289,28.3585689954087));
#1415=CARTESIAN_POINT('',(109.,-31.5761231509289,28.3585689954087));
#1416=CARTESIAN_POINT('Origin',(109.,30.1879481307593,33.7622250457635));
#1417=CARTESIAN_POINT('Origin',(-128.,-71.4862297099063,19.8477879236698));
#1418=CARTESIAN_POINT('Origin',(-75.,-3.18457425531417,30.842507663717));
#1419=CARTESIAN_POINT('',(-95.,-3.18457425531417,30.842507663717));
#1420=CARTESIAN_POINT('Origin',(40.,27.6974613855299,33.5443356888944));
#1421=CARTESIAN_POINT('',(25.,28.1332400992682,28.5633621984356));
#1422=CARTESIAN_POINT('',(25.,27.6974613855299,33.5443356888944));
#1423=CARTESIAN_POINT('Origin',(40.,28.1332400992682,28.5633621984356));
#1424=CARTESIAN_POINT('Origin',(40.,-32.0742204999748,28.3149911240349));
#1425=CARTESIAN_POINT('',(25.,-31.6384417862365,23.3340176335762));
#1426=CARTESIAN_POINT('',(25.,-32.0742204999748,28.3149911240349));
#1427=CARTESIAN_POINT('Origin',(40.,-31.6384417862365,23.3340176335762));
#1428=CARTESIAN_POINT('Origin',(-10.,-32.0742204999748,28.3149911240349));
#1429=CARTESIAN_POINT('',(-25.,-31.6384417862365,23.3340176335762));
#1430=CARTESIAN_POINT('',(-25.,-32.0742204999748,28.3149911240349));
#1431=CARTESIAN_POINT('Origin',(-10.,-31.6384417862365,23.3340176335762));
#1432=CARTESIAN_POINT('Origin',(-10.,27.6974613855299,33.5443356888944));
#1433=CARTESIAN_POINT('',(-25.,28.1332400992682,28.5633621984356));
#1434=CARTESIAN_POINT('',(-25.,27.6974613855299,33.5443356888944));
#1435=CARTESIAN_POINT('Origin',(-10.,28.1332400992682,28.5633621984356));
#1436=CARTESIAN_POINT('Origin',(-3.5527136788005E-14,-3.74499023966763,
25.7743784305106));
#1437=UNCERTAINTY_MEASURE_WITH_UNIT(LENGTH_MEASURE(0.01),#1441,
'DISTANCE_ACCURACY_VALUE',
'Maximum model space distance between geometric entities at asserted c
onnectivities');
#1438=UNCERTAINTY_MEASURE_WITH_UNIT(LENGTH_MEASURE(0.01),#1441,
'DISTANCE_ACCURACY_VALUE',
'Maximum model space distance between geometric entities at asserted c
onnectivities');
#1439=(
GEOMETRIC_REPRESENTATION_CONTEXT(3)
GLOBAL_UNCERTAINTY_ASSIGNED_CONTEXT((#1437))
GLOBAL_UNIT_ASSIGNED_CONTEXT((#1441,#1443,#1444))
REPRESENTATION_CONTEXT('','3D')
);
#1440=(
GEOMETRIC_REPRESENTATION_CONTEXT(3)
GLOBAL_UNCERTAINTY_ASSIGNED_CONTEXT((#1438))
GLOBAL_UNIT_ASSIGNED_CONTEXT((#1441,#1443,#1444))
REPRESENTATION_CONTEXT('','3D')
);
#1441=(
LENGTH_UNIT()
NAMED_UNIT(*)
SI_UNIT(.MILLI.,.METRE.)
);
#1442=(
LENGTH_UNIT()
NAMED_UNIT(*)
SI_UNIT($,.METRE.)
);
#1443=(
NAMED_UNIT(*)
PLANE_ANGLE_UNIT()
SI_UNIT($,.RADIAN.)
);
#1444=(
NAMED_UNIT(*)
SI_UNIT($,.STERADIAN.)
SOLID_ANGLE_UNIT()
);
#1445=SHAPE_DEFINITION_REPRESENTATION(#1446,#1447);
#1446=PRODUCT_DEFINITION_SHAPE('',$,#1449);
#1447=SHAPE_REPRESENTATION('',(#869),#1439);
#1448=PRODUCT_DEFINITION_CONTEXT('part definition',#1453,'design');
#1449=PRODUCT_DEFINITION('Fusion-Komponente','Fusion-Komponente',#1450,
#1448);
#1450=PRODUCT_DEFINITION_FORMATION('',$,#1455);
#1451=PRODUCT_RELATED_PRODUCT_CATEGORY('Fusion-Komponente',
'Fusion-Komponente',(#1455));
#1452=APPLICATION_PROTOCOL_DEFINITION('international standard',
'automotive_design',2009,#1453);
#1453=APPLICATION_CONTEXT(
'Core Data for Automotive Mechanical Design Process');
#1454=PRODUCT_CONTEXT('part definition',#1453,'mechanical');
#1455=PRODUCT('Fusion-Komponente','Fusion-Komponente',$,(#1454));
#1456=PRESENTATION_STYLE_ASSIGNMENT((#1458));
#1457=PRESENTATION_STYLE_ASSIGNMENT((#1459));
#1458=SURFACE_STYLE_USAGE(.BOTH.,#1460);
#1459=SURFACE_STYLE_USAGE(.BOTH.,#1461);
#1460=SURFACE_SIDE_STYLE('',(#1462));
#1461=SURFACE_SIDE_STYLE('',(#1463));
#1462=SURFACE_STYLE_FILL_AREA(#1464);
#1463=SURFACE_STYLE_FILL_AREA(#1465);
#1464=FILL_AREA_STYLE('Stahl - satiniert',(#1466));
#1465=FILL_AREA_STYLE('Farbe - Emaille gl\X\E4nzend (Wei\X\DF)',(#1467));
#1466=FILL_AREA_STYLE_COLOUR('Stahl - satiniert',#1468);
#1467=FILL_AREA_STYLE_COLOUR('Farbe - Emaille gl\X\E4nzend (Wei\X\DF)',
#1469);
#1468=COLOUR_RGB('Stahl - satiniert',0.627450980392157,0.627450980392157,
0.627450980392157);
#1469=COLOUR_RGB('Farbe - Emaille gl\X\E4nzend (Wei\X\DF)',0.964705882352941,
0.964705882352941,0.952941176470588);
ENDSEC;
END-ISO-10303-21;
